<svg xmlns="http://www.w3.org/2000/svg" xmlns:xlink="http://www.w3.org/1999/xlink" preserveAspectRatio="xMidYMid" width="6.031" height="10" viewBox="0 0 6.031 10">
  <defs>
    <style>
      .cls-1 {
        fill: #534462;
        fill-rule: evenodd;
      }
    </style>
  </defs>
  <path d="M6.000,0.874 C6.000,0.728 5.942,0.590 5.837,0.487 L5.502,0.160 C5.397,0.057 5.257,-0.000 5.107,-0.000 C4.957,-0.000 4.817,0.057 4.712,0.160 L0.163,4.614 C0.057,4.717 -0.001,4.855 -0.000,5.002 C-0.001,5.149 0.057,5.287 0.163,5.390 L4.708,9.840 C4.813,9.943 4.953,10.000 5.103,10.000 C5.253,10.000 5.393,9.943 5.498,9.840 L5.833,9.512 C6.051,9.299 6.051,8.952 5.833,8.739 L2.016,5.002 L5.837,1.261 C5.942,1.158 6.000,1.021 6.000,0.874 " class="cls-1"/>
</svg>
