<svg xmlns="http://www.w3.org/2000/svg" xmlns:xlink="http://www.w3.org/1999/xlink" preserveAspectRatio="xMidYMid" width="18" height="14" viewBox="0 0 18 14">
  <defs>
    <style>
      .cls-1 {
        fill: #fff;
        fill-rule: evenodd;
      }
    </style>
  </defs>
  <path d="M17.744,6.346 L11.966,0.269 C11.801,0.095 11.581,-0.000 11.347,-0.000 C11.112,-0.000 10.893,0.095 10.728,0.269 L10.203,0.820 C10.038,0.994 9.947,1.225 9.947,1.472 C9.947,1.718 10.038,1.957 10.203,2.131 L13.574,5.684 L0.864,5.684 C0.381,5.684 -0.000,6.081 -0.000,6.589 L-0.000,7.370 C-0.000,7.878 0.381,8.315 0.864,8.315 L13.612,8.315 L10.203,11.888 C10.038,12.062 9.948,12.287 9.948,12.534 C9.948,12.780 10.038,13.008 10.203,13.182 L10.728,13.732 C10.893,13.905 11.112,14.000 11.347,14.000 C11.581,14.000 11.801,13.904 11.966,13.731 L17.745,7.653 C17.910,7.479 18.001,7.247 18.000,7.000 C18.001,6.752 17.910,6.520 17.744,6.346 Z" class="cls-1"/>
</svg>
