<svg xmlns="http://www.w3.org/2000/svg" xmlns:xlink="http://www.w3.org/1999/xlink" preserveAspectRatio="xMidYMid" width="10" height="9" viewBox="0 0 10 9">
  <defs>
    <style>
      .cls-1 {
        fill: #fff;
        fill-rule: evenodd;
      }
    </style>
  </defs>
  <path d="M0.172,4.658 C0.048,4.807 -0.013,4.998 0.002,5.195 C0.017,5.392 0.105,5.571 0.250,5.699 L3.781,8.822 C3.912,8.938 4.074,9.000 4.245,9.000 C4.266,9.000 4.287,8.999 4.309,8.997 C4.502,8.979 4.676,8.884 4.799,8.730 L9.837,2.145 C9.959,1.992 10.015,1.800 9.997,1.604 C9.978,1.408 9.887,1.230 9.739,1.105 L8.633,0.168 C8.329,-0.090 7.878,-0.045 7.627,0.270 L3.979,5.108 L2.112,3.456 C1.812,3.192 1.360,3.227 1.103,3.536 L0.172,4.658 Z" class="cls-1"/>
</svg>
