<svg xmlns="http://www.w3.org/2000/svg" xmlns:xlink="http://www.w3.org/1999/xlink" preserveAspectRatio="xMidYMid" width="19" height="14" viewBox="0 0 19 14">
  <defs>
    <style>
      .cls-1 {
        fill: #9ea1bd;
        fill-rule: evenodd;
      }
    </style>
  </defs>
  <path d="M18.995,7.085 C18.993,7.106 18.990,7.126 18.986,7.147 C18.985,7.154 18.984,7.161 18.983,7.168 C18.978,7.193 18.972,7.217 18.965,7.241 C18.964,7.244 18.963,7.246 18.962,7.249 C18.955,7.273 18.946,7.297 18.937,7.320 C18.936,7.323 18.935,7.325 18.934,7.328 C18.925,7.350 18.914,7.371 18.903,7.392 C18.901,7.396 18.900,7.400 18.898,7.404 C18.887,7.423 18.875,7.442 18.863,7.460 C18.860,7.465 18.857,7.471 18.854,7.476 C18.842,7.493 18.829,7.510 18.816,7.527 C18.812,7.532 18.808,7.538 18.804,7.543 C18.786,7.564 18.767,7.585 18.747,7.605 L16.156,10.172 C15.987,10.339 15.766,10.423 15.545,10.423 C15.324,10.423 15.103,10.339 14.935,10.172 C14.597,9.838 14.597,9.296 14.935,8.962 L16.051,7.856 L6.045,7.856 C5.569,7.856 5.182,7.473 5.182,7.000 C5.182,6.527 5.569,6.144 6.045,6.144 L16.051,6.144 L14.935,5.037 C14.597,4.704 14.597,4.162 14.935,3.827 C15.272,3.493 15.819,3.493 16.156,3.827 L18.747,6.394 C18.767,6.414 18.786,6.435 18.804,6.457 C18.808,6.462 18.812,6.468 18.816,6.473 C18.829,6.490 18.842,6.506 18.854,6.524 C18.857,6.529 18.860,6.534 18.864,6.540 C18.876,6.558 18.887,6.577 18.898,6.596 C18.900,6.600 18.901,6.604 18.904,6.608 C18.914,6.629 18.925,6.650 18.934,6.672 C18.935,6.674 18.936,6.677 18.937,6.680 C18.946,6.703 18.955,6.726 18.962,6.750 C18.963,6.753 18.964,6.757 18.965,6.759 C18.972,6.783 18.978,6.807 18.983,6.831 C18.984,6.839 18.985,6.846 18.986,6.854 C18.990,6.873 18.993,6.894 18.995,6.915 C18.999,6.943 19.000,6.971 19.000,7.000 C19.000,7.028 18.999,7.057 18.995,7.085 ZM11.498,4.054 C10.503,2.587 8.846,1.711 7.065,1.711 C4.122,1.711 1.727,4.084 1.727,7.000 C1.727,9.916 4.122,12.288 7.065,12.288 C8.840,12.288 10.495,11.416 11.491,9.956 C11.758,9.564 12.295,9.462 12.690,9.726 C13.085,9.991 13.189,10.523 12.922,10.914 C11.605,12.846 9.415,14.000 7.065,14.000 C3.169,14.000 -0.000,10.860 -0.000,7.000 C-0.000,3.140 3.169,-0.000 7.065,-0.000 C9.422,-0.000 11.615,1.158 12.932,3.099 C13.198,3.492 13.093,4.023 12.697,4.287 C12.301,4.551 11.764,4.446 11.498,4.054 Z" class="cls-1"/>
</svg>
