<svg xmlns="http://www.w3.org/2000/svg" xmlns:xlink="http://www.w3.org/1999/xlink" preserveAspectRatio="xMidYMid" width="16" height="18" viewBox="0 0 16 18">
  <defs>
    <style>
      .cls-1 {
        fill: #9ea1bd;
        fill-rule: evenodd;
      }
    </style>
  </defs>
  <path d="M3.741,11.461 C4.110,11.461 4.409,11.776 4.409,12.164 L4.409,12.164 C4.409,12.552 4.110,12.867 3.741,12.867 C3.372,12.867 3.073,12.552 3.073,12.164 L3.073,12.164 C3.073,11.776 3.372,11.461 3.741,11.461 ZM5.578,12.164 L5.578,12.164 C5.578,12.552 5.877,12.867 6.246,12.867 C6.615,12.867 6.914,12.552 6.914,12.164 L6.914,12.164 C6.914,11.776 6.615,11.461 6.246,11.461 C5.877,11.461 5.578,11.776 5.578,12.164 ZM6.847,17.297 C6.847,17.685 6.548,18.000 6.179,18.000 L2.672,18.000 C1.199,18.000 -0.000,16.738 -0.000,15.187 L-0.000,9.422 C-0.000,7.871 1.199,6.609 2.672,6.609 L3.472,6.609 L3.472,4.130 C3.472,1.852 5.270,-0.000 7.481,-0.000 C9.691,-0.000 11.489,1.852 11.489,4.130 L11.489,6.609 L12.292,6.609 C13.765,6.609 14.964,7.871 14.964,9.422 L14.964,10.160 C14.964,10.548 14.665,10.863 14.296,10.863 C13.927,10.863 13.628,10.548 13.628,10.160 L13.628,9.422 C13.628,8.646 13.028,8.016 12.292,8.016 L2.672,8.016 C1.935,8.016 1.336,8.646 1.336,9.422 L1.336,15.187 C1.336,15.963 1.935,16.594 2.672,16.594 L6.179,16.594 C6.548,16.594 6.847,16.908 6.847,17.297 ZM4.808,6.609 L10.153,6.609 L10.153,4.130 C10.153,2.628 8.954,1.406 7.481,1.406 C6.007,1.406 4.808,2.628 4.808,4.130 L4.808,6.609 L4.808,6.609 ZM15.878,14.994 C15.854,15.029 15.774,15.149 15.724,15.215 C15.500,15.512 14.976,16.205 14.247,16.817 C13.313,17.602 12.352,18.000 11.390,18.000 C10.428,18.000 9.466,17.602 8.532,16.817 C7.803,16.205 7.279,15.512 7.056,15.215 C7.006,15.149 6.925,15.029 6.902,14.994 C6.740,14.751 6.740,14.428 6.902,14.186 C6.925,14.150 7.006,14.030 7.056,13.964 C7.279,13.668 7.803,12.975 8.532,12.362 C9.466,11.578 10.428,11.180 11.390,11.180 C12.352,11.180 13.313,11.578 14.247,12.362 C14.976,12.975 15.500,13.668 15.723,13.964 C15.774,14.030 15.854,14.150 15.878,14.186 C16.040,14.428 16.040,14.751 15.878,14.994 ZM14.484,14.590 C13.422,13.260 12.382,12.586 11.390,12.586 C10.397,12.586 9.357,13.260 8.295,14.590 C9.358,15.920 10.398,16.594 11.390,16.594 C12.382,16.594 13.422,15.920 14.484,14.590 ZM11.423,13.254 C10.722,13.254 10.154,13.852 10.154,14.590 C10.154,15.328 10.722,15.926 11.423,15.926 C12.124,15.926 12.692,15.328 12.692,14.590 C12.692,13.852 12.124,13.254 11.423,13.254 Z" class="cls-1"/>
</svg>
