<svg xmlns="http://www.w3.org/2000/svg" xmlns:xlink="http://www.w3.org/1999/xlink" preserveAspectRatio="xMidYMid" width="18" height="18" viewBox="0 0 22 22">
  <defs>
    <style>
      .cls-1 {
        fill: #fff;
        fill-rule: evenodd;
      }
    </style>
  </defs>
  <path d="M10.979,22.000 C4.924,21.997 -0.000,17.060 0.000,10.993 C0.001,4.940 4.949,-0.007 10.998,-0.001 C17.094,0.005 22.003,4.931 21.999,11.038 C21.994,17.093 17.058,22.003 10.979,22.000 ZM10.897,1.573 C5.794,1.595 1.550,5.884 1.574,10.995 C1.599,16.270 5.815,20.441 11.107,20.426 C16.215,20.411 20.446,16.134 20.424,11.009 C20.400,5.731 16.178,1.550 10.897,1.573 ZM15.466,11.786 C14.270,11.789 13.074,11.787 11.786,11.787 C11.786,13.037 11.788,14.229 11.785,15.421 C11.785,15.589 11.801,15.768 11.749,15.921 C11.614,16.318 11.325,16.554 10.895,16.484 C10.451,16.411 10.216,16.114 10.215,15.657 C10.211,14.628 10.213,13.600 10.213,12.571 C10.212,12.332 10.213,12.093 10.213,11.787 C9.011,11.787 7.858,11.787 6.705,11.787 C6.537,11.786 6.364,11.806 6.201,11.777 C5.755,11.697 5.485,11.415 5.514,10.963 C5.545,10.486 5.858,10.223 6.337,10.218 C7.402,10.206 8.468,10.213 9.534,10.213 C9.737,10.213 9.940,10.213 10.210,10.213 C10.210,9.360 10.210,8.544 10.210,7.729 C10.210,7.280 10.203,6.831 10.216,6.382 C10.231,5.849 10.576,5.487 11.028,5.503 C11.465,5.519 11.779,5.864 11.783,6.378 C11.792,7.629 11.786,8.880 11.786,10.213 C12.427,10.213 13.037,10.213 13.646,10.213 C14.244,10.213 14.843,10.211 15.441,10.214 C16.124,10.216 16.504,10.507 16.496,11.016 C16.487,11.503 16.118,11.784 15.466,11.786 Z" class="cls-1"/>
</svg>
