<svg xmlns="http://www.w3.org/2000/svg" xmlns:xlink="http://www.w3.org/1999/xlink" preserveAspectRatio="xMidYMid" width="12" height="12" viewBox="0 0 12 12">
  <defs>
    <style>
      .cls-1 {
        fill: #fff;
        fill-rule: evenodd;
      }
    </style>
  </defs>
  <path d="M6.846,6.874 C6.846,8.240 6.848,9.544 6.845,10.847 C6.844,11.030 6.863,11.227 6.806,11.394 C6.658,11.828 6.342,12.086 5.872,12.009 C5.387,11.930 5.130,11.605 5.128,11.105 C5.124,9.980 5.126,8.856 5.126,7.731 C5.125,7.469 5.126,7.208 5.126,6.874 C3.812,6.874 2.551,6.874 1.291,6.873 C1.107,6.873 0.918,6.895 0.740,6.863 C0.252,6.775 -0.043,6.467 -0.012,5.973 C0.022,5.452 0.364,5.164 0.888,5.158 C2.053,5.146 3.218,5.154 4.384,5.153 C4.606,5.153 4.828,5.153 5.123,5.153 C5.123,4.221 5.122,3.329 5.123,2.437 C5.123,1.946 5.115,1.455 5.129,0.964 C5.146,0.382 5.522,-0.014 6.018,0.004 C6.495,0.021 6.839,0.398 6.843,0.960 C6.853,2.327 6.846,3.695 6.846,5.153 C7.547,5.153 8.213,5.153 8.879,5.153 C9.534,5.153 10.188,5.151 10.842,5.154 C11.589,5.156 12.004,5.474 11.995,6.030 C11.986,6.564 11.582,6.871 10.870,6.873 C9.562,6.876 8.254,6.874 6.846,6.874 Z" class="cls-1"/>
</svg>
