<svg xmlns="http://www.w3.org/2000/svg" xmlns:xlink="http://www.w3.org/1999/xlink" preserveAspectRatio="xMidYMid" width="16" height="16" viewBox="0 0 16 16">
  <defs>
    <style>
      .cls-1 {
        fill: #fff;
        fill-rule: evenodd;
      }
    </style>
  </defs>
  <path d="M8.000,16.000 C5.235,16.000 2.797,14.597 1.360,12.464 L2.881,11.114 C3.936,12.841 5.833,14.000 8.000,14.000 C10.125,14.000 11.982,12.881 13.047,11.210 L11.500,9.000 L15.560,5.400 C15.840,6.216 16.000,7.089 16.000,8.000 C16.000,12.418 12.418,16.000 8.000,16.000 ZM8.000,2.000 C5.875,2.000 4.018,3.119 2.953,4.790 L4.500,7.000 L0.440,10.599 C0.160,9.784 -0.000,8.911 -0.000,8.000 C-0.000,3.582 3.582,-0.000 8.000,-0.000 C10.765,-0.000 13.203,1.403 14.639,3.536 L13.119,4.885 C12.064,3.159 10.167,2.000 8.000,2.000 Z" class="cls-1"/>
</svg>
