<svg xmlns="http://www.w3.org/2000/svg" xmlns:xlink="http://www.w3.org/1999/xlink" preserveAspectRatio="xMidYMid" width="18" height="18" viewBox="0 0 18 18">
  <defs>
    <style>
      .cls-1 {
        fill: #c9d1d5;
        fill-rule: evenodd;
      }
    </style>
  </defs>
  <path d="M17.739,16.480 L17.739,16.480 L14.158,12.900 C15.244,11.540 15.895,9.818 15.895,7.947 C15.895,3.565 12.329,-0.000 7.947,-0.000 C3.565,-0.000 -0.000,3.565 -0.000,7.947 C-0.000,12.329 3.565,15.895 7.947,15.895 C9.818,15.895 11.540,15.244 12.900,14.158 L16.480,17.739 C16.649,17.907 16.872,18.000 17.110,18.000 C17.347,18.000 17.571,17.907 17.739,17.739 C17.907,17.571 18.000,17.348 18.000,17.110 C18.000,16.872 17.907,16.648 17.739,16.480 ZM7.947,14.114 C4.547,14.114 1.780,11.348 1.780,7.947 C1.780,4.547 4.547,1.780 7.947,1.780 C11.348,1.780 14.114,4.547 14.114,7.947 C14.114,11.348 11.348,14.114 7.947,14.114 Z" class="cls-1"/>
</svg>
