<svg xmlns="http://www.w3.org/2000/svg" xmlns:xlink="http://www.w3.org/1999/xlink" preserveAspectRatio="xMidYMid" width="16" height="16" viewBox="0 0 16 16">
  <defs>
    <style>
      .cls-1 {
        fill: #9ea1bd;
        fill-rule: evenodd;
      }
    </style>
  </defs>
  <path d="M13.675,10.343 C12.801,9.471 11.761,8.826 10.626,8.436 C11.855,7.592 12.658,6.173 12.640,4.572 C12.611,2.025 10.494,-0.033 7.940,-0.000 C5.409,0.032 3.361,2.094 3.361,4.624 C3.361,6.204 4.159,7.601 5.375,8.436 C4.240,8.826 3.200,9.471 2.325,10.343 C0.971,11.693 0.160,13.440 0.003,15.321 C-0.028,15.686 0.258,16.000 0.626,16.000 L0.630,16.000 C0.957,16.000 1.226,15.749 1.253,15.424 C1.547,11.971 4.461,9.250 8.000,9.250 C11.540,9.250 14.454,11.971 14.748,15.424 C14.775,15.749 15.044,16.000 15.371,16.000 L15.375,16.000 C15.742,16.000 16.028,15.686 15.998,15.321 C15.840,13.440 15.030,11.693 13.675,10.343 ZM4.616,4.736 C4.553,2.787 6.157,1.188 8.113,1.251 C9.887,1.309 11.327,2.744 11.384,4.513 C11.448,6.462 9.843,8.061 7.888,7.998 C6.114,7.940 4.674,6.505 4.616,4.736 Z" class="cls-1"/>
</svg>
