<svg xmlns="http://www.w3.org/2000/svg" xmlns:xlink="http://www.w3.org/1999/xlink" preserveAspectRatio="xMidYMid" width="3" height="15" viewBox="0 0 3 15">
  <defs>
    <style>
      .cls-1 {
        fill: #9ea1bd;
        fill-rule: evenodd;
      }
    </style>
  </defs>
  <path d="M1.500,9.156 C0.672,9.156 -0.000,8.415 -0.000,7.500 C-0.000,6.585 0.672,5.844 1.500,5.844 C2.328,5.844 3.000,6.585 3.000,7.500 C3.000,8.415 2.328,9.156 1.500,9.156 ZM1.500,3.344 C0.672,3.344 -0.000,2.595 -0.000,1.672 C-0.000,0.748 0.672,-0.000 1.500,-0.000 C2.328,-0.000 3.000,0.748 3.000,1.672 C3.000,2.595 2.328,3.344 1.500,3.344 ZM1.500,11.656 C2.328,11.656 3.000,12.405 3.000,13.328 C3.000,14.251 2.328,15.000 1.500,15.000 C0.672,15.000 -0.000,14.251 -0.000,13.328 C-0.000,12.405 0.672,11.656 1.500,11.656 Z" class="cls-1"/>
</svg>
