<svg xmlns="http://www.w3.org/2000/svg" xmlns:xlink="http://www.w3.org/1999/xlink" preserveAspectRatio="xMidYMid" width="15" height="18" viewBox="0 0 15 18">
  <defs>
    <style>
      .cls-1 {
        fill: #fff;
        fill-rule: evenodd;
      }
    </style>
  </defs>
  <path d="M-0.001,-0.000 L7.161,-0.000 C8.579,-0.000 9.636,0.059 10.333,0.178 C11.030,0.297 11.653,0.544 12.203,0.921 C12.753,1.297 13.211,1.799 13.578,2.425 C13.945,3.051 14.128,3.753 14.128,4.531 C14.128,5.374 13.902,6.147 13.450,6.851 C12.998,7.555 12.384,8.083 11.610,8.435 C12.702,8.754 13.541,9.299 14.128,10.068 C14.715,10.838 15.008,11.742 15.008,12.782 C15.008,13.600 14.819,14.396 14.440,15.170 C14.061,15.943 13.543,16.561 12.888,17.024 C12.232,17.486 11.423,17.771 10.461,17.877 C9.858,17.943 8.404,17.984 6.098,18.000 L-0.001,18.000 L-0.001,-0.000 ZM3.617,2.996 L3.617,7.158 L5.988,7.158 C7.398,7.158 8.274,7.138 8.616,7.097 C9.235,7.023 9.722,6.808 10.076,6.452 C10.431,6.096 10.608,5.627 10.608,5.046 C10.608,4.490 10.455,4.037 10.150,3.690 C9.844,3.342 9.390,3.131 8.787,3.057 C8.428,3.016 7.398,2.996 5.695,2.996 L3.617,2.996 ZM3.617,10.154 L3.617,14.967 L6.966,14.967 C8.269,14.967 9.097,14.930 9.447,14.857 C9.985,14.758 10.423,14.519 10.761,14.138 C11.099,13.758 11.268,13.248 11.268,12.610 C11.268,12.070 11.138,11.611 10.877,11.235 C10.616,10.858 10.239,10.584 9.746,10.412 C9.253,10.240 8.184,10.154 6.538,10.154 L3.617,10.154 Z" class="cls-1"/>
</svg>
