<svg xmlns="http://www.w3.org/2000/svg" xmlns:xlink="http://www.w3.org/1999/xlink" preserveAspectRatio="xMidYMid" width="18" height="18" viewBox="0 0 18 18">
  <defs>
    <style>
      .cls-1 {
        fill: #fff;
        fill-rule: evenodd;
      }
    </style>
  </defs>
  <path d="M17.541,6.964 C17.161,6.802 15.530,6.982 15.078,6.573 C14.759,6.279 14.739,5.745 14.614,5.034 C14.404,3.843 14.318,3.573 14.101,3.104 C13.310,1.432 11.415,-0.000 9.694,-0.000 L5.704,-0.000 C2.565,-0.000 -0.000,2.562 -0.000,5.689 L-0.000,12.322 C-0.000,15.444 2.565,18.000 5.704,18.000 L12.259,18.000 C15.398,18.000 17.946,15.444 17.964,12.322 L18.000,7.729 C18.000,7.729 18.000,7.161 17.541,6.964 ZM5.776,4.650 L8.939,4.650 C9.542,4.650 10.031,5.137 10.031,5.732 C10.031,6.328 9.542,6.820 8.939,6.820 L5.776,6.820 C5.173,6.820 4.683,6.327 4.683,5.732 C4.683,5.136 5.173,4.650 5.776,4.650 ZM12.205,13.321 L5.776,13.321 C5.173,13.321 4.683,12.828 4.683,12.239 C4.683,11.644 5.173,11.157 5.776,11.157 L12.205,11.157 C12.802,11.157 13.292,11.644 13.292,12.239 C13.292,12.828 12.802,13.321 12.205,13.321 Z" class="cls-1"/>
</svg>
