<svg xmlns="http://www.w3.org/2000/svg" width="10" height="16" viewBox="0 0 10 16">
  <defs>
    <style>
      .cls-1 {
        fill: #fff;
        fill-rule: evenodd;
      }
    </style>
  </defs>
  <path id="_22_BookmarksFr" data-name="22_BookmarksFr" class="cls-1" d="M109,147.905c0-.7.1-1.791,0.1-2.785V131.993h1.924v6.762h0a3.942,3.942,0,0,1,3.558-1.989c2.6,0,4.424,2.188,4.424,5.47,0,3.878-2.4,5.768-4.712,5.768a3.639,3.639,0,0,1-3.462-1.989h-0.1l-0.1,1.79H109v0.1Zm2.02-4.376a1.748,1.748,0,0,0,.1.7,2.913,2.913,0,0,0,2.885,2.287c2.02,0,3.174-1.69,3.174-4.177,0-2.187-1.058-3.977-3.078-3.977a3.06,3.06,0,0,0-2.885,2.386c0,0.2-.1.5-0.1,0.8v1.989h-0.1Z" transform="translate(-109 -132)"/>
</svg>
