<svg xmlns="http://www.w3.org/2000/svg" width="18" height="11" viewBox="0 0 18 11">
  <defs>
    <style>
      .cls-1 {
        fill: #fff;
        fill-rule: evenodd;
      }
    </style>
  </defs>
  <path id="_24_Box" data-name="24_Box" class="cls-1" d="M245.705,137.4a3.539,3.539,0,0,0-3.067,2.01,3.573,3.573,0,0,0-3.17-2.01,3.453,3.453,0,0,0-2.044.741v-3.386h0a0.716,0.716,0,1,0-1.431,0h0V141.1h0a3.671,3.671,0,0,0,3.475,3.7,3.536,3.536,0,0,0,3.067-2.01,3.538,3.538,0,0,0,3.067,2.01,3.6,3.6,0,0,0,3.476-3.7,3.455,3.455,0,0,0-3.373-3.7m-6.237,6.031a2.183,2.183,0,0,1-2.044-2.222,2.115,2.115,0,0,1,2.044-2.222,2.183,2.183,0,0,1,2.045,2.222A2.052,2.052,0,0,1,239.468,143.429Zm6.237,0a2.183,2.183,0,0,1-2.045-2.222,2.115,2.115,0,0,1,2.045-2.222A2.23,2.23,0,0,1,245.705,143.429Zm8.178,0.317-1.84-2.645,1.84-2.645h0a0.977,0.977,0,0,0-.1-1.058,0.913,0.913,0,0,0-1.022.106h0l-1.534,2.222-1.533-2.222h0a0.756,0.756,0,0,0-1.023-.106,0.824,0.824,0,0,0-.1,1.058h0l1.84,2.645-1.84,2.645h0a0.981,0.981,0,0,0,.1,1.058,0.9,0.9,0,0,0,1.023-.1h0l1.533-2.222,1.534,2.222h0a0.668,0.668,0,0,0,1.022.1,0.977,0.977,0,0,0,.1-1.058h0" transform="translate(-236 -134)"/>
</svg>
