<svg 
 xmlns="http://www.w3.org/2000/svg"
 xmlns:xlink="http://www.w3.org/1999/xlink"
 width="17px" height="18px">
<path fill-rule="evenodd"  fill="rgb(255, 255, 255)"
 d="M9.060,0.090 C11.584,1.304 14.149,2.558 16.669,3.780 C16.804,3.846 16.980,3.890 16.980,4.087 C16.981,4.285 16.804,4.329 16.670,4.395 C14.140,5.623 11.608,6.848 9.076,8.072 C8.691,8.258 8.295,8.256 7.908,8.069 C5.371,6.842 2.835,5.614 0.300,4.384 C0.169,4.321 0.005,4.273 0.010,4.080 C0.015,3.900 0.172,3.853 0.298,3.792 C2.844,2.558 5.416,1.305 7.965,0.078 C8.235,-0.051 8.779,-0.042 9.060,0.090 L9.060,0.090 ZM8.492,17.986 C8.308,17.986 8.171,17.914 7.909,17.812 C5.375,16.593 2.845,15.367 0.315,14.141 C0.180,14.076 0.006,14.029 0.008,13.831 C0.009,13.633 0.184,13.589 0.318,13.523 C0.738,13.316 1.160,13.114 1.581,12.911 C2.003,12.709 2.421,12.711 2.844,12.917 C4.521,13.732 6.200,14.544 7.878,15.357 C8.294,15.559 8.707,15.555 9.123,15.353 C10.806,14.536 12.489,13.720 14.173,12.905 C14.570,12.713 14.973,12.707 15.373,12.895 C15.822,13.106 16.268,13.325 16.714,13.542 C16.780,13.574 16.847,13.611 16.902,13.659 C17.022,13.763 17.023,13.904 16.901,14.006 C16.827,14.067 16.739,14.112 16.652,14.154 C14.143,15.371 11.633,16.587 9.120,17.796 C8.925,17.890 8.676,17.986 8.492,17.986 L8.492,17.986 ZM8.483,13.112 C8.399,13.112 8.073,13.020 7.887,12.930 C5.364,11.715 2.845,10.492 0.325,9.270 C0.190,9.204 0.013,9.162 0.010,8.966 C0.006,8.759 0.191,8.717 0.330,8.649 C0.754,8.439 1.180,8.232 1.607,8.028 C2.012,7.835 2.418,7.840 2.822,8.036 C4.516,8.857 6.210,9.678 7.906,10.496 C8.298,10.685 8.697,10.684 9.090,10.494 C10.790,9.673 12.489,8.849 14.189,8.027 C14.582,7.837 14.979,7.837 15.372,8.024 C15.821,8.236 16.266,8.454 16.712,8.671 C16.773,8.701 16.836,8.733 16.888,8.776 C17.024,8.888 17.023,9.035 16.886,9.146 C16.833,9.189 16.771,9.221 16.709,9.251 C14.164,10.485 11.618,11.721 9.070,12.948 C8.895,13.032 8.567,13.112 8.483,13.112 L8.483,13.112 Z"/>
</svg>