<svg xmlns="http://www.w3.org/2000/svg" xmlns:xlink="http://www.w3.org/1999/xlink" preserveAspectRatio="xMidYMid" width="18.157" height="16.32" viewBox="0 0 18.157 16.32">
  <defs>
    <style>
      .cls-1 {
        fill: #fff;
        fill-rule: evenodd;
      }
    </style>
  </defs>
  <path d="M14.365,2.479 C14.188,2.565 13.973,2.495 13.884,2.317 C13.794,2.140 13.869,1.930 14.045,1.842 C14.224,1.752 14.439,1.824 14.526,1.998 C14.615,2.176 14.544,2.391 14.365,2.479 M13.563,4.546 C13.311,4.671 13.005,4.567 12.878,4.315 C12.753,4.065 12.857,3.757 13.110,3.634 C13.363,3.508 13.670,3.610 13.796,3.862 C13.921,4.116 13.819,4.422 13.563,4.546 M13.020,7.041 C12.660,7.220 12.218,7.075 12.041,6.714 C11.861,6.354 12.008,5.916 12.369,5.739 C12.731,5.560 13.170,5.706 13.350,6.066 C13.529,6.428 13.382,6.862 13.020,7.041 M8.874,9.964 C8.655,10.063 8.245,9.924 7.961,9.653 C7.680,9.383 7.629,9.084 7.851,8.987 C8.072,8.886 8.482,9.026 8.766,9.296 C9.050,9.567 9.098,9.867 8.874,9.964 M6.185,8.355 C6.029,8.421 5.746,8.311 5.552,8.115 C5.363,7.920 5.335,7.710 5.492,7.645 C5.650,7.582 5.933,7.690 6.124,7.884 C6.314,8.079 6.345,8.292 6.185,8.355 M3.704,6.996 C3.596,7.044 3.396,6.971 3.257,6.835 C3.124,6.704 3.101,6.555 3.213,6.507 C3.323,6.464 3.520,6.532 3.655,6.667 C3.794,6.803 3.814,6.949 3.704,6.996 M16.215,6.852 C16.757,6.553 16.765,6.453 16.757,5.893 C16.746,5.113 15.974,3.253 15.974,3.253 C16.104,2.640 15.767,2.357 15.828,2.057 C15.888,1.757 15.793,0.135 15.071,0.015 C14.348,-0.106 13.384,0.674 12.179,2.952 C11.301,4.614 10.667,7.384 10.388,8.766 L10.318,8.580 C10.241,8.548 10.157,8.529 10.073,8.536 C10.119,8.433 10.118,8.312 10.061,8.209 C9.985,8.071 9.828,8.004 9.674,8.028 C9.480,7.544 9.221,6.478 9.760,5.510 C9.889,5.384 10.108,5.154 9.945,5.067 C9.786,4.992 9.719,5.273 9.688,5.454 C9.125,6.456 9.391,7.555 9.589,8.057 L9.514,8.096 C9.293,7.630 8.773,6.764 7.640,6.519 C7.488,6.422 7.229,6.288 7.185,6.457 C7.136,6.635 7.461,6.626 7.635,6.608 C8.736,6.853 9.234,7.711 9.441,8.156 C9.341,8.272 9.312,8.437 9.386,8.576 C9.443,8.680 9.545,8.745 9.656,8.761 C9.606,8.832 9.575,8.910 9.561,8.991 L9.618,9.069 C7.422,7.310 3.336,5.597 1.640,5.052 C-0.226,4.451 -0.105,5.473 0.075,5.952 C0.256,6.431 1.882,7.577 2.302,7.877 C2.727,8.177 5.134,11.109 5.435,11.348 C5.735,11.589 6.458,11.589 6.458,11.589 C6.278,12.549 6.880,13.388 7.242,13.928 C7.603,14.467 11.879,17.886 11.940,15.487 C11.999,13.088 10.557,10.409 10.557,10.409 C10.585,10.442 10.617,10.474 10.646,10.507 C10.792,10.754 10.951,10.959 11.069,11.131 C11.085,11.297 11.174,11.551 11.320,11.815 C11.549,12.234 11.831,12.521 11.951,12.457 C12.070,12.391 11.982,11.999 11.752,11.581 C11.716,11.514 11.677,11.450 11.639,11.390 C13.259,12.548 15.540,13.293 16.068,13.341 C16.730,13.401 16.891,12.625 16.891,12.625 C18.757,10.767 18.021,8.831 17.840,8.111 C17.660,7.391 16.215,6.852 16.215,6.852 M9.521,8.080 L9.571,8.053 C9.563,8.058 9.555,8.060 9.544,8.067 C9.535,8.071 9.527,8.077 9.521,8.080 " class="cls-1"/>
</svg>
