<svg xmlns="http://www.w3.org/2000/svg" xmlns:xlink="http://www.w3.org/1999/xlink" preserveAspectRatio="xMidYMid" width="18" height="18" viewBox="0 0 18 18">
  <defs>
    <style>
      .cls-1 {
        fill: #fff;
        fill-rule: evenodd;
      }
    </style>
  </defs>
  <path d="M17.871,7.478 C17.232,3.727 14.273,0.768 10.522,0.129 C10.027,0.044 9.519,-0.000 9.000,-0.000 C8.481,-0.000 7.973,0.044 7.478,0.129 C3.727,0.768 0.768,3.727 0.129,7.478 C0.044,7.973 -0.000,8.481 -0.000,9.000 C-0.000,9.519 0.044,10.027 0.129,10.522 C0.768,14.273 3.727,17.232 7.478,17.871 C7.973,17.955 8.481,18.000 9.000,18.000 C9.519,18.000 10.027,17.955 10.522,17.871 C14.273,17.232 17.232,14.273 17.871,10.522 C17.955,10.027 18.000,9.519 18.000,9.000 C18.000,8.481 17.955,7.973 17.871,7.478 ZM14.463,3.537 C15.576,4.650 16.307,6.043 16.592,7.558 L13.498,7.558 C13.034,6.110 11.890,4.966 10.442,4.502 L10.442,1.408 C11.956,1.692 13.350,2.424 14.463,3.537 ZM12.553,9.000 C12.553,9.470 12.460,9.918 12.294,10.329 C11.933,11.220 11.220,11.933 10.329,12.294 C9.918,12.460 9.470,12.553 9.000,12.553 C8.530,12.553 8.082,12.460 7.671,12.294 C6.780,11.933 6.067,11.220 5.706,10.329 C5.540,9.918 5.447,9.470 5.447,9.000 C5.447,8.530 5.540,8.082 5.706,7.671 C6.067,6.780 6.780,6.067 7.671,5.706 C8.082,5.540 8.530,5.447 9.000,5.447 C9.470,5.447 9.918,5.540 10.329,5.706 C11.220,6.067 11.933,6.780 12.294,7.671 C12.460,8.082 12.553,8.530 12.553,9.000 ZM3.537,3.537 C4.650,2.424 6.043,1.692 7.558,1.408 L7.558,4.502 C6.110,4.966 4.966,6.110 4.502,7.558 L1.408,7.558 C1.692,6.043 2.424,4.650 3.537,3.537 ZM3.537,14.463 C2.424,13.350 1.692,11.956 1.408,10.442 L4.502,10.442 C4.966,11.890 6.110,13.034 7.558,13.498 L7.558,16.592 C6.043,16.307 4.650,15.576 3.537,14.463 ZM14.463,14.463 C13.350,15.576 11.956,16.307 10.442,16.592 L10.442,13.498 C11.890,13.034 13.034,11.890 13.498,10.442 L16.592,10.442 C16.307,11.956 15.576,13.350 14.463,14.463 Z" class="cls-1"/>
</svg>
