<svg xmlns="http://www.w3.org/2000/svg" xmlns:xlink="http://www.w3.org/1999/xlink" preserveAspectRatio="xMidYMid" width="18" height="12" viewBox="0 0 18 12">
  <defs>
    <style>
      .cls-1 {
        fill: #fff;
        fill-rule: evenodd;
      }
    </style>
  </defs>
  <path d="M13.500,11.997 L13.500,10.362 L16.312,10.362 L16.312,8.727 L13.500,8.727 L13.500,3.277 L18.000,3.277 L18.000,11.997 L13.500,11.997 ZM16.312,4.912 L15.187,4.912 L15.187,7.092 L16.312,7.092 L16.312,4.912 ZM7.875,10.362 L10.687,10.362 L10.687,8.727 L7.875,8.727 L7.875,3.277 L12.375,3.277 L12.375,11.997 L7.875,11.997 L7.875,10.362 ZM10.687,4.912 L9.562,4.912 L9.562,7.092 L10.687,7.092 L10.687,4.912 ZM5.344,3.277 L7.031,3.277 L7.031,8.727 L5.344,8.727 L5.344,3.277 ZM5.344,1.098 L7.031,1.098 L7.031,2.188 L5.344,2.188 L5.344,1.098 ZM-0.000,3.277 L2.812,3.277 L2.812,0.008 L4.500,0.008 L4.500,8.727 L-0.000,8.727 L-0.000,3.277 ZM1.687,7.092 L2.812,7.092 L2.812,4.912 L1.687,4.912 L1.687,7.092 Z" class="cls-1"/>
</svg>
