<svg xmlns="http://www.w3.org/2000/svg" width="11" height="18" viewBox="0 0 11 18">
  <defs>
    <style>
      .cls-1 {
        fill: #fff;
        fill-rule: evenodd;
      }
    </style>
  </defs>
  <path id="_32_diigo" data-name="32_diigo" class="cls-1" d="M109.559,186a1.526,1.526,0,1,1-1.573,1.526A1.55,1.55,0,0,1,109.559,186Zm7.762,0a1.526,1.526,0,1,1-1.573,1.526A1.551,1.551,0,0,1,117.321,186Zm1.259,3.966a0.36,0.36,0,0,0-.42.2,5.427,5.427,0,0,1-7.342,1.932,5.352,5.352,0,0,1-1.993-2.034,0.515,0.515,0,0,0-.525-0.1,0.286,0.286,0,0,0-.209.306v13.22a0.443,0.443,0,0,0,.419.407h2.308a0.443,0.443,0,0,0,.419-0.407v-8.847a8.9,8.9,0,0,0,4.616,0V203.6a0.443,0.443,0,0,0,.419.407h2.308A0.443,0.443,0,0,0,119,203.6V190.375A0.707,0.707,0,0,0,118.58,189.968Z" transform="translate(-108 -186)"/>
</svg>
