<svg xmlns="http://www.w3.org/2000/svg" width="18" height="9" viewBox="0 0 18 9">
  <defs>
    <style>
      .cls-1 {
        fill: #fff;
        fill-rule: evenodd;
      }
    </style>
  </defs>
  <path id="_12_Douban" data-name="12_Douban" class="cls-1" d="M103.1,85.118h8.4v0.928h-8.4V85.118Zm6.8,5.571h0.8V86.975h-7v3.611h0.7l0.6,2.063h-2v0.928h8.4V92.752h-2ZM105.2,87.9h4.2v1.754h-4.2V87.9Zm3,4.849h-1.9l-0.6-2.063h3.1Zm6.4-2.579-0.6.206V89.348h0.8V88.419h-0.3l0.1-1.96h0.1V85.737h-0.9V85.015h-0.7v0.722h-0.8v0.722h0.1l0.2,1.96h-0.5v0.928h1v1.135l-0.8.1v0.928l0.8-.1a10.107,10.107,0,0,1-.6,2.166l0.8,0.413a9.171,9.171,0,0,0,.7-2.682l0.6-.1V90.173h0Zm-0.9-1.754h-0.5l-0.1-1.96h0.7Zm4.3,2.166V85.84h0.2l-0.6-.722-2.8.619V91.2a7.316,7.316,0,0,1-.7,2.373l0.7,0.309a11.761,11.761,0,0,0,.7-2.682V86.253l0.5-.1v6.5h-0.6V93.68l1.8-.206V92.649h-0.5v-6.6l0.5-.1v4.539a7.032,7.032,0,0,0,.7,3.2c0.3-.1.5-0.1,0.8-0.206l-0.1-.1A5.216,5.216,0,0,1,118,90.586Zm3-1.238V88.419h-0.4l0.1-1.857h0.2V85.737h-1V85.015h-0.8v0.722h-1v0.825h0.2l0.3,1.857h-0.4v0.928h0.9v1.135h-0.8v0.928h0.8v2.373H120V91.411h0.8V90.379H120V89.348h1Zm-1.2-.928h-0.4l-0.2-1.857h0.7Z" transform="translate(-103 -85)"/>
</svg>
