<svg xmlns="http://www.w3.org/2000/svg" width="17" height="14" viewBox="0 0 17 14">
  <defs>
    <style>
      .cls-1 {
        fill: #fff;
        fill-rule: evenodd;
      }
    </style>
  </defs>
  <path id="_31_draugiem" data-name="31_draugiem" class="cls-1" d="M51.714,193.489a2.528,2.528,0,0,1,1.047,3.352c-0.654,1.6-3.073,3.6-5.492,4.689-2.582,1.145-5.8,1.932-8.6,1.186-1.562-.426-2.514-1.31-2.636-2.344-0.329-2.606,2.771-4.374,4.781-5.24-1.209.829-2.758,2.248-2.883,3.778-0.108,1.3.871,2.208,2.636,2.524a11.813,11.813,0,0,0,6.783-1.255,8.68,8.68,0,0,0,4.215-3.723,2.166,2.166,0,0,0-.515-2.716,4.642,4.642,0,0,0-2.677-.87,6.108,6.108,0,0,1,3.344.619h0Zm-5.235-3.738a0.9,0.9,0,0,1,.545.65,2.05,2.05,0,0,1,.054.495,1.777,1.777,0,0,1-.081.481,0.939,0.939,0,0,1-.6.623,0.772,0.772,0,0,1-.393-0.014,1.338,1.338,0,0,1,.081-2.248,0.64,0.64,0,0,1,.393.013h0Zm-1.3.554a1.245,1.245,0,0,1-.735,1.3,0.614,0.614,0,0,1-.23.041,0.727,0.727,0,0,1-.23-0.041,1.266,1.266,0,0,1-.735-1.3,1.291,1.291,0,0,1,.735-1.283,0.713,0.713,0,0,1,.23-0.027,0.636,0.636,0,0,1,.23.027,1.25,1.25,0,0,1,.735,1.283h0ZM43,190.841a1.121,1.121,0,0,1-.572,1.145,0.825,0.825,0,0,1-.407.014,0.922,0.922,0,0,1-.586-0.623,1.377,1.377,0,0,1-.081-0.481,2.035,2.035,0,0,1,.041-0.495,0.911,0.911,0,0,1,.559-0.65,0.634,0.634,0,0,1,.393-0.013,1.1,1.1,0,0,1,.654,1.1h0Zm3.209,1.379a1.129,1.129,0,0,1,1.277,1.227,23.056,23.056,0,0,1-.586,2.94c-0.081.44-.149,0.925-0.23,1.42-0.135.815-.19,1.076-0.681,1.035-1.128,0-.434-2.94-0.285-3.586,0.176-.788.542-2.235,0-3a1.517,1.517,0,0,1,.5-0.041h0Zm-2-.316a1.294,1.294,0,0,1,1.508,1.365,25.434,25.434,0,0,1-.559,3.393c-0.081.522-.136,1.062-0.217,1.64-0.122.938-.176,1.241-0.735,1.213-0.569.028-.61-0.275-0.749-1.213-0.068-.581-0.136-1.118-0.2-1.64a26.012,26.012,0,0,1-.559-3.393,1.3,1.3,0,0,1,1.515-1.365h0Zm-3.273,1.543A1.119,1.119,0,0,1,42.2,192.22a1.6,1.6,0,0,1,.518.041c-0.546.746-.19,2.18,0,3,0.149,0.649.844,3.586-.285,3.586-0.488.041-.546-0.22-0.681-1.035-0.081-.495-0.149-0.98-0.23-1.42a20.785,20.785,0,0,1-.586-2.94h0Z" transform="translate(-36 -189)"/>
</svg>
