<svg xmlns="http://www.w3.org/2000/svg" xmlns:xlink="http://www.w3.org/1999/xlink" preserveAspectRatio="xMidYMid" width="14.656" height="17.969" viewBox="0 0 14.656 17.969">
  <defs>
    <style>
      .cls-1 {
        fill: #fff;
        fill-rule: evenodd;
      }
    </style>
  </defs>
  <path d="M11.541,17.970 C8.356,17.970 8.006,17.636 7.804,17.465 C7.602,17.295 7.326,16.513 7.427,14.846 C7.508,13.457 9.045,13.310 9.768,13.322 C9.970,13.322 10.129,13.497 10.122,13.703 L10.091,14.418 C10.083,14.608 9.931,14.763 9.744,14.767 C9.632,14.767 9.492,14.771 9.324,14.771 C9.223,14.771 9.165,16.144 9.655,16.144 L11.312,16.072 C12.047,15.969 11.946,14.473 11.837,13.318 C11.755,12.441 10.172,12.493 8.986,12.187 C7.800,11.882 7.571,10.568 7.361,10.568 C7.151,10.568 7.403,12.854 6.649,12.854 C5.894,12.854 2.321,12.394 1.737,11.798 C0.726,10.771 -0.005,5.151 -0.005,4.627 C-0.005,4.103 0.481,3.857 1.103,3.857 L3.480,3.857 C3.888,3.857 4.219,3.520 4.219,3.103 L4.219,0.547 C4.219,0.242 4.460,-0.008 4.759,-0.012 C6.062,-0.032 7.450,-0.008 7.897,0.210 C8.695,0.595 8.776,1.706 8.776,1.706 L12.712,1.964 C12.712,1.964 14.388,2.095 14.388,3.246 C14.388,4.397 16.037,17.969 11.541,17.970 ZM11.222,7.572 C10.495,7.572 10.308,8.548 10.406,8.667 C10.507,8.790 10.837,8.469 11.222,8.469 C11.607,8.469 12.093,8.889 12.206,8.782 C12.319,8.675 11.949,7.572 11.222,7.572 ZM3.029,2.948 L1.061,2.948 C0.839,2.948 0.726,2.679 0.882,2.516 L2.850,0.452 C3.009,0.286 3.281,0.401 3.277,0.631 L3.277,2.695 C3.277,2.833 3.169,2.948 3.029,2.948 Z" class="cls-1"/>
</svg>
