<svg xmlns="http://www.w3.org/2000/svg" xmlns:xlink="http://www.w3.org/1999/xlink" preserveAspectRatio="xMidYMid" width="18" height="11" viewBox="0 0 18 11">
  <defs>
    <style>
      .cls-1 {
        fill: #fff;
        fill-rule: evenodd;
      }
    </style>
  </defs>
  <path d="M17.939,3.289 C17.812,2.947 17.669,2.614 17.412,2.355 C17.066,2.006 16.633,2.086 16.416,2.532 C16.319,2.733 16.272,2.949 16.243,3.170 C16.235,3.233 16.219,3.271 16.145,3.284 C15.933,3.320 15.723,3.370 15.512,3.414 C15.415,3.433 15.320,3.462 15.223,3.484 C14.468,3.655 15.028,3.527 14.278,3.717 C14.204,3.736 14.164,3.717 14.129,3.653 C14.029,3.468 13.901,3.306 13.749,3.167 C13.636,3.063 13.520,2.962 13.395,2.876 C13.325,2.828 13.337,2.797 13.378,2.745 C13.519,2.561 13.641,2.364 13.728,2.146 C13.748,2.085 13.791,2.086 13.842,2.096 C14.067,2.139 14.294,2.169 14.521,2.136 C14.793,2.097 14.857,1.953 14.725,1.702 C14.610,1.483 14.458,1.293 14.280,1.128 C13.985,0.855 13.582,0.892 13.326,1.206 C13.179,1.386 13.126,1.738 13.339,1.915 C13.352,1.926 13.356,1.940 13.353,1.956 C13.240,2.151 13.119,2.339 12.954,2.493 C12.910,2.534 12.872,2.546 12.813,2.516 C12.313,2.262 11.787,2.085 11.244,1.966 C11.164,1.949 11.153,1.915 11.156,1.843 C11.165,1.630 11.222,1.430 11.295,1.233 C11.315,1.176 11.347,1.162 11.401,1.163 C11.550,1.167 11.698,1.168 11.845,1.141 C12.102,1.094 12.147,0.982 11.994,0.765 C11.832,0.538 11.639,0.341 11.442,0.148 C11.390,0.097 11.328,0.059 11.262,0.030 C10.957,-0.101 10.496,0.118 10.376,0.451 C10.281,0.716 10.369,0.938 10.618,1.052 C10.667,1.074 10.718,1.094 10.769,1.104 C10.820,1.114 10.831,1.137 10.827,1.186 C10.811,1.390 10.759,1.586 10.702,1.781 C10.685,1.839 10.662,1.861 10.603,1.851 C10.379,1.813 10.153,1.800 9.926,1.792 C9.327,1.770 8.735,1.826 8.159,2.012 C8.119,2.025 8.088,2.027 8.067,1.977 C7.995,1.812 7.922,1.647 7.845,1.484 C7.819,1.428 7.830,1.407 7.883,1.383 C8.026,1.317 8.166,1.245 8.264,1.111 C8.373,0.964 8.382,0.746 8.275,0.622 C8.145,0.470 7.985,0.366 7.789,0.327 C7.633,0.297 7.477,0.285 7.320,0.308 C7.064,0.346 6.872,0.481 6.772,0.736 C6.629,1.102 6.799,1.429 7.167,1.490 C7.260,1.505 7.357,1.499 7.452,1.498 C7.494,1.498 7.518,1.509 7.524,1.557 C7.548,1.753 7.572,1.949 7.599,2.144 C7.607,2.200 7.590,2.227 7.541,2.250 C7.396,2.319 7.252,2.390 7.116,2.478 C7.089,2.491 7.062,2.503 7.037,2.518 C6.609,2.770 6.206,3.057 5.839,3.399 C5.810,3.427 5.788,3.462 5.739,3.414 C5.600,3.280 5.458,3.148 5.305,3.030 C5.279,3.010 5.265,2.993 5.287,2.956 C5.512,2.575 5.355,2.154 5.128,1.902 C4.903,1.653 4.553,1.616 4.310,1.842 C3.978,2.148 3.783,2.531 3.820,3.010 C3.839,3.258 3.995,3.423 4.229,3.465 C4.473,3.509 4.694,3.450 4.901,3.319 C4.948,3.289 4.974,3.291 5.011,3.336 C5.131,3.481 5.254,3.625 5.381,3.763 C5.426,3.812 5.425,3.839 5.383,3.890 C5.128,4.194 4.912,4.526 4.754,4.896 C4.644,5.157 4.557,5.425 4.534,5.712 C4.533,5.723 4.532,5.734 4.531,5.746 C4.515,5.769 4.516,5.795 4.519,5.821 C4.505,5.971 4.502,6.120 4.518,6.270 C4.515,6.296 4.517,6.322 4.531,6.345 C4.425,6.415 4.300,6.428 4.183,6.465 C3.619,6.643 1.798,7.121 1.509,7.222 C1.439,7.247 1.400,7.245 1.372,7.161 C1.337,7.056 1.278,6.962 1.208,6.876 C1.049,6.680 0.831,6.639 0.617,6.768 C0.502,6.837 0.415,6.939 0.341,7.052 C0.063,7.478 -0.035,7.954 -0.009,8.462 C-0.001,8.634 0.081,8.774 0.209,8.881 C0.674,9.270 1.380,9.022 1.524,8.421 C1.552,8.306 1.565,8.190 1.560,8.072 C1.558,8.025 1.572,8.002 1.615,7.982 C1.797,7.899 1.974,7.806 2.157,7.725 C2.486,7.580 3.692,7.159 4.530,6.872 C4.594,6.850 4.618,6.848 4.642,6.926 C4.819,7.519 5.142,8.011 5.596,8.411 C5.641,8.451 5.639,8.477 5.608,8.524 C5.548,8.615 5.495,8.712 5.438,8.806 C5.385,8.891 5.329,8.974 5.281,9.062 C5.251,9.116 5.230,9.126 5.175,9.092 C5.038,9.004 4.890,8.948 4.727,8.993 C4.512,9.054 4.376,9.203 4.342,9.431 C4.304,9.696 4.349,9.938 4.574,10.109 C4.704,10.208 4.857,10.249 5.009,10.288 C5.234,10.345 5.462,10.391 5.694,10.325 C5.905,10.264 5.974,10.122 5.898,9.908 C5.855,9.785 5.788,9.674 5.702,9.579 C5.649,9.520 5.654,9.475 5.689,9.410 C5.761,9.282 5.840,9.160 5.918,9.036 C5.972,8.970 6.027,8.906 6.078,8.837 C6.115,8.787 6.146,8.774 6.210,8.803 C6.579,8.970 6.966,9.062 7.369,9.074 C7.567,9.079 7.765,9.075 7.962,9.075 C7.952,9.283 7.919,9.484 7.953,9.687 C7.972,9.786 7.931,9.835 7.837,9.859 C7.778,9.873 7.722,9.908 7.669,9.941 C7.342,10.146 7.311,10.487 7.597,10.752 C8.026,11.152 8.688,11.067 9.019,10.469 C9.075,10.368 9.108,10.253 9.079,10.132 C9.081,9.991 9.001,9.906 8.900,9.829 C8.802,9.755 8.688,9.740 8.575,9.731 C8.514,9.727 8.501,9.703 8.507,9.647 C8.528,9.447 8.542,9.246 8.576,9.047 C8.586,8.986 8.612,8.975 8.655,8.966 C9.344,8.821 10.002,8.581 10.645,8.291 C10.673,8.315 10.671,8.351 10.679,8.383 C10.739,8.611 10.827,8.827 10.961,9.018 C11.004,9.080 10.997,9.111 10.947,9.161 C10.791,9.319 10.675,9.503 10.634,9.731 C10.594,9.959 10.678,10.131 10.861,10.181 C10.930,10.200 11.002,10.207 11.073,10.196 C11.465,10.132 11.804,9.953 12.098,9.678 C12.189,9.593 12.259,9.488 12.290,9.361 C12.362,9.069 12.284,8.742 11.859,8.720 C11.714,8.713 11.574,8.740 11.444,8.803 C11.389,8.829 11.369,8.813 11.342,8.767 C11.234,8.585 11.148,8.392 11.072,8.194 C11.045,8.125 11.051,8.090 11.123,8.055 C11.633,7.807 12.139,7.551 12.626,7.255 C12.669,7.229 12.695,7.229 12.729,7.272 C12.896,7.479 13.064,7.683 13.235,7.884 C13.272,7.928 13.269,7.960 13.246,8.006 C13.166,8.164 13.116,8.331 13.123,8.512 C13.131,8.697 13.221,8.807 13.388,8.829 C13.450,8.836 13.512,8.838 13.574,8.821 C13.922,8.725 14.212,8.530 14.455,8.256 C14.497,8.208 14.529,8.152 14.555,8.092 C14.652,7.864 14.558,7.582 14.341,7.477 C14.077,7.351 13.822,7.381 13.581,7.549 C13.556,7.567 13.539,7.597 13.499,7.563 C13.313,7.403 13.140,7.231 12.999,7.021 C13.028,7.002 13.053,6.985 13.077,6.968 C13.460,6.697 13.822,6.403 14.077,5.991 C14.103,5.949 14.134,5.945 14.175,5.946 C14.386,5.948 14.593,5.982 14.797,6.041 C14.857,6.058 14.877,6.080 14.873,6.147 C14.856,6.377 14.908,6.588 15.046,6.773 C15.151,6.913 15.282,7.006 15.460,7.010 C15.679,7.014 15.855,6.879 15.956,6.616 C16.077,6.299 16.114,5.970 16.062,5.633 C16.007,5.280 15.757,5.110 15.445,5.211 C15.271,5.267 15.155,5.399 15.065,5.556 C15.037,5.607 15.010,5.630 14.948,5.623 C14.732,5.598 14.516,5.582 14.301,5.563 C14.292,5.531 14.305,5.503 14.313,5.474 C14.353,5.314 14.382,5.152 14.385,4.986 C14.385,4.968 14.386,4.950 14.387,4.932 C14.393,4.703 14.381,4.474 14.345,4.248 C14.337,4.194 14.349,4.179 14.398,4.169 C14.621,4.121 14.843,4.068 15.066,4.018 C15.872,3.837 15.364,3.958 16.174,3.794 C16.199,3.790 16.225,3.785 16.235,3.820 C16.241,3.846 16.246,3.874 16.254,3.899 C16.339,4.168 16.516,4.342 16.768,4.438 C17.065,4.551 17.356,4.545 17.636,4.379 C17.865,4.279 17.975,4.088 18.007,3.843 C18.031,3.654 18.005,3.468 17.939,3.289 ZM7.210,4.150 C7.411,3.813 7.730,3.699 8.092,3.688 C8.384,3.679 8.663,3.747 8.934,3.855 C9.414,4.047 9.833,4.334 10.199,4.712 C10.412,4.933 10.464,5.156 10.331,5.451 C10.089,5.983 9.771,6.439 9.288,6.757 C9.056,6.910 8.804,7.003 8.548,7.000 C8.088,7.035 7.767,6.820 7.511,6.478 C7.244,6.121 7.059,5.717 6.993,5.272 C6.935,4.880 7.004,4.494 7.210,4.150 ZM13.054,5.441 C12.961,5.740 12.793,5.836 12.511,5.734 C12.194,5.620 11.964,5.400 11.812,5.089 C11.730,4.920 11.731,4.746 11.775,4.567 C11.780,4.547 11.783,4.525 11.787,4.504 C11.867,4.281 11.970,4.070 12.121,3.890 C12.220,3.771 12.327,3.660 12.469,3.598 C12.637,3.525 12.908,3.569 13.016,3.818 C13.089,3.987 13.114,4.166 13.123,4.349 C13.135,4.592 13.127,4.836 13.122,5.080 C13.096,5.199 13.090,5.323 13.054,5.441 Z" class="cls-1"/>
</svg>
