<svg xmlns="http://www.w3.org/2000/svg" width="18" height="15" viewBox="0 0 18 15">
  <defs>
    <style>
      .cls-1 {
        fill: #fff;
        fill-rule: evenodd;
      }
    </style>
  </defs>
  <path id="_29_GClassroom" data-name="29_GClassroom" class="cls-1" d="M580.295,137.94a0.882,0.882,0,1,0-.916-0.881A0.9,0.9,0,0,0,580.295,137.94Zm0,0.587c-1.018,0-2.035.489-2.035,1.174v0.685h4.069V139.7C582.329,139.016,581.312,138.527,580.295,138.527Zm-6.51-.587a0.882,0.882,0,1,0-.916-0.881A0.9,0.9,0,0,0,573.785,137.94Zm0,0.587c-1.017,0-2.035.489-2.035,1.174v0.685h4.069V139.7C575.819,139.016,574.7,138.527,573.785,138.527Zm3.255-1.37a1.175,1.175,0,1,0-1.221-1.174A1.153,1.153,0,0,0,577.04,137.157Zm0,0.783c-1.424,0-2.848.685-2.848,1.565v0.783h5.7v-0.783c0-.88-1.424-1.565-2.848-1.565h0Zm1.627,4.7h3.662v0.783h-3.662v-0.783Zm6.2-12.624H569.207a1.153,1.153,0,0,0-1.22,1.174v12.624a1.153,1.153,0,0,0,1.22,1.174H584.77a1.154,1.154,0,0,0,1.221-1.174V131.285A1.155,1.155,0,0,0,584.872,130.013Zm-0.509,13.407H569.716V131.677h14.749V143.42h-0.1Z" transform="translate(-568 -130)"/>
</svg>
