<svg xmlns="http://www.w3.org/2000/svg" width="17" height="9" viewBox="0 0 17 9">
  <defs>
    <style>
      .cls-1 {
        fill: #fff;
        fill-rule: evenodd;
      }
    </style>
  </defs>
  <path id="_28_Hatena" data-name="28_Hatena" class="cls-1" d="M504.305,136.707l1.951,0.709c0.1,0,1.562-.608,1.952-0.709L506.256,136A10.546,10.546,0,0,1,504.305,136.707Zm4.488,0c0.391,0.1,1.952.709,1.952,0.709l1.952-.709c-0.391-.1-1.952-0.709-1.952-0.709Zm-2.244,1.823,1.952,0.709c0.1,0,1.561-.608,1.951-0.709l-1.951-.709Zm4.391,0,1.952,0.709,1.951-.709-1.951-.709Zm-8.782,0,1.952,0.709,1.951-.709-1.951-.709Zm4.391,5.772c0.39,0.1,1.952.709,1.952,0.709l1.951-.709c-0.39-.1-1.951-0.709-1.951-0.709C508.4,143.593,506.939,144.2,506.549,144.3Zm-0.1-2.228,1.952,0.709,1.952-.709-1.952-.708Zm4.489,0,1.952,0.709,1.951-.709-1.951-.708Zm-8.782,0,1.952,0.709,1.951-.709c-0.39-.1-1.951-0.708-1.951-0.708A11.573,11.573,0,0,0,502.158,142.074Zm2.244-1.822,1.952,0.708,1.951-.708c-0.39-.1-1.951-0.709-1.951-0.709Zm4.391,0,1.952,0.708,1.952-.708-1.952-.709Zm4.294,0,1.951,0.708,1.952-.708-1.952-.709S513.477,140.15,513.087,140.252Zm-13.076,0,1.952,0.708,1.951-.708c-0.39-.1-1.951-0.709-1.951-0.709C501.865,139.543,500.3,140.15,500.011,140.252Z" transform="translate(-500 -136)"/>
</svg>
