<svg xmlns="http://www.w3.org/2000/svg" xmlns:xlink="http://www.w3.org/1999/xlink" preserveAspectRatio="xMidYMid" width="8" height="18" viewBox="0 0 8 18">
  <defs>
    <style>
      .cls-1 {
        fill: #fff;
        fill-rule: evenodd;
      }
    </style>
  </defs>
  <path d="M8.000,17.495 C6.900,17.416 6.187,17.251 5.861,17.000 C5.536,16.749 5.373,16.099 5.373,15.051 L5.373,2.949 C5.373,1.949 5.536,1.304 5.861,1.016 C6.187,0.728 6.900,0.558 8.000,0.504 L8.000,-0.000 L-0.000,-0.000 L-0.000,0.505 C1.100,0.558 1.813,0.729 2.139,1.016 C2.465,1.304 2.627,1.949 2.627,2.949 L2.627,15.051 C2.627,16.099 2.465,16.749 2.139,17.000 C1.813,17.251 1.100,17.416 -0.000,17.495 L-0.000,18.000 L8.000,18.000 L8.000,17.495 Z" class="cls-1"/>
</svg>
