<svg xmlns="http://www.w3.org/2000/svg" width="18" height="16" viewBox="0 0 18 16">
  <defs>
    <style>
      .cls-1 {
        fill: #fff;
        fill-rule: evenodd;
      }
    </style>
  </defs>
  <path id="_33_kakao" data-name="33_kakao" class="cls-1" d="M178.1,196.093l-0.617,1.4h1.029Zm1.853-6.1c-4.94,0-8.954,3.1-8.954,6.9,0,2.4,1.646,4.6,4.22,5.8-0.927,3.2-1.03,3.3-.824,3.3,0.206,0.1.515,0,4.014-2.4a8.56,8.56,0,0,0,1.647.1c4.94,0,8.954-3.1,8.954-6.8s-4.117-6.9-9.057-6.9h0Zm-4.426,8.8a0.479,0.479,0,0,1-.514.5,0.543,0.543,0,0,1-.515-0.5v-3h-0.823a0.5,0.5,0,1,1,0-1h2.676a0.5,0.5,0,1,1,0,1h-0.824v3Zm4.014,0.4c-0.514,0-.411-0.4-0.72-0.9h-1.544c-0.206.5-.1,0.9-0.721,0.9-0.514,0-.617-0.3-0.411-0.8l1.235-3.2a0.808,0.808,0,0,1,.72-0.5,0.962,0.962,0,0,1,.721.5C179.537,197.794,180.772,199.194,179.537,199.194Zm2.985,0h-1.75c-0.823,0-.308-1.2-0.411-3.9a0.515,0.515,0,0,1,1.029,0v2.9h1.132a0.48,0.48,0,0,1,.515.5A0.642,0.642,0,0,1,182.522,199.194Zm4.014-.4a0.338,0.338,0,0,1-.206.3c-0.72.5-1.235-1-1.955-1.7l-0.206.2v1.1a0.515,0.515,0,0,1-1.03,0v-3.4a0.515,0.515,0,0,1,1.03,0v1.1c0.926-.7,1.441-1.9,2.058-1.4,0.618,0.6-.617,1.1-1.132,1.8,1.235,1.6,1.544,1.6,1.441,2h0Z" transform="translate(-171 -190)"/>
</svg>
