<svg xmlns="http://www.w3.org/2000/svg" width="18" height="9" viewBox="0 0 18 9">
  <defs>
    <style>
      .cls-1 {
        fill: #fff;
        fill-rule: evenodd;
      }
    </style>
  </defs>
  <path id="_27_kik" data-name="27_kik" class="cls-1" d="M457.012,141.255a1.012,1.012,0,0,1-2.024,0A1.087,1.087,0,0,1,456,140.244,1.013,1.013,0,0,1,457.012,141.255Zm-14.267-.1,1.214-1.112a1.058,1.058,0,0,0,0-1.314,0.865,0.865,0,0,0-1.315,0l-1.822,1.718v-3.537a0.911,0.911,0,0,0-1.821,0v7.175a0.911,0.911,0,0,0,1.821,0v-1.111l0.607-.506,1.518,2.122h0a0.941,0.941,0,1,0,1.518-1.111Zm3.946-2.729a0.907,0.907,0,0,0-.911.91v4.749a0.911,0.911,0,0,0,1.822,0v-4.749A0.907,0.907,0,0,0,446.691,138.425Zm5.869,2.729,1.214-1.112a1.058,1.058,0,0,0,0-1.314,0.863,0.863,0,0,0-1.315,0l-1.822,1.718v-3.537a0.911,0.911,0,0,0-1.821,0v7.175a0.911,0.911,0,0,0,1.821,0v-1.111l0.607-.506,1.619,2.122h0a0.941,0.941,0,1,0,1.518-1.111Z" transform="translate(-439 -136)"/>
</svg>
