<svg xmlns="http://www.w3.org/2000/svg" width="18" height="18" viewBox="0 0 18 18">
  <defs>
    <style>
      .cls-1 {
        fill: #fff;
        fill-rule: evenodd;
      }
    </style>
  </defs>
  <path id="_08_Line" data-name="08_Line" class="cls-1" d="M508,29.988c-5,0-9,3.451-9,7.738,0,3.764,3.2,7.006,7.5,7.633a1.485,1.485,0,0,1,.8.418,1.2,1.2,0,0,1,0,.837l-0.1.732c0,0.209-.2.941,0.8,0.523a28.559,28.559,0,0,0,7.1-5.542,6.915,6.915,0,0,0,1.9-4.705c0-4.182-4-7.633-9-7.633h0ZM504.5,40.13h-1.8a0.484,0.484,0,0,1-.5-0.523v-3.66a0.5,0.5,0,1,1,1,0v3.241h1.3a0.483,0.483,0,0,1,.5.523A0.671,0.671,0,0,1,504.5,40.13Zm1.8-.418a0.5,0.5,0,1,1-1,0V35.948a0.5,0.5,0,1,1,1,0v3.764Zm4.3,0a0.363,0.363,0,0,1-.3.418h-0.1a0.513,0.513,0,0,1-.4-0.209l-1.9-2.614v2.3a0.484,0.484,0,0,1-.5.523,0.44,0.44,0,0,1-.4-0.418V35.948a0.362,0.362,0,0,1,.3-0.418h0.1a0.745,0.745,0,0,1,.4.209l1.8,2.614v-2.4a0.5,0.5,0,1,1,1,0v3.764Zm2.9-2.4a0.523,0.523,0,0,1,0,1.046h-1.3v0.837h1.3a0.523,0.523,0,0,1,0,1.046h-1.8a0.483,0.483,0,0,1-.5-0.523V35.948a0.483,0.483,0,0,1,.5-0.523h1.8a0.523,0.523,0,0,1,0,1.046h-1.3v0.837h1.3Z" transform="translate(-499 -30)"/>
</svg>
