<svg xmlns="http://www.w3.org/2000/svg" xmlns:xlink="http://www.w3.org/1999/xlink" preserveAspectRatio="xMidYMid" width="18" height="17.25" viewBox="0 0 18 17.25">
  <defs>
    <style>
      .cls-1 {
        fill: #fff;
        fill-rule: evenodd;
      }
    </style>
  </defs>
  <path d="M14.147,17.240 L14.147,11.021 C14.147,9.458 13.588,8.392 12.190,8.392 C11.123,8.392 10.488,9.111 10.209,9.805 C10.106,10.053 10.081,10.400 10.081,10.748 L10.081,17.240 L6.219,17.240 L6.219,5.614 L10.081,5.614 L10.081,7.300 C10.081,7.300 11.479,5.341 13.563,5.341 C16.104,5.341 18.010,7.003 18.010,10.574 L18.010,17.240 L14.147,17.240 ZM2.150,4.027 L2.125,4.027 C0.828,4.027 -0.010,3.134 -0.010,2.019 C-0.010,0.878 0.854,0.010 2.175,0.010 C3.497,0.010 4.310,0.878 4.335,2.019 C4.335,3.134 3.497,4.027 2.150,4.027 ZM4.081,17.240 L0.218,17.240 L0.218,5.614 L4.081,5.614 L4.081,17.240 Z" class="cls-1"/>
</svg>
