<svg xmlns="http://www.w3.org/2000/svg" xmlns:xlink="http://www.w3.org/1999/xlink" preserveAspectRatio="xMidYMid" width="18" height="18" viewBox="0 0 18 18">
  <defs>
    <style>
      .cls-1 {
        fill: #fff;
        fill-rule: evenodd;
      }
    </style>
  </defs>
  <path d="M1.803,6.007 L8.787,12.925 L8.791,12.929 L11.380,13.532 C11.380,13.532 11.380,13.532 11.380,13.532 L11.380,13.532 L14.298,14.154 L13.671,11.263 L13.059,8.699 C13.060,8.699 13.061,8.698 13.062,8.698 L13.062,8.698 L13.058,8.695 L6.146,1.848 C4.235,2.661 2.686,4.148 1.803,6.007 ZM12.739,9.112 L13.195,11.094 C12.346,11.514 11.634,12.220 11.209,13.061 L9.209,12.610 C9.929,11.056 11.171,9.825 12.739,9.112 ZM9.494,18.000 C4.802,18.000 0.998,14.232 0.998,9.584 C0.998,8.305 1.287,7.093 1.803,6.007 L0.009,4.230 C1.082,2.511 2.544,1.063 4.280,-0.000 L6.146,1.848 C7.173,1.411 8.305,1.168 9.494,1.168 C14.186,1.168 17.990,4.936 17.990,9.584 C17.990,14.232 14.186,18.000 9.494,18.000 Z" class="cls-1"/>
</svg>
