<svg xmlns="http://www.w3.org/2000/svg" width="18" height="18" viewBox="0 0 18 18">
  <defs>
    <style>
      .cls-1 {
        fill: #fff;
        fill-rule: evenodd;
      }
    </style>
  </defs>
  <path id="_14_mail.ru" data-name="14_mail.ru" class="cls-1" d="M244.669,82.793a4.743,4.743,0,0,1,3.591,1.666h0a0.732,0.732,0,0,1,.7-0.833h0.1a0.784,0.784,0,0,1,.8.833v7.392a0.471,0.471,0,0,0,.8.416c1.1-1.249,2.494-6.247-.7-9.162a7.23,7.23,0,0,0-9.08-.833,7.358,7.358,0,0,0-2.3,8.642,6.9,6.9,0,0,0,8.581,3.748,0.986,0.986,0,1,1,.6,1.874,9.058,9.058,0,0,1-10.676-4.06A9.085,9.085,0,0,1,251.752,81.96c3.093,3.332,2.894,9.683-.1,12.077a2.1,2.1,0,0,1-3.393-1.562v-0.52a5.029,5.029,0,0,1-3.591,1.562,5.369,5.369,0,0,1,0-10.724h0Zm3.392,5.1a3.317,3.317,0,0,0-3.392-3.332h0c-2.1,0-3.193,1.666-3.193,3.644a3.224,3.224,0,0,0,3.193,3.54,3.394,3.394,0,0,0,3.392-3.332V87.894Z" transform="translate(-236 -79)"/>
</svg>
