<svg xmlns="http://www.w3.org/2000/svg" xmlns:xlink="http://www.w3.org/1999/xlink" preserveAspectRatio="xMidYMid" width="18.375" height="16.875" viewBox="0 0 18.375 16.875">
  <defs>
    <style>
      .cls-1 {
        fill: #fff;
        fill-rule: evenodd;
      }
    </style>
  </defs>
  <path d="M15.944,5.576 C15.743,5.692 15.494,5.814 15.253,5.931 C14.270,6.411 13.260,6.905 13.231,7.965 C13.231,9.277 13.920,10.869 14.475,12.149 C14.763,12.812 15.011,13.383 15.131,13.836 C15.309,14.503 15.220,15.078 14.866,15.547 C14.302,16.294 13.093,16.683 11.273,16.704 L11.198,16.705 L11.130,16.674 C10.949,16.590 10.886,16.431 10.888,16.311 C10.893,15.989 11.192,15.863 11.990,15.527 C12.549,15.292 13.711,14.803 13.839,14.456 C13.848,14.433 13.847,14.426 13.838,14.408 C13.705,14.063 13.555,13.701 13.396,13.320 L13.497,13.234 L13.381,13.283 C12.574,11.345 11.472,8.695 12.117,6.860 C12.678,5.703 13.727,5.255 14.741,4.821 C15.421,4.530 16.125,4.229 16.620,3.725 C17.414,3.034 17.274,1.813 17.100,0.953 C16.974,0.496 16.950,0.276 17.130,0.118 L17.280,-0.011 L17.487,0.057 C17.847,0.215 18.304,1.395 18.328,1.806 C18.691,3.495 17.348,4.944 15.944,5.576 ZM13.190,2.959 C12.981,2.881 12.754,2.765 12.492,2.631 C11.668,2.207 10.479,1.596 9.092,1.596 C9.017,1.596 8.940,1.598 8.863,1.602 C7.068,1.680 5.975,2.205 5.425,3.253 C4.649,4.614 5.205,6.598 6.613,7.502 C7.278,7.998 8.136,7.832 8.967,7.671 L9.023,7.661 C9.152,7.635 9.270,7.613 9.385,7.593 L9.539,7.567 L9.758,8.109 L9.628,8.199 C8.990,8.634 8.189,8.864 7.311,8.864 C7.054,8.864 6.788,8.844 6.521,8.804 C5.506,8.661 4.674,7.890 3.978,6.445 C3.952,6.391 3.935,6.334 3.912,6.278 L3.852,6.359 C2.913,7.632 2.377,8.771 1.861,10.088 C1.260,11.449 1.346,13.432 2.683,14.436 C4.010,15.359 5.003,15.467 6.507,15.631 L6.948,15.681 C7.160,15.712 7.406,15.731 7.644,15.751 L7.676,15.753 C8.491,15.818 8.939,15.853 9.060,16.190 C9.081,16.249 9.134,16.456 8.933,16.651 L8.846,16.735 L8.246,16.779 C7.531,16.832 6.965,16.874 6.405,16.874 C5.834,16.874 5.247,16.833 4.378,16.731 C2.510,16.487 0.439,15.104 0.094,12.936 C-0.268,10.933 0.726,9.030 1.632,7.597 C2.138,6.867 2.466,6.614 2.920,6.263 C3.061,6.155 3.206,6.042 3.373,5.903 L3.506,5.793 L3.848,6.119 C3.327,4.754 3.515,3.215 4.368,2.192 C5.132,1.142 6.481,0.567 7.488,0.380 C9.439,-0.076 11.000,0.427 12.739,1.327 C12.867,1.380 13.009,1.443 13.151,1.506 C13.568,1.690 13.956,1.862 14.359,1.958 C14.554,2.014 14.709,1.984 14.852,1.864 C15.075,1.676 15.213,1.301 15.180,0.975 L15.125,0.440 L15.626,0.628 C15.812,0.698 15.944,0.881 16.021,1.175 C16.139,1.629 16.112,2.264 15.829,2.601 C15.174,3.586 13.884,3.178 13.190,2.959 ZM9.617,13.326 C9.002,12.956 7.835,12.919 6.893,12.888 C6.558,12.877 6.270,12.868 6.017,12.848 L5.861,12.836 L5.781,12.258 L5.927,12.203 C6.426,12.016 9.554,11.751 10.443,12.168 C10.624,12.254 10.743,12.372 10.795,12.521 C11.089,13.346 10.680,16.122 10.188,16.645 C10.061,16.781 9.927,16.809 9.838,16.809 C9.785,16.809 9.741,16.799 9.714,16.791 L9.602,16.758 L9.535,16.657 C9.391,16.441 9.418,16.069 9.530,15.060 C9.587,14.544 9.690,13.608 9.617,13.326 Z" class="cls-1"/>
</svg>
