<svg xmlns="http://www.w3.org/2000/svg" width="13" height="17" viewBox="0 0 13 17">
  <defs>
    <style>
      .cls-1 {
        fill: #fff;
        fill-rule: evenodd;
      }
    </style>
  </defs>
  <path id="_37_Mewe" data-name="37_Mewe" class="cls-1" d="M442.006,193.829v10.06a0.883,0.883,0,0,0,.413.789h0.1a1.125,1.125,0,0,0,1.342,0h0a0.883,0.883,0,0,0,.413-0.789v-7.1l3.407,4.635a0.548,0.548,0,0,0,.309.2h0.1a0.82,0.82,0,0,0,.826,0h0l0.309-.3,3.407-4.438v7a0.883,0.883,0,0,0,.413.789l0.1,0.1a1.288,1.288,0,0,0,1.446,0h0a0.947,0.947,0,0,0,.413-0.888v-9.863a1.254,1.254,0,0,0-1.446-1.282h-0.1a2.068,2.068,0,0,0-1.239.789l-3.716,5.425-3.923-5.622a1.376,1.376,0,0,0-.723-0.592,2.025,2.025,0,0,0-.826-0.2A1.289,1.289,0,0,0,442.006,193.829Zm6.5-5.819a1.58,1.58,0,1,1-1.652,1.578A1.616,1.616,0,0,1,448.51,188.01Z" transform="translate(-442 -188)"/>
</svg>
