<svg xmlns="http://www.w3.org/2000/svg" xmlns:xlink="http://www.w3.org/1999/xlink" preserveAspectRatio="xMidYMid" width="18" height="17.91" viewBox="0 0 18 17.91">
  <defs>
    <style>
      .cls-1 {
        fill: #fff;
        fill-rule: evenodd;
      }
    </style>
  </defs>
  <path d="M17.313,11.513 C16.272,12.311 14.765,11.770 14.456,10.495 C14.420,10.348 14.414,10.198 14.412,10.047 C14.406,9.709 14.430,9.369 14.400,9.031 C14.330,8.251 13.737,7.602 12.965,7.453 C12.002,7.268 11.084,7.861 10.854,8.817 C10.825,8.939 10.821,9.062 10.813,9.186 C10.815,9.744 10.819,10.301 10.817,10.859 C10.816,11.187 10.832,11.515 10.806,11.842 C10.741,12.630 10.155,13.287 9.380,13.441 C8.376,13.640 7.437,13.016 7.234,12.015 C7.212,11.905 7.203,11.792 7.203,11.678 C7.203,9.380 7.196,7.081 7.207,4.782 C7.212,3.885 6.557,3.083 5.620,2.977 C4.657,2.868 3.819,3.489 3.636,4.433 C3.615,4.543 3.606,4.657 3.606,4.769 C3.603,5.361 3.605,5.953 3.606,6.544 C3.606,6.574 3.602,6.604 3.600,6.634 C3.602,6.691 3.605,6.747 3.605,6.804 C3.605,9.909 3.605,13.015 3.605,16.121 C3.605,17.071 2.900,17.834 1.947,17.916 C1.022,17.996 0.186,17.350 0.024,16.431 C0.020,16.413 0.023,16.393 0.002,16.383 C0.002,14.182 0.002,11.981 0.002,9.779 C0.002,6.556 0.003,3.334 0.000,0.111 C-0.000,0.026 0.019,0.007 0.103,0.007 C5.873,0.009 11.642,0.009 17.412,0.009 C17.607,0.009 17.802,0.009 17.997,0.009 C17.997,3.389 17.994,6.768 17.999,10.148 C18.000,10.728 17.756,11.174 17.313,11.513 Z" class="cls-1"/>
</svg>
