<svg xmlns="http://www.w3.org/2000/svg" xmlns:xlink="http://www.w3.org/1999/xlink" preserveAspectRatio="xMidYMid" width="18" height="10.97" viewBox="0 0 18 10.97">
  <defs>
    <style>
      .cls-1 {
        fill: #fff;
        fill-rule: evenodd;
      }
    </style>
  </defs>
  <path d="M17.697,10.984 L12.064,10.984 C11.884,10.984 11.761,10.862 11.761,10.677 L11.761,9.519 C11.761,7.514 13.393,6.292 14.890,6.292 C16.677,6.292 18.000,7.806 18.000,9.518 L18.000,10.677 C18.000,10.863 17.878,10.984 17.697,10.984 ZM14.855,5.830 C13.280,5.830 12.003,4.527 12.003,2.919 C12.003,1.312 13.280,0.009 14.855,0.009 C16.430,0.009 17.707,1.312 17.707,2.919 C17.707,4.527 16.430,5.830 14.855,5.830 ZM10.924,10.984 L5.929,10.984 C5.750,10.984 5.628,10.863 5.628,10.680 L5.628,10.680 L5.628,9.710 C5.628,8.027 6.943,6.792 8.410,6.792 C10.120,6.792 11.225,8.266 11.225,9.710 L11.225,10.680 C11.225,10.865 11.103,10.984 10.924,10.984 ZM8.411,6.393 C6.975,6.393 5.811,5.215 5.811,3.762 C5.811,2.308 6.975,1.130 8.411,1.130 C9.847,1.130 11.011,2.308 11.011,3.762 C11.011,5.215 9.847,6.393 8.411,6.393 ZM4.804,10.984 L0.304,10.984 C0.123,10.984 -0.000,10.861 -0.000,10.674 L-0.000,9.808 C-0.000,8.542 1.023,7.145 2.554,7.145 C3.951,7.145 5.108,8.338 5.108,9.808 L5.108,10.674 C5.108,10.862 4.984,10.984 4.804,10.984 ZM2.580,6.805 C1.296,6.805 0.255,5.752 0.255,4.452 C0.255,3.152 1.296,2.099 2.580,2.099 C2.580,2.099 2.580,2.099 2.580,2.099 C3.864,2.099 4.904,3.152 4.905,4.451 C4.905,4.451 4.905,4.452 4.905,4.452 C4.905,5.751 3.864,6.805 2.580,6.805 Z" class="cls-1"/>
</svg>
