<svg xmlns="http://www.w3.org/2000/svg" width="11" height="18" viewBox="0 0 11 18">
  <defs>
    <style>
      .cls-1 {
        fill: #fff;
        fill-rule: evenodd;
      }
    </style>
  </defs>
  <path id="_16_odnoklassniki" data-name="16_odnoklassniki" class="cls-1" d="M381.55,87.667a4.834,4.834,0,0,0,0-9.667A4.834,4.834,0,0,0,381.55,87.667Zm0-7.452a2.619,2.619,0,1,1-2.573,2.618A2.643,2.643,0,0,1,381.55,80.215Zm4.651,9.768a1.84,1.84,0,0,0,.791-1.611,1.31,1.31,0,0,0-.791-1.208,1.221,1.221,0,0,0-1.386.2,5.725,5.725,0,0,1-6.63,0,1.181,1.181,0,0,0-1.385-.2,1.309,1.309,0,0,0-.792,1.208,2.115,2.115,0,0,0,.792,1.611,8.574,8.574,0,0,0,2.177,1.007c0.1,0,.3.1,0.4,0.1L377.2,93.306a1.478,1.478,0,0,0,0,2.115,1.418,1.418,0,0,0,2.078,0h0L381.55,93.1l2.276,2.417a1.418,1.418,0,0,0,2.078,0,1.479,1.479,0,0,0,0-2.115h0l-2.177-2.215c0.1,0,.3-0.1.4-0.1A8.289,8.289,0,0,0,386.2,89.983Z" transform="translate(-376 -78)"/>
</svg>
