<svg xmlns="http://www.w3.org/2000/svg" width="18" height="16" viewBox="0 0 18 16">
  <defs>
    <style>
      .cls-1 {
        fill: #fff;
        fill-rule: evenodd;
      }
    </style>
  </defs>
  <path id="_36_Outlook" data-name="36_Outlook" class="cls-1" d="M390.486,193.235H383.14v-2.749a0.5,0.5,0,0,0-.207-0.393,0.809,0.809,0,0,0-.517-0.1l-9,1.571a0.539,0.539,0,0,0-.414.589v11.78a0.457,0.457,0,0,0,.414.491l9.1,1.571h0.1c0.1,0,.31,0,0.31-0.1a0.727,0.727,0,0,0,.207-0.393v-2.651h7.346a0.476,0.476,0,0,0,.517-0.49v-8.639C391.107,193.431,390.8,193.235,390.486,193.235Zm-12.415,8.541a3.276,3.276,0,1,1,2.793-3.24A3.05,3.05,0,0,1,378.071,201.776Zm5.069-7.461h5.691l-3.518,2.552-2.276-1.374v-1.178h0.1Zm6.829,7.461H383.14v-5.007l1.966,1.178a0.541,0.541,0,0,0,.621,0l4.138-3.043v6.872h0.1Zm-11.9-5.4a2.237,2.237,0,1,1-1.656,2.16A1.959,1.959,0,0,1,378.071,196.376Z" transform="translate(-373 -190)"/>
</svg>
