<svg xmlns="http://www.w3.org/2000/svg" width="17" height="16" viewBox="0 0 17 16">
  <defs>
    <style>
      .cls-1 {
        fill: #fff;
        fill-rule: evenodd;
      }
    </style>
  </defs>
  <path id="_39_papaly" data-name="39_papaly" class="cls-1" d="M585.579,191.276a4.705,4.705,0,0,0-3.8-3.257c-2.628-.305-4.282,2.545-4.282,2.545s-1.557-2.85-4.185-2.545a4.872,4.872,0,0,0-3.893,3.257c-0.389.815-.876,3.563,0.389,5.192S577.5,204,577.5,204s6.423-5.8,7.689-7.532C586.455,194.839,585.968,192.091,585.579,191.276Zm-2.044,4.275a66.329,66.329,0,0,1-6.034,5.9h0a82.2,82.2,0,0,1-6.034-5.9c-0.973-1.425-.1-3.562.292-4.071a2.431,2.431,0,0,1,2.53-1.222c1.46,0.1,3.115,2.545,3.212,2.851,0.2-.2,1.752-2.749,3.212-2.851a2.594,2.594,0,0,1,2.53,1.222C583.632,191.989,584.606,194.126,583.535,195.551Z" transform="translate(-569 -188)"/>
</svg>
