<svg xmlns="http://www.w3.org/2000/svg" width="14.624" height="18" viewBox="0 0 14.624 18">
  <defs>
    <style>
      .cls-1 {
        fill: #fff;
        fill-rule: evenodd;
      }
    </style>
  </defs>
  <path class="cls-1" d="M934.245,677.989c-4.941,0-7.567,3.166-7.567,6.617,0,1.6.895,3.6,2.327,4.23,0.408,0.184.354-.04,0.706-1.384a0.321,0.321,0,0,0-.077-0.314c-2.047-2.367-.4-7.235,4.319-7.235,6.828,0,5.553,9.448,1.188,9.448a1.611,1.611,0,0,1-1.7-1.975,21.459,21.459,0,0,0,.951-3.639c0-2.364-3.522-2.013-3.522,1.119a3.8,3.8,0,0,0,.342,1.622s-1.133,4.577-1.343,5.433a12.154,12.154,0,0,0,.083,3.993,0.119,0.119,0,0,0,.216.055,14.145,14.145,0,0,0,1.866-3.513c0.139-.514.712-2.6,0.712-2.6a3.114,3.114,0,0,0,2.627,1.253c3.452,0,5.946-3.034,5.946-6.8-0.012-3.609-3.1-6.309-7.076-6.309h0Z" transform="translate(-926.688 -678)"/>
</svg>
