<svg xmlns="http://www.w3.org/2000/svg" xmlns:xlink="http://www.w3.org/1999/xlink" preserveAspectRatio="xMidYMid" width="17.97" height="14.97" viewBox="0 0 17.97 14.97">
  <defs>
    <style>
      .cls-1 {
        fill: #fff;
        fill-rule: evenodd;
      }
    </style>
  </defs>
  <path d="M16.639,4.752 C16.866,4.784 17.122,4.797 17.338,4.727 C17.511,4.671 17.646,4.582 17.875,4.579 C17.898,4.605 17.929,4.611 17.950,4.640 C18.052,4.772 17.900,5.064 17.863,5.147 C17.733,5.432 17.570,5.646 17.363,5.851 C17.266,5.947 17.069,6.061 17.064,6.234 C17.121,6.318 17.089,6.468 17.114,6.580 C17.169,6.831 17.227,7.479 17.164,7.767 C17.122,7.958 17.182,8.126 17.139,8.310 C17.102,8.467 17.110,8.651 17.064,8.817 C16.957,9.197 16.900,9.587 16.764,9.941 C16.659,10.216 16.548,10.507 16.415,10.769 C16.324,10.948 16.208,11.048 16.215,11.300 C16.250,11.329 16.270,11.379 16.302,11.411 C16.405,11.514 16.542,11.602 16.614,11.733 C16.682,11.855 16.708,12.134 16.639,12.276 C16.496,12.573 16.209,12.778 15.990,13.005 C15.886,13.114 15.692,13.391 15.566,13.450 C15.566,13.454 15.566,13.458 15.566,13.463 C15.553,13.475 15.553,13.450 15.553,13.450 C15.379,13.387 15.463,13.265 15.166,13.277 C15.124,13.329 15.076,13.335 15.066,13.425 C15.040,13.465 15.062,13.521 15.066,13.574 C15.127,13.612 15.229,13.701 15.254,13.771 C15.250,13.771 15.245,13.771 15.241,13.771 C15.096,13.943 14.685,13.903 14.505,13.796 C14.397,13.732 14.334,13.562 14.180,13.549 C14.084,13.486 13.934,13.600 13.881,13.635 C13.619,13.809 13.345,13.992 13.057,14.142 C12.515,14.424 11.904,14.603 11.259,14.785 C11.010,14.855 10.738,14.849 10.485,14.908 C10.440,14.908 10.394,14.908 10.348,14.908 C10.125,14.958 9.841,14.945 9.574,14.945 C9.458,14.945 9.341,14.945 9.225,14.945 C9.171,14.933 9.069,14.949 9.000,14.933 C8.710,14.867 8.397,14.889 8.114,14.809 C7.399,14.608 6.733,14.435 6.141,14.117 C5.860,13.966 5.590,13.788 5.318,13.623 C5.102,13.492 5.024,13.279 4.681,13.302 C4.631,13.366 4.548,13.402 4.481,13.450 C4.395,13.513 4.315,13.590 4.194,13.623 C3.764,13.742 3.473,13.376 3.333,13.154 C3.300,13.125 3.266,13.096 3.233,13.067 C3.155,12.961 3.079,12.870 3.008,12.758 C2.975,12.729 2.942,12.701 2.908,12.672 C2.837,12.575 2.679,12.423 2.646,12.313 C2.724,12.291 2.904,12.151 2.908,12.054 C2.932,12.017 2.912,11.969 2.908,11.918 C2.853,11.876 2.843,11.825 2.746,11.819 C2.639,11.757 2.467,11.963 2.384,11.992 C2.384,11.984 2.384,11.976 2.384,11.968 C2.319,11.896 2.292,11.651 2.334,11.523 C2.377,11.392 2.516,11.193 2.621,11.127 C2.742,11.053 2.851,10.995 2.859,10.806 C2.827,10.763 2.838,10.709 2.809,10.658 C2.742,10.540 2.660,10.392 2.609,10.262 C2.590,10.215 2.605,10.185 2.584,10.139 C2.268,9.443 2.084,8.542 2.072,7.569 C2.080,7.569 2.089,7.569 2.097,7.569 C2.167,8.298 2.527,9.080 3.033,9.373 C3.120,9.423 3.238,9.465 3.333,9.496 C3.534,9.563 3.835,9.533 4.007,9.472 C4.465,9.307 4.769,9.097 5.030,8.743 C5.077,8.680 5.163,8.624 5.205,8.557 C5.515,8.063 5.778,7.540 5.979,6.926 C6.068,6.656 6.087,6.367 6.154,6.086 C6.162,5.975 6.171,5.864 6.179,5.752 C6.254,5.402 6.214,4.611 6.129,4.307 C6.043,4.000 5.961,3.705 5.829,3.454 C5.624,3.064 5.399,2.783 4.956,2.626 C4.822,2.579 4.549,2.520 4.356,2.577 C4.180,2.630 4.008,2.692 3.857,2.775 C3.789,2.812 3.736,2.883 3.657,2.911 C3.657,2.907 3.657,2.902 3.657,2.898 C3.662,2.898 3.666,2.898 3.670,2.898 C3.743,2.777 3.847,2.679 3.932,2.565 C3.990,2.511 4.048,2.458 4.107,2.404 C4.274,2.185 4.493,1.959 4.731,1.811 C4.816,1.758 4.882,1.642 4.968,1.589 C5.241,1.419 5.487,1.205 5.767,1.045 C6.158,0.821 6.588,0.617 7.028,0.452 C7.326,0.340 7.643,0.278 7.951,0.180 C8.173,0.110 8.429,0.111 8.650,0.056 C8.700,0.056 8.750,0.056 8.800,0.056 C9.222,-0.037 10.052,-0.039 10.473,0.056 C10.539,0.061 10.606,0.065 10.673,0.069 C10.880,0.118 11.098,0.121 11.309,0.180 C12.113,0.406 12.835,0.667 13.481,1.045 C13.767,1.212 14.039,1.421 14.305,1.613 C14.380,1.667 14.443,1.757 14.517,1.811 C14.823,2.033 15.117,2.323 15.341,2.626 C15.383,2.664 15.424,2.701 15.466,2.738 C15.547,2.865 15.634,2.967 15.716,3.096 C15.741,3.117 15.766,3.137 15.791,3.158 C15.993,3.479 16.182,3.787 16.365,4.134 C16.448,4.293 16.619,4.554 16.639,4.752 ZM1.735,5.839 C1.735,5.851 1.735,5.864 1.735,5.876 C1.655,5.934 1.627,6.053 1.548,6.111 C1.410,6.210 1.253,6.287 1.061,6.333 C0.887,6.375 0.709,6.302 0.612,6.259 C0.495,6.208 0.418,6.179 0.324,6.111 C0.113,5.957 -0.084,5.429 0.087,5.085 C0.196,4.867 0.375,4.668 0.612,4.579 C0.694,4.547 0.814,4.562 0.886,4.517 C0.896,4.504 0.894,4.505 0.899,4.480 C0.826,4.383 0.782,4.078 0.836,3.911 C0.942,3.588 1.133,3.375 1.460,3.269 C1.546,3.241 1.701,3.187 1.835,3.220 C2.281,3.329 2.477,3.512 2.609,3.936 C2.637,4.025 2.653,4.222 2.621,4.332 C2.601,4.403 2.572,4.500 2.534,4.566 C2.496,4.631 2.422,4.659 2.409,4.752 C2.489,4.795 2.560,4.853 2.671,4.863 C2.938,4.215 3.382,3.463 4.094,3.269 C4.507,3.157 4.864,3.395 5.030,3.615 C5.082,3.683 5.162,3.750 5.205,3.825 C5.485,4.307 5.654,5.257 5.480,5.987 C5.448,6.121 5.469,6.231 5.430,6.358 C5.155,7.251 4.750,8.246 3.907,8.557 C3.533,8.696 3.227,8.547 3.008,8.384 C2.515,8.016 2.360,7.289 2.359,6.432 C2.217,6.352 2.120,6.245 2.010,6.135 C1.976,6.107 1.943,6.078 1.910,6.049 C1.864,5.976 1.839,5.853 1.735,5.839 ZM2.933,4.888 C3.158,4.882 3.365,4.759 3.582,4.851 C3.826,4.953 4.084,5.610 3.969,6.024 C3.936,6.146 3.875,6.256 3.807,6.346 C3.704,6.482 3.312,6.717 3.021,6.654 C2.878,6.624 2.732,6.580 2.596,6.568 C2.596,6.572 2.596,6.576 2.596,6.580 C2.592,6.580 2.588,6.580 2.584,6.580 C2.674,7.068 2.935,7.863 3.620,7.606 C3.714,7.571 3.816,7.503 3.895,7.445 C4.223,7.203 4.449,6.697 4.581,6.259 C4.610,6.094 4.639,5.930 4.669,5.765 C4.695,5.642 4.680,5.325 4.656,5.221 C4.644,5.168 4.656,5.111 4.656,5.085 C4.656,5.039 4.607,4.931 4.594,4.888 C4.500,4.582 4.393,4.316 4.132,4.183 C3.688,3.958 3.274,4.376 3.108,4.603 C3.048,4.686 2.952,4.767 2.933,4.888 Z" class="cls-1"/>
</svg>
