<svg xmlns="http://www.w3.org/2000/svg" xmlns:xlink="http://www.w3.org/1999/xlink" preserveAspectRatio="xMidYMid" width="18" height="17" viewBox="0 0 18 17">
  <defs>
    <style>
      .cls-1 {
        fill: #fff;
        fill-rule: evenodd;
      }
    </style>
  </defs>
  <path d="M15.638,-0.006 L2.363,-0.006 C1.058,-0.006 0.000,1.079 0.000,2.416 L0.000,9.129 C0.000,9.254 0.009,9.376 0.027,9.496 C0.009,9.676 -0.000,9.857 0.000,10.038 C0.000,13.886 4.029,17.006 9.000,17.006 C13.971,17.006 18.000,13.886 18.000,10.038 C18.000,9.856 17.990,9.675 17.973,9.496 C17.990,9.377 18.000,9.254 18.000,9.129 L18.000,2.417 C18.000,1.078 16.941,-0.006 15.638,-0.006 L15.638,-0.006 ZM14.519,6.742 L9.871,11.473 C9.644,11.704 9.335,11.833 9.015,11.829 C8.683,11.841 8.362,11.712 8.129,11.473 L3.481,6.742 C3.014,6.267 3.015,5.496 3.481,5.022 C3.947,4.547 4.703,4.546 5.170,5.021 C5.170,5.021 5.171,5.021 5.171,5.022 L9.000,8.920 L12.829,5.022 C13.294,4.547 14.053,4.548 14.519,5.022 C14.986,5.497 14.986,6.266 14.519,6.742 Z" class="cls-1"/>
</svg>
