<svg xmlns="http://www.w3.org/2000/svg" width="17" height="17" viewBox="0 0 17 17">
  <defs>
    <style>
      .cls-1 {
        fill: #fff;
        fill-rule: evenodd;
      }
    </style>
  </defs>
  <path id="_42_Protopage" data-name="42_Protopage" class="cls-1" d="M118.09,256.567a10.831,10.831,0,0,0-1.8,0,0.832,0.832,0,0,0-.9,1.1,10.816,10.816,0,0,0,.8,1.9,11.164,11.164,0,0,1,1.1,2.5c0,0.2.1,0.4,0.1,0.6a1.13,1.13,0,0,1-.7,1.2,1.386,1.386,0,0,1-1.6-.3,4.9,4.9,0,0,1-1.1-2c-0.2-.7-0.4-1.3-0.6-2-0.1-.2-0.2-0.5-0.3-0.7a0.9,0.9,0,0,0-1.3-.4,2.658,2.658,0,0,0-1.1,1,12.569,12.569,0,0,1-2,2,3.128,3.128,0,0,1-1,.5,1.346,1.346,0,0,1-1.4-.6,1.375,1.375,0,0,1-.2-1.6,1.955,1.955,0,0,1,.9-0.9,8.31,8.31,0,0,1,1.6-.9,2.819,2.819,0,0,0,1.1-.8,1.04,1.04,0,0,0,0-1.6,6.087,6.087,0,0,0-1-.7,26.059,26.059,0,0,1-2.4-1.3,3.934,3.934,0,0,1-1-.8,1.086,1.086,0,0,1,0-1.5,1.338,1.338,0,0,1,1.9-.4,9.571,9.571,0,0,1,2,1.5,2.922,2.922,0,0,0,1.2.7,1.4,1.4,0,0,0,2.1-1.3,12.388,12.388,0,0,1,.3-2.7,5.016,5.016,0,0,1,.5-1.3,1.525,1.525,0,0,1,2.2-.5,1.318,1.318,0,0,1,.5,1.5,10.072,10.072,0,0,1-.7,2.3,6.42,6.42,0,0,0-.4,1.9v0.2a0.9,0.9,0,0,0,1.2,1c1-.1,2.1-0.3,3.1-0.5a3.66,3.66,0,0,1,1.8,0,1.2,1.2,0,0,1,1,1.2,1.278,1.278,0,0,1-.7,1.3,5.728,5.728,0,0,1-1.4.4h-1.8Z" transform="translate(-105 -247)"/>
</svg>
