<svg xmlns="http://www.w3.org/2000/svg" width="18" height="17" viewBox="0 0 18 17">
  <defs>
    <style>
      .cls-1 {
        fill: #fff;
        fill-rule: evenodd;
      }
    </style>
  </defs>
  <path id="_07_qzone" data-name="07_qzone" class="cls-1" d="M457,33.487a0.84,0.84,0,0,0-.3-0.295l-5.8-.491-2.5-5.5A0.522,0.522,0,0,0,448,27a0.251,0.251,0,0,0-.3.2L445.1,32.5l-5.8.688a0.425,0.425,0,0,0-.3.295,0.583,0.583,0,0,0,.1.393l4.2,3.832-1,5.8a0.583,0.583,0,0,0,.1.393c0.1,0,.1.1,0.2,0.1a0.2,0.2,0,0,0,.2-0.1l5.2-2.948,5.1,2.948a0.61,0.61,0,0,0,.4-0.1,0.508,0.508,0,0,0,.2-0.393l-0.8-4.324A4.9,4.9,0,0,0,454,38.4a5.711,5.711,0,0,1-1.2.393h0a36.653,36.653,0,0,1-8.8.1l5.8-4.127a55.483,55.483,0,0,0-6.8-.491h0c0.2,0,6.1-.983,9.6,0L446.8,38.3s4.5,0.393,6,.295l-0.1-.786,4.2-3.832A1.3,1.3,0,0,0,457,33.487Z" transform="translate(-439 -27)"/>
</svg>
