<svg xmlns="http://www.w3.org/2000/svg" xmlns:xlink="http://www.w3.org/1999/xlink" preserveAspectRatio="xMidYMid" width="18" height="14.906" viewBox="0 0 18 14.906">
  <defs>
    <style>
      .cls-1 {
        fill: #fff;
        fill-rule: evenodd;
      }
    </style>
  </defs>
  <path d="M18.000,6.881 C18.000,5.616 16.995,4.588 15.760,4.588 C15.266,4.588 14.796,4.753 14.413,5.052 C13.163,4.164 11.526,3.634 9.784,3.500 L10.724,1.243 L13.458,1.897 C13.545,2.763 14.253,3.441 15.121,3.441 C16.048,3.441 16.801,2.670 16.801,1.722 C16.801,0.773 16.048,0.002 15.121,0.002 C14.534,0.002 14.018,0.313 13.718,0.781 L10.522,0.017 C10.251,-0.046 9.986,0.095 9.878,0.350 L8.579,3.469 C6.698,3.535 4.906,4.078 3.553,5.022 C3.184,4.743 2.727,4.588 2.240,4.588 C1.005,4.588 -0.000,5.616 -0.000,6.881 C-0.000,7.719 0.447,8.477 1.132,8.866 C1.123,8.966 1.120,9.070 1.120,9.174 C1.120,12.335 4.637,14.906 8.961,14.906 C13.283,14.906 16.801,12.335 16.801,9.174 C16.801,9.084 16.798,8.996 16.792,8.908 C17.523,8.527 18.000,7.751 18.000,6.881 ZM15.121,1.148 C15.429,1.148 15.681,1.405 15.681,1.722 C15.681,2.038 15.429,2.295 15.121,2.295 C14.813,2.295 14.561,2.038 14.561,1.722 C14.561,1.405 14.813,1.148 15.121,1.148 ZM5.040,8.601 C5.040,7.969 5.543,7.454 6.160,7.454 C6.778,7.454 7.281,7.969 7.281,8.601 C7.281,9.234 6.778,9.747 6.160,9.747 C5.543,9.747 5.040,9.234 5.040,8.601 ZM11.547,12.404 C10.774,12.976 9.867,13.262 8.961,13.262 C8.054,13.262 7.147,12.976 6.374,12.404 C6.124,12.218 6.068,11.859 6.249,11.603 C6.430,11.348 6.781,11.290 7.031,11.475 C8.186,12.329 9.736,12.331 10.891,11.475 C11.140,11.290 11.490,11.345 11.673,11.603 C11.854,11.860 11.797,12.218 11.547,12.404 ZM11.761,9.747 C11.143,9.747 10.641,9.234 10.641,8.601 C10.641,7.969 11.143,7.454 11.761,7.454 C12.379,7.454 12.881,7.969 12.881,8.601 C12.881,9.234 12.379,9.747 11.761,9.747 Z" class="cls-1"/>
</svg>
