<svg xmlns="http://www.w3.org/2000/svg" width="11" height="18" viewBox="0 0 11 18">
  <defs>
    <style>
      .cls-1 {
        fill: #fff;
        fill-rule: evenodd;
      }
    </style>
  </defs>
  <path id="_41_Rediff" data-name="41_Rediff" class="cls-1" d="M48.035,249.671c-0.1-.1-0.209-2.785-0.314-3.2H43.015c0.1,1.444.1,2.784,0.1,4.228v8.87c0,1.444-.1,2.991,0,4.435h5.544c0-2.991-.1-6.292,0-9.179a3.569,3.569,0,0,1,1.464-3.094c1.255-.826,2.3-0.619,3.87-0.516v-5.157a5.3,5.3,0,0,0-5.753,3.3,0.244,0.244,0,0,1-.209.31h0Z" transform="translate(-43 -246)"/>
</svg>
