<svg xmlns="http://www.w3.org/2000/svg" width="16" height="17" viewBox="0 0 16 17">
  <defs>
    <style>
      .cls-1 {
        fill: #fff;
        fill-rule: evenodd;
      }
    </style>
  </defs>
  <path id="_06_refind" data-name="06_refind" class="cls-1" d="M389.005,33.056a6.25,6.25,0,0,0-6.366-6.061,6.159,6.159,0,0,0-6.263,6.061h-3.388V43.614h3.388V35.891L385.822,44l2.259-2.444-3.389-2.835A6.06,6.06,0,0,0,389.005,33.056Zm-6.366-2.835a2.936,2.936,0,1,1,0,5.866,3.085,3.085,0,0,1-3.08-2.933A2.955,2.955,0,0,1,382.639,30.221Z" transform="translate(-373 -27)"/>
</svg>
