<svg xmlns="http://www.w3.org/2000/svg" width="18" height="18" viewBox="0 0 18 18">
  <defs>
    <style>
      .cls-1 {
        fill: #fff;
        fill-rule: evenodd;
      }
    </style>
  </defs>
  <path id="_05_renren" data-name="05_renren" class="cls-1" d="M312.5,31.833V26.1a8.568,8.568,0,0,0-3.8,1.608,8.037,8.037,0,0,0-2.7,3.116,8.645,8.645,0,0,0-1,4.121,8.882,8.882,0,0,0,2.1,5.829A8.762,8.762,0,0,0,311,37.26,10.577,10.577,0,0,0,312.5,31.833Zm9.5-1.005a9.284,9.284,0,0,0-2.7-3.216A8.567,8.567,0,0,0,315.5,26v5.729a10.066,10.066,0,0,0,1.5,5.427,9.642,9.642,0,0,0,3.9,3.618,8.882,8.882,0,0,0,2.1-5.829A8.645,8.645,0,0,0,322,30.828Zm-6.5,9.548a8.418,8.418,0,0,1-1.6-3.116,8.988,8.988,0,0,1-1.5,3.116,11.186,11.186,0,0,1-2.8,2.512,8.435,8.435,0,0,0,4.4,1.106,9.123,9.123,0,0,0,4.3-1.106A11.186,11.186,0,0,1,315.5,40.375Z" transform="translate(-305 -26)"/>
</svg>
