<svg xmlns="http://www.w3.org/2000/svg" xmlns:xlink="http://www.w3.org/1999/xlink" preserveAspectRatio="xMidYMid" width="17.906" height="14.94" viewBox="0 0 17.906 14.94">
  <defs>
    <style>
      .cls-1 {
        fill: #fff;
        fill-rule: evenodd;
      }
    </style>
  </defs>
  <path d="M3.204,-0.000 C4.911,-0.029 6.219,0.112 7.326,0.670 C7.873,0.945 8.386,1.555 9.043,1.674 C9.043,1.629 9.043,1.585 9.043,1.540 C9.222,1.249 9.095,0.583 9.387,0.402 C9.459,0.965 9.758,1.537 9.936,2.009 C10.199,2.702 10.288,3.363 10.555,4.018 C10.486,4.018 10.417,4.018 10.349,4.018 C9.844,3.322 8.278,2.417 7.051,2.411 C6.939,2.515 6.806,2.557 6.707,2.679 C6.578,2.825 6.489,3.274 6.639,3.482 C6.866,4.149 8.606,4.950 9.799,4.687 C12.389,4.117 15.290,4.145 17.906,3.616 C17.906,3.661 17.906,3.705 17.906,3.750 C17.127,3.866 16.321,4.588 15.707,4.955 C15.363,5.162 14.885,5.146 14.814,5.625 C16.859,6.259 18.497,9.851 17.013,12.187 C15.562,14.472 10.345,15.982 7.188,14.062 C6.485,13.635 5.899,12.954 5.677,12.053 C5.578,11.654 5.758,11.326 5.677,11.049 C4.630,10.997 3.621,10.590 2.860,10.179 C2.498,9.983 2.228,9.609 1.761,9.509 C1.641,9.852 1.687,10.463 1.692,10.915 C1.669,10.915 1.646,10.915 1.623,10.915 C1.623,10.893 1.623,10.870 1.623,10.848 C1.211,9.665 0.799,8.482 0.387,7.299 C0.410,7.299 0.433,7.299 0.456,7.299 C1.104,7.966 2.306,8.445 3.341,8.705 C4.305,8.947 5.325,8.453 5.402,7.768 C5.548,7.570 5.456,7.115 5.333,6.964 C5.000,6.106 2.483,5.743 1.623,5.223 C0.660,4.640 -0.601,3.341 0.318,1.808 C0.492,1.518 0.604,1.197 0.868,1.004 C1.239,0.733 1.723,0.430 2.173,0.268 C2.512,0.146 2.940,0.189 3.204,-0.000 ZM10.761,5.223 C10.761,5.290 10.761,5.357 10.761,5.424 C12.022,6.117 12.966,7.587 11.791,9.174 C11.436,9.654 10.542,9.846 10.486,10.580 C10.984,10.909 11.137,11.125 12.066,11.116 C12.622,10.717 13.157,10.644 13.440,9.978 C14.014,8.630 13.355,5.905 12.341,5.558 C12.008,5.341 11.212,5.255 10.761,5.223 Z" class="cls-1"/>
</svg>
