<svg xmlns="http://www.w3.org/2000/svg" width="18" height="16" viewBox="0 0 18 16">
  <defs>
    <style>
      .cls-1 {
        fill: #fff;
        fill-rule: evenodd;
      }
    </style>
  </defs>
  <path id="_03_skype" data-name="03_skype" class="cls-1" d="M186.3,37.415A2.339,2.339,0,0,1,185.9,36h0a7.833,7.833,0,0,0-10.6-7.48,2.27,2.27,0,0,1-1.4.1,2.849,2.849,0,0,0-1.3-.1,3.814,3.814,0,0,0-3.6,3.639,3.863,3.863,0,0,0,.7,2.426A2.339,2.339,0,0,1,170.1,36h0a7.833,7.833,0,0,0,10.6,7.48,2.272,2.272,0,0,1,1.4-.1,2.849,2.849,0,0,0,1.3.1A3.893,3.893,0,0,0,187,39.84,4.061,4.061,0,0,0,186.3,37.415Zm-8-2.83c1.6,0.4,4,.91,4,3.639a2.864,2.864,0,0,1-1.8,2.83,5.85,5.85,0,0,1-2.6.4,5.354,5.354,0,0,1-4.1-2.022,1.271,1.271,0,0,1,.2-1.718,1.239,1.239,0,0,1,1.7.2,3.23,3.23,0,0,0,2.3,1.112c1.6,0.1,2-.4,2-0.809,0.1-.505-0.4-0.91-2.2-1.314-1.6-.4-3.8-0.91-3.8-3.336,0-.809.3-3.235,4.3-3.235a5.028,5.028,0,0,1,4,2.123,1.14,1.14,0,0,1-.3,1.516,1.108,1.108,0,0,1-1.6-.2,3.611,3.611,0,0,0-2.1-1.112c-1-.1-2,0.3-2,0.809S176.6,34.18,178.3,34.584Z" transform="translate(-169 -28)"/>
</svg>
