<svg xmlns="http://www.w3.org/2000/svg" xmlns:xlink="http://www.w3.org/1999/xlink" preserveAspectRatio="xMidYMid" width="18" height="14" viewBox="0 0 18 14">
  <defs>
    <style>
      .cls-1 {
        fill: #fff;
        fill-rule: evenodd;
      }
    </style>
  </defs>
  <path d="M13.976,14.003 C11.754,14.003 9.952,12.184 9.952,9.941 L9.952,7.322 L11.334,7.910 L13.023,7.322 L13.023,9.941 C13.023,10.472 13.450,10.902 13.976,10.902 C14.503,10.902 14.929,10.472 14.929,9.941 L14.929,7.375 L18.000,7.375 L18.000,9.941 C18.000,12.184 16.198,14.003 13.976,14.003 ZM9.953,5.237 L9.953,4.062 C9.953,3.530 9.526,3.100 9.000,3.100 C8.473,3.100 8.047,3.530 8.047,4.062 L8.047,9.941 C8.047,12.184 6.245,14.002 4.023,14.002 C1.801,14.002 -0.001,12.184 -0.001,9.941 L-0.001,7.268 L3.070,7.268 L3.070,9.834 C3.070,10.365 3.497,10.796 4.023,10.796 C4.550,10.796 4.976,10.365 4.976,9.834 L4.976,4.062 C4.976,1.818 6.777,-0.000 9.000,-0.000 C11.222,-0.000 13.024,1.818 13.024,4.062 L13.024,5.237 L11.334,5.825 L9.953,5.237 Z" class="cls-1"/>
</svg>
