<svg xmlns="http://www.w3.org/2000/svg" width="14" height="17" viewBox="0 0 14 17">
  <defs>
    <style>
      .cls-1 {
        fill: #fff;
        fill-rule: evenodd;
      }
    </style>
  </defs>
  <path id="_43_Svejo" data-name="43_Svejo" class="cls-1" d="M178.58,250.519l-2.2,1.845a1.361,1.361,0,0,0-.209.388,6.759,6.759,0,0,0,0,1.457,29.575,29.575,0,0,0,4.181,5.631s0.523,0.486-.209.583-3.972-2.525-5.645-4.564a0.754,0.754,0,0,0-1.15-.1,3.175,3.175,0,0,0,.209,3.3,0.95,0.95,0,0,1,0,.582,1.363,1.363,0,0,0,.418,1.165l1.568,1.457a3.778,3.778,0,0,0,1.046,0,1.032,1.032,0,0,1,.731.1,4.642,4.642,0,0,0,3.868.388,8.961,8.961,0,0,0,1.464-.874,10.8,10.8,0,0,0,1.149-1.262c0.1-.1.1-0.291,0.21-0.388a4.76,4.76,0,0,0-.1-1.263c-0.209-.388-3.763-4.854-3.972-5.534-0.418-.777-0.209-0.68-0.1-0.68,0.1,0.1,2.614,1.36,2.823,1.554a16.287,16.287,0,0,1,1.359,1.262c0.313,0.291,1.568,1.748,2.4,1.554s0.522-1.166.522-1.263-0.522-1.844-.627-2.427,0.1-.971-0.209-1.262c-0.313-.389-1.777-1.554-2.4-1.262s-0.836,0-.732-0.389a5.3,5.3,0,0,0-.1-2.524c-0.314-.777-1.359-2.331-1.882-1.942a3.4,3.4,0,0,0-1.045,1.553l-0.1.1a7.6,7.6,0,0,0-2.4-.388,0.214,0.214,0,0,1-.209-0.1,0.668,0.668,0,0,0-.418-0.1C176.594,247.315,176.385,248.189,178.58,250.519Z" transform="translate(-173 -246)"/>
</svg>
