<svg xmlns="http://www.w3.org/2000/svg" xmlns:xlink="http://www.w3.org/1999/xlink" preserveAspectRatio="xMidYMid" width="18" height="18" viewBox="0 0 18 18">
  <defs>
    <style>
      .cls-1 {
        fill: #fff;
        fill-rule: evenodd;
      }
    </style>
  </defs>
  <path d="M9.000,18.000 C4.029,18.000 -0.000,13.970 -0.000,9.000 C-0.000,4.030 4.029,-0.000 9.000,-0.000 C13.971,-0.000 18.000,4.030 18.000,9.000 C18.000,13.970 13.971,18.000 9.000,18.000 ZM9.000,1.219 C4.703,1.219 1.219,4.703 1.219,9.000 C1.219,13.297 4.702,16.781 9.000,16.781 C13.297,16.781 16.781,13.297 16.781,9.000 C16.781,4.703 13.297,1.219 9.000,1.219 ZM12.720,12.992 L11.269,12.992 C11.117,12.992 10.993,12.869 10.993,12.717 L10.993,11.277 C10.993,11.126 11.117,11.003 11.269,11.003 L12.720,11.003 C12.873,11.003 12.997,11.126 12.997,11.277 L12.997,12.717 C12.997,12.869 12.873,12.992 12.720,12.992 ZM12.720,10.007 L11.269,10.007 C11.117,10.007 10.993,9.882 10.993,9.728 L10.993,8.269 C10.993,8.116 11.117,7.991 11.269,7.991 L12.720,7.991 C12.873,7.991 12.997,8.116 12.997,8.269 L12.997,9.728 C12.997,9.882 12.873,10.007 12.720,10.007 ZM12.720,6.996 L11.269,6.996 C11.117,6.996 10.993,6.873 10.993,6.722 L10.993,5.282 C10.993,5.130 11.117,5.008 11.269,5.008 L12.720,5.008 C12.873,5.008 12.997,5.130 12.997,5.282 L12.997,6.722 C12.997,6.873 12.873,6.996 12.720,6.996 ZM9.715,12.992 L8.264,12.992 C8.112,12.992 7.988,12.869 7.988,12.717 L7.988,11.277 C7.988,11.126 8.112,11.003 8.264,11.003 L9.715,11.003 C9.868,11.003 9.992,11.126 9.992,11.277 L9.992,12.717 C9.992,12.869 9.868,12.992 9.715,12.992 ZM9.715,10.007 L8.264,10.007 C8.112,10.007 7.988,9.882 7.988,9.728 L7.988,8.269 C7.988,8.116 8.112,7.991 8.264,7.991 L9.715,7.991 C9.868,7.991 9.992,8.116 9.992,8.269 L9.992,9.728 C9.992,9.882 9.868,10.007 9.715,10.007 ZM9.715,6.996 L8.264,6.996 C8.112,6.996 7.988,6.873 7.988,6.722 L7.988,5.282 C7.988,5.130 8.112,5.008 8.264,5.008 L9.715,5.008 C9.868,5.008 9.992,5.130 9.992,5.282 L9.992,6.722 C9.992,6.873 9.868,6.996 9.715,6.996 ZM6.716,12.992 L5.265,12.992 C5.113,12.992 4.989,12.869 4.989,12.717 L4.989,11.277 C4.989,11.126 5.113,11.003 5.265,11.003 L6.716,11.003 C6.869,11.003 6.993,11.126 6.993,11.277 L6.993,12.717 C6.993,12.869 6.869,12.992 6.716,12.992 ZM6.716,10.007 L5.265,10.007 C5.113,10.007 4.989,9.882 4.989,9.728 L4.989,8.269 C4.989,8.116 5.113,7.991 5.265,7.991 L6.716,7.991 C6.869,7.991 6.993,8.116 6.993,8.269 L6.993,9.728 C6.993,9.882 6.869,10.007 6.716,10.007 ZM6.716,6.996 L5.265,6.996 C5.113,6.996 4.989,6.873 4.989,6.722 L4.989,5.282 C4.989,5.130 5.113,5.008 5.265,5.008 L6.716,5.008 C6.869,5.008 6.993,5.130 6.993,5.282 L6.993,6.722 C6.993,6.873 6.869,6.996 6.716,6.996 Z" class="cls-1"/>
</svg>
