<svg xmlns="http://www.w3.org/2000/svg" width="18" height="18" viewBox="0 0 18 18">
  <defs>
    <style>
      .cls-1 {
        fill: #fff;
        fill-rule: evenodd;
      }
    </style>
  </defs>
  <path id="_46_trello" data-name="46_trello" class="cls-1" d="M388.745,246.011H375.252A2.269,2.269,0,0,0,373,248.26v13.493A2.269,2.269,0,0,0,375.252,264h13.493a2.268,2.268,0,0,0,2.248-2.249V248.26A2.268,2.268,0,0,0,388.745,246.011Zm-7.871,13.6a1.135,1.135,0,0,1-1.125,1.125h-3.373a1.134,1.134,0,0,1-1.124-1.125V249.385a1.3,1.3,0,0,1,1.124-1.023h3.373a1.135,1.135,0,0,1,1.125,1.125v10.119Zm7.768-4.5a1.134,1.134,0,0,1-1.124,1.124h-3.373a1.134,1.134,0,0,1-1.125-1.124v-5.724a1.135,1.135,0,0,1,1.125-1.125h3.373a1.134,1.134,0,0,1,1.124,1.125v5.724Z" transform="translate(-373 -246)"/>
</svg>
