<svg xmlns="http://www.w3.org/2000/svg" width="18" height="18" viewBox="0 0 18 18">
  <defs>
    <style>
      .cls-1 {
        fill: #fff;
        fill-rule: evenodd;
      }
    </style>
  </defs>
  <path id="_44_tuenti" data-name="44_tuenti" class="cls-1" d="M255.014,252.955a8.909,8.909,0,0,0-.206-1.638,6.921,6.921,0,0,0-6.689-5.325H243.9a6.322,6.322,0,0,0-1.338.1,7.012,7.012,0,0,0-5.558,6.86v3.994a7.706,7.706,0,0,0,.1,1.536,6.943,6.943,0,0,0,6.69,5.529h7.719a10.084,10.084,0,0,0,1.75-.1,1.492,1.492,0,0,0,1.543-1.434,4.951,4.951,0,0,0,.1-1.228Zm-9.777,4.2c-0.412.819-.824,1.74-1.235,2.662a1.052,1.052,0,0,1-.824.512,0.621,0.621,0,0,1-.411-0.1,0.946,0.946,0,0,1-.412-1.229c0.412-.922.823-1.741,1.235-2.662a0.954,0.954,0,0,1,1.235-.41A0.982,0.982,0,0,1,245.237,257.154ZM244,253.365a2.173,2.173,0,0,1-1.338-.512,2.4,2.4,0,0,1-.515-1.331A1.84,1.84,0,0,1,244,249.679h0a1.84,1.84,0,0,1,1.852,1.843A1.908,1.908,0,0,1,244,253.365Zm5.866,6.349a1.029,1.029,0,0,1-.412.512,1.042,1.042,0,0,1-.72.409,0.786,0.786,0,0,1-.515-0.2,0.847,0.847,0,0,1-.205-1.228,1.422,1.422,0,0,0,.308-0.41,7,7,0,0,0,1.03-3.789,10.612,10.612,0,0,0-.206-1.536,5.53,5.53,0,0,0-1.132-2.662,0.848,0.848,0,0,1,.205-1.229,0.858,0.858,0,0,1,1.235.205,8.63,8.63,0,0,1,1.441,3.482A5.335,5.335,0,0,1,251.1,255,9.471,9.471,0,0,1,249.868,259.714Z" transform="translate(-237 -246)"/>
</svg>
