<svg xmlns="http://www.w3.org/2000/svg" xmlns:xlink="http://www.w3.org/1999/xlink" preserveAspectRatio="xMidYMid" width="10" height="18" viewBox="0 0 10 18">
  <defs>
    <style>
      .cls-1 {
        fill: #fff;
        fill-rule: evenodd;
      }
    </style>
  </defs>
  <path d="M10.005,16.943 L9.165,14.375 C8.838,14.536 8.216,14.675 7.758,14.690 L7.693,14.690 C6.361,14.690 6.100,13.662 6.088,12.912 L6.088,7.311 L9.593,7.311 L9.593,4.587 L6.101,4.587 L6.101,0.002 L3.545,0.002 C3.503,0.002 3.429,0.040 3.419,0.136 C3.274,1.541 2.634,4.002 -0.006,4.987 L-0.006,7.311 L1.751,7.311 L1.751,13.191 C1.751,15.181 3.159,17.998 6.862,17.998 L6.854,17.996 L6.984,17.996 C8.261,17.974 9.689,17.420 10.005,16.943 Z" class="cls-1"/>
</svg>
