<svg xmlns="http://www.w3.org/2000/svg" xmlns:xlink="http://www.w3.org/1999/xlink" preserveAspectRatio="xMidYMid" width="18" height="15" viewBox="0 0 18 15">
  <defs>
    <style>
      .cls-1 {
        fill: #fff;
        fill-rule: evenodd;
      }
    </style>
  </defs>
  <path d="M16.145,3.738 C16.876,3.205 17.491,2.539 17.993,1.772 L17.993,1.771 C17.323,2.072 16.611,2.272 15.868,2.369 C16.632,1.901 17.216,1.164 17.490,0.276 C16.778,0.713 15.991,1.021 15.152,1.193 C14.476,0.453 13.511,-0.005 12.459,-0.005 C10.418,-0.005 8.774,1.697 8.774,3.783 C8.774,4.083 8.799,4.372 8.860,4.646 C5.795,4.492 3.082,2.984 1.259,0.684 C0.942,1.252 0.754,1.901 0.754,2.599 C0.754,3.910 1.412,5.073 2.392,5.746 C1.800,5.735 1.219,5.558 0.727,5.280 L0.727,5.321 C0.727,7.162 2.004,8.691 3.681,9.043 C3.380,9.128 3.053,9.168 2.714,9.168 C2.478,9.168 2.240,9.154 2.016,9.103 C2.494,10.603 3.850,11.706 5.461,11.742 C4.207,12.750 2.614,13.357 0.889,13.357 C0.587,13.357 0.297,13.343 0.007,13.306 C1.641,14.387 3.576,15.005 5.664,15.005 C12.171,15.005 16.411,9.429 16.145,3.738 L16.145,3.738 Z" class="cls-1"/>
</svg>
