<svg xmlns="http://www.w3.org/2000/svg" width="15" height="18" viewBox="0 0 15 18">
  <defs>
    <style>
      .cls-1 {
        fill: #fff;
        fill-rule: evenodd;
      }
    </style>
  </defs>
  <path id="_21_viadeo" data-name="21_viadeo" class="cls-1" d="M51.3,141.881a6.756,6.756,0,0,1-1.283,3.554,8.653,8.653,0,0,1-1.283,1.421,6.078,6.078,0,0,1-2.171,1.016,5.243,5.243,0,0,1-1.776.1,5.633,5.633,0,0,1-1.875-.406,5.333,5.333,0,0,1-1.776-1.117,5.413,5.413,0,0,1-1.579-2.335,8.773,8.773,0,0,1-.493-1.726,2.97,2.97,0,0,1,0-1.32,6.211,6.211,0,0,1,1.382-3.96,6.351,6.351,0,0,1,1.48-1.32,5.979,5.979,0,0,1,1.875-.711,4.684,4.684,0,0,1,1.678-.1,4.36,4.36,0,0,1,1.579.305,0.2,0.2,0,0,1,.2.1l-0.3.61c-0.1.3-.1,0.507-0.2,0.812h-0.1a2.57,2.57,0,0,0-1.184-.305H44.494a1.635,1.635,0,0,0-.987.305,6.268,6.268,0,0,0-1.382.812,5.57,5.57,0,0,0-1.283,1.727,9.216,9.216,0,0,0-.3,1.421,5.037,5.037,0,0,0,0,1.219,6.255,6.255,0,0,0,.592,1.929,4.1,4.1,0,0,0,1.184,1.421,3.572,3.572,0,0,0,1.974.914h0.2a4.129,4.129,0,0,0,1.382-.914,5.911,5.911,0,0,0,1.085-1.523,15.883,15.883,0,0,0,.789-1.929,8.821,8.821,0,0,0,.395-1.726c0.1-.406.1-0.914,0.2-1.32,0.1-1.016.1-2.031,0.1-2.945v-0.812c-0.1-.406-0.3-0.711-0.395-1.117-0.789-1.32-1.381-2.539-2.072-3.757,0-.1-0.1-0.1-0.1-0.2h0l0.1,0.1a5.875,5.875,0,0,1,.987,1.219,6.874,6.874,0,0,1,.888,2.132,4.868,4.868,0,0,1,.3,1.726v0.407a12.161,12.161,0,0,1,.493,2.03,5.706,5.706,0,0,1,.1,1.828A7.579,7.579,0,0,1,47.85,143a10.321,10.321,0,0,1-2.763,3.452c-0.1,0-.1.1-0.2,0.1h0.3a4.122,4.122,0,0,0,2.862-1.422,5.014,5.014,0,0,0,1.085-2.031,4.049,4.049,0,0,0,.2-1.523,5.9,5.9,0,0,0-.3-1.827v-0.1h0c0.2,0,.3-0.1.493-0.1,0.2-.1.3-0.1,0.493-0.2a1.749,1.749,0,0,1,.79-0.407v0.1a5.131,5.131,0,0,1,.395,1.32A7.392,7.392,0,0,1,51.3,141.881Zm2.664-8.022a4.174,4.174,0,0,1-.3,1.523,5.02,5.02,0,0,1-.3.711,3.97,3.97,0,0,1-.789,1.016,2.342,2.342,0,0,1-1.085.609,2,2,0,0,1-1.086-.1,2.03,2.03,0,0,1-.987-0.609,0.216,0.216,0,0,0-.2-0.2,0.1,0.1,0,0,1,.1-0.1,8.909,8.909,0,0,0,1.579-1.116,15.05,15.05,0,0,0,1.283-1.117,2.22,2.22,0,0,0,.493-0.813,0.622,0.622,0,0,0,.1-0.406v-0.1a6.4,6.4,0,0,1-4.046,3.147v-0.1a2.88,2.88,0,0,1-.3-1.32,2.03,2.03,0,0,1,.493-1.523,4.379,4.379,0,0,1,.691-0.61,5.911,5.911,0,0,1,1.184-.507h0.1a3.076,3.076,0,0,0,1.48-.813,5.557,5.557,0,0,0,.691-0.913c0-.1.1-0.1,0.1-0.2,0,0.1.1,0.1,0.1,0.2a6.08,6.08,0,0,1,.592,1.421A6.5,6.5,0,0,1,53.967,133.859Z" transform="translate(-39 -130)"/>
</svg>
