<svg 
 xmlns="http://www.w3.org/2000/svg"
 xmlns:xlink="http://www.w3.org/1999/xlink"
 width="18px" height="11px">
<path fill-rule="evenodd"  fill="rgb(255, 255, 255)"
 d="M14.926,6.308 C14.635,5.923 14.718,5.751 14.926,5.407 C14.929,5.403 17.331,1.926 17.578,0.746 L17.580,0.746 C17.703,0.316 17.580,0.000 16.985,0.000 L15.018,0.000 C14.517,0.000 14.286,0.271 14.162,0.574 C14.162,0.574 13.161,3.087 11.744,4.716 C11.286,5.186 11.075,5.337 10.825,5.337 C10.702,5.337 10.511,5.186 10.511,4.757 L10.511,0.746 C10.511,0.230 10.371,0.000 9.956,0.000 L6.863,0.000 C6.548,0.000 6.362,0.241 6.362,0.464 C6.362,0.953 7.070,1.065 7.144,2.440 L7.144,5.424 C7.144,6.077 7.031,6.198 6.779,6.198 C6.111,6.198 4.487,3.675 3.525,0.787 C3.331,0.227 3.141,0.001 2.637,0.001 L0.669,0.001 C0.107,0.001 -0.006,0.272 -0.006,0.575 C-0.006,1.111 0.663,3.775 3.104,7.295 C4.731,9.698 7.022,11.000 9.107,11.000 C10.359,11.000 10.512,10.711 10.512,10.213 C10.512,7.918 10.399,7.701 11.027,7.701 C11.318,7.701 11.819,7.852 12.988,9.010 C14.325,10.385 14.545,11.000 15.293,11.000 L17.260,11.000 C17.821,11.000 18.105,10.711 17.942,10.140 C17.568,8.941 15.040,6.473 14.926,6.308 Z"/>
</svg>