<svg xmlns="http://www.w3.org/2000/svg" width="18" height="16" viewBox="0 0 18 16">
  <defs>
    <style>
      .cls-1 {
        fill: #fff;
        fill-rule: evenodd;
      }
    </style>
  </defs>
  <path id="_01_wechat" data-name="01_wechat" class="cls-1" d="M42.8,27.994c-3.8,0-6.8,2.547-6.8,5.706a5.329,5.329,0,0,0,2.6,4.483l-0.9,1.834L40.1,39a9.22,9.22,0,0,0,1.6.408,3.891,3.891,0,0,1-.1-1.121c0-3.159,3-5.706,6.8-5.706a3.341,3.341,0,0,1,1,.1C48.8,30.032,46,27.994,42.8,27.994Zm-2.3,4.28a0.8,0.8,0,0,1-.8-0.815,0.886,0.886,0,0,1,.8-0.917,0.8,0.8,0,0,1,.8.815A0.887,0.887,0,0,1,40.5,32.274Zm4.5,0a0.8,0.8,0,0,1-.8-0.815,0.886,0.886,0,0,1,.8-0.917,0.8,0.8,0,0,1,.8.815A0.887,0.887,0,0,1,45,32.274Zm9,6.012c0-2.547-2.5-4.585-5.6-4.585s-5.6,2.038-5.6,4.585,2.5,4.585,5.6,4.585a7.583,7.583,0,0,0,1.5-.2l3,1.325-1-2.14A4.352,4.352,0,0,0,54,38.286Zm-7.3-.306a0.8,0.8,0,0,1-.8-0.815,0.8,0.8,0,1,1,1.6,0A0.8,0.8,0,0,1,46.7,37.98Zm3.4,0a0.8,0.8,0,0,1-.8-0.815A0.8,0.8,0,1,1,50.1,37.98Z" transform="translate(-36 -28)"/>
</svg>
