<svg xmlns="http://www.w3.org/2000/svg" width="18" height="14" viewBox="0 0 18 14">
  <defs>
    <style>
      .cls-1 {
        fill: #fff;
        fill-rule: evenodd;
      }
    </style>
  </defs>
  <path id="_17_weibo" data-name="17_weibo" class="cls-1" d="M453.531,89.2a9.6,9.6,0,0,0-1.024-.492,0.208,0.208,0,0,1-.2-0.1,0.1,0.1,0,0,1-.1-0.1s-0.1-.1,0-0.1v-0.2a1.794,1.794,0,0,0,0-1.771,1.833,1.833,0,0,0-1.536-.59,6.373,6.373,0,0,0-2.458.59H447.9a0.1,0.1,0,0,1-.1-0.1v-0.2a1.991,1.991,0,0,0-.2-2.066,3.178,3.178,0,0,0-2.458.2,9.175,9.175,0,0,0-3.482,2.263,10.216,10.216,0,0,0-1.945,2.459,4.714,4.714,0,0,0-.717,2.361,3.445,3.445,0,0,0,.614,1.968,5.04,5.04,0,0,0,1.741,1.476,8.975,8.975,0,0,0,2.458.885,13.1,13.1,0,0,0,5.53,0,11.811,11.811,0,0,0,2.253-.787,6.727,6.727,0,0,0,1.741-1.181,6.3,6.3,0,0,0,1.127-1.279,3.535,3.535,0,0,0,.409-1.377,1.923,1.923,0,0,0-.307-1.082C454.146,89.695,453.838,89.4,453.531,89.2Zm-3.277,4.427a7.536,7.536,0,0,1-3.687,1.377,8.329,8.329,0,0,1-2.765-.2,5.5,5.5,0,0,1-2.151-1.082,2.761,2.761,0,0,1-.921-1.672,2.728,2.728,0,0,1,1.331-2.558,7.538,7.538,0,0,1,3.687-1.377,8.327,8.327,0,0,1,2.765.2,5.5,5.5,0,0,1,2.151,1.082,2.761,2.761,0,0,1,.921,1.672A2.728,2.728,0,0,1,450.254,93.63Zm-3.38-4.033a4.037,4.037,0,0,0-2.15.2,2.963,2.963,0,0,0-1.536,1.377,2.144,2.144,0,0,0-.1,1.771,2.114,2.114,0,0,0,1.536,1.18,3.541,3.541,0,0,0,2.253-.1,2.966,2.966,0,0,0,1.639-1.476,2.009,2.009,0,0,0,0-1.869A3.169,3.169,0,0,0,446.874,89.6Zm-1.126,3.148a1.039,1.039,0,0,1-.615.492,0.9,0.9,0,0,1-.717,0,0.66,0.66,0,0,1-.409-0.492,0.834,0.834,0,0,1,.1-0.689,1.039,1.039,0,0,1,.615-0.492,0.9,0.9,0,0,1,.717,0,0.66,0.66,0,0,1,.409.492A0.565,0.565,0,0,1,445.748,92.744Zm0.922-1.181a0.381,0.381,0,0,1-.205.2h-0.308c-0.2-.1-0.2-0.2-0.1-0.394a0.377,0.377,0,0,1,.2-0.2h0.307a0.378,0.378,0,0,1,.2.2A0.194,0.194,0,0,1,446.67,91.564Zm6.656-4.23,0.308,0.3h0.409l0.307-.3a4.581,4.581,0,0,0,.1-1.181,3.581,3.581,0,0,0-.512-1.082,2.144,2.144,0,0,0-1.024-.59,5.188,5.188,0,0,0-1.229-.1,0.428,0.428,0,0,0-.41.3,0.575,0.575,0,0,0-.1.394,0.506,0.506,0,0,0,.2.394,0.638,0.638,0,0,0,.41.1,1.189,1.189,0,0,1,1.127.3,0.873,0.873,0,0,1,.2,1.082A0.387,0.387,0,0,1,453.326,87.333Zm3.585-1.672a4.452,4.452,0,0,0-1.127-2.164,5.069,5.069,0,0,0-2.048-1.279,4.2,4.2,0,0,0-2.458-.1,0.428,0.428,0,0,0-.41.3,0.86,0.86,0,0,0-.1.492,0.414,0.414,0,0,0,.307.394,0.955,0.955,0,0,0,.512.1,3.494,3.494,0,0,1,1.741.1,4.762,4.762,0,0,1,1.536.885,2.959,2.959,0,0,1,.82,1.574,3.05,3.05,0,0,1-.1,1.672,0.81,0.81,0,0,0,0,.492,0.428,0.428,0,0,0,.41.3,0.906,0.906,0,0,0,.512,0,0.414,0.414,0,0,0,.307-0.393A4.622,4.622,0,0,0,456.911,85.661Z" transform="translate(-439 -82)"/>
</svg>
