<svg xmlns="http://www.w3.org/2000/svg" xmlns:xlink="http://www.w3.org/1999/xlink" preserveAspectRatio="xMidYMid" width="17.97" height="18" viewBox="0 0 17.97 18">
  <defs>
    <style>
      .cls-1 {
        fill: #fff;
        fill-rule: evenodd;
      }
    </style>
  </defs>
  <path d="M9.067,17.756 L9.063,17.756 C7.609,17.755 6.167,17.397 4.887,16.719 L-0.014,18.000 L1.298,13.226 C0.550,11.903 0.156,10.400 0.157,8.874 C0.159,3.981 4.156,-0.000 9.067,-0.000 C11.449,0.001 13.687,0.925 15.370,2.603 C17.052,4.280 17.978,6.510 17.977,8.881 C17.975,13.775 13.978,17.756 9.067,17.756 ZM14.004,3.962 C12.686,2.648 10.934,1.924 9.070,1.923 C5.221,1.923 2.089,5.042 2.087,8.875 C2.087,10.188 2.456,11.468 3.154,12.574 L3.380,12.932 L2.731,15.294 L5.165,14.658 L5.512,14.864 C6.584,15.497 7.812,15.832 9.064,15.832 L9.067,15.832 C12.914,15.832 16.045,12.714 16.046,8.880 C16.047,7.023 15.321,5.276 14.004,3.962 ZM11.980,13.122 C11.827,13.145 11.637,13.167 11.420,13.167 C11.152,13.167 10.843,13.134 10.510,13.028 C10.154,12.916 9.756,12.782 9.252,12.565 C7.431,11.782 6.112,10.169 5.488,9.278 C5.472,9.255 5.461,9.239 5.454,9.230 L5.452,9.228 C5.173,8.856 4.523,7.881 4.523,6.857 C4.523,5.771 5.069,5.191 5.302,4.943 C5.317,4.927 5.330,4.913 5.342,4.899 C5.629,4.587 5.962,4.554 6.092,4.554 C6.225,4.554 6.380,4.555 6.519,4.562 C6.531,4.562 6.543,4.562 6.555,4.562 C6.783,4.560 7.021,4.622 7.211,5.075 C7.270,5.217 7.357,5.428 7.449,5.651 C7.614,6.051 7.840,6.599 7.873,6.664 C7.911,6.741 8.028,6.975 7.890,7.249 C7.847,7.336 7.741,7.512 7.322,8.030 C7.310,8.044 7.299,8.057 7.288,8.071 C7.265,8.097 7.228,8.141 7.225,8.157 C7.225,8.157 7.225,8.173 7.246,8.209 C7.396,8.465 7.810,9.118 8.406,9.648 C9.071,10.239 9.639,10.484 9.944,10.616 C10.008,10.644 10.058,10.665 10.099,10.686 C10.232,10.752 10.245,10.737 10.289,10.686 C10.421,10.536 10.824,10.063 10.957,9.864 C11.212,9.483 11.542,9.602 11.719,9.666 C11.942,9.747 13.079,10.307 13.225,10.379 C13.266,10.400 13.305,10.419 13.341,10.436 C13.517,10.521 13.657,10.588 13.736,10.720 C13.852,10.913 13.805,11.451 13.629,11.944 C13.400,12.581 12.420,13.057 11.980,13.122 Z" class="cls-1"/>
</svg>
