<svg xmlns="http://www.w3.org/2000/svg" xmlns:xlink="http://www.w3.org/1999/xlink" preserveAspectRatio="xMidYMid" width="18" height="18" viewBox="0 0 18 18">
  <defs>
    <style>
      .cls-1 {
        fill: #fff;
        fill-rule: evenodd;
      }
    </style>
  </defs>
  <path d="M9.000,-0.000 C4.038,-0.000 -0.000,4.038 -0.000,9.000 C-0.000,13.962 4.038,18.000 9.000,18.000 C13.962,18.000 18.000,13.962 18.000,9.000 C18.000,4.038 13.962,-0.000 9.000,-0.000 ZM9.000,1.125 C10.590,1.125 12.068,1.602 13.306,2.415 C12.876,2.655 12.476,3.159 12.476,4.230 C12.476,4.799 12.864,5.460 13.313,6.225 C13.852,7.143 14.520,8.284 14.353,9.109 C14.168,9.655 13.700,10.893 13.193,12.215 L10.867,5.533 C10.915,5.520 10.968,5.512 11.013,5.498 C11.307,5.400 11.466,5.082 11.368,4.787 C11.269,4.492 10.952,4.336 10.656,4.431 C10.177,4.591 9.309,4.588 8.788,4.587 L8.632,4.587 L8.476,4.587 C7.958,4.588 7.087,4.591 6.608,4.431 C6.317,4.332 5.997,4.492 5.898,4.787 C5.799,5.082 5.959,5.400 6.254,5.498 C6.491,5.578 6.771,5.620 7.057,5.652 L8.441,9.250 L7.132,12.550 L4.897,5.557 C4.979,5.538 5.067,5.524 5.142,5.498 C5.437,5.400 5.597,5.082 5.498,4.787 C5.399,4.492 5.082,4.332 4.787,4.431 C4.309,4.591 3.439,4.587 2.918,4.587 L2.764,4.587 C2.663,4.587 2.580,4.579 2.494,4.572 C3.913,2.493 6.299,1.125 9.000,1.125 ZM1.125,9.000 C1.125,8.116 1.278,7.267 1.548,6.473 L4.999,15.771 C2.685,14.398 1.125,11.881 1.125,9.000 ZM9.000,16.875 C8.221,16.875 7.471,16.757 6.760,16.546 L9.037,10.800 L11.247,16.545 C10.534,16.757 9.781,16.875 9.000,16.875 ZM13.026,15.754 C13.755,13.886 15.011,10.649 15.388,9.555 L15.402,9.559 C15.418,9.514 15.435,9.456 15.446,9.387 C15.573,9.034 15.681,8.711 15.768,8.439 C16.046,7.560 16.222,6.787 16.315,6.103 C16.672,7.001 16.875,7.976 16.875,9.000 C16.875,11.870 15.327,14.379 13.026,15.754 Z" class="cls-1"/>
</svg>
