<svg xmlns="http://www.w3.org/2000/svg" width="16" height="18" viewBox="0 0 16 18">
  <defs>
    <style>
      .cls-1 {
        fill: #fff;
        fill-rule: evenodd;
      }
    </style>
  </defs>
  <path id="_02_Yahoo" data-name="02_Yahoo" class="cls-1" d="M116.253,40.71a1.1,1.1,0,1,1-1.079,1.1A1.089,1.089,0,0,1,116.253,40.71Zm3.529-13.18a1.1,1.1,0,0,0-.784-0.3,1.076,1.076,0,0,0-1.078,1l-1.667,10.684a0.491,0.491,0,0,0,.392.6h0.1a0.451,0.451,0,0,0,.49-0.4l2.745-10.484v-0.3A0.787,0.787,0,0,0,119.782,27.53ZM114,26.431a0.462,0.462,0,0,0-.49-0.2,2.127,2.127,0,0,1-.785-0.1,0.39,0.39,0,0,0-.588.2L109.1,33.92l-3.137-7.589a0.6,0.6,0,0,0-.687-0.3,1.64,1.64,0,0,1-.686.1,0.538,0.538,0,0,0-.49.3,0.914,0.914,0,0,0-.1.5l3.922,9.186v7.289a0.638,0.638,0,0,0,.588.6h1.078a0.638,0.638,0,0,0,.588-0.6V36.017l3.922-9.186A0.33,0.33,0,0,0,114,26.431Z" transform="translate(-104 -26)"/>
</svg>
