<svg xmlns="http://www.w3.org/2000/svg" width="18" height="18" viewBox="0 0 18 18">
  <defs>
    <style>
      .cls-1 {
        fill: #fff;
        fill-rule: evenodd;
      }
    </style>
  </defs>
  <path id="_19_yoolink" data-name="19_yoolink" class="cls-1" d="M577.006,96.006a8.969,8.969,0,0,1-9-9.154,9.1,9.1,0,0,1,9-8.849A9,9,0,0,1,577.006,96.006Zm7.362-8.951a7.332,7.332,0,0,0-7.157-7.324,7.274,7.274,0,1,0-.205,14.546A7.164,7.164,0,0,0,584.368,87.055Zm-7.362,6a6.028,6.028,0,0,1-6.033-6,6.116,6.116,0,0,1,6.033-6.1,6.05,6.05,0,0,1,6.135,6A6.135,6.135,0,0,1,577.006,93.056Zm-2.25-9.561a0.618,0.618,0,0,0-.409.1,0.91,0.91,0,0,0-.1,1.119c0.614,0.916,1.227,1.729,1.841,2.645a0.373,0.373,0,0,1,.1.305v2.441a0.765,0.765,0,0,0,.511.712,0.717,0.717,0,0,0,.921-0.712V87.563a0.373,0.373,0,0,1,.1-0.305c0.613-.814,1.227-1.729,1.84-2.543A0.854,0.854,0,0,0,579.767,84a0.647,0.647,0,0,0-.614-0.509,0.528,0.528,0,0,0-.715.305c-0.512.712-.921,1.322-1.432,2.034,0,0.1,0,.1-0.1,0-0.512-.712-0.921-1.322-1.432-1.933A0.616,0.616,0,0,0,574.756,83.495Z" transform="translate(-568 -78)"/>
</svg>
