<svg xmlns="http://www.w3.org/2000/svg" width="14" height="17" viewBox="0 0 14 17">
  <defs>
    <style>
      .cls-1 {
        fill: #fff;
        fill-rule: evenodd;
      }
    </style>
  </defs>
  <path id="_20_yummly" data-name="20_yummly" class="cls-1" d="M651,90.365a0.216,0.216,0,0,0-.207-0.195,4.439,4.439,0,0,1-.726-0.195,12.3,12.3,0,0,0-4.566-1.168l1.764-9.342a1.054,1.054,0,0,0-.1-0.973,1.088,1.088,0,0,0-1.141-.292c-0.415.1-.727,0.195-0.727,0.195a0.191,0.191,0,0,0-.1.195,1.83,1.83,0,0,1,.1.973c0,0.195-.622,3.212-1.037,5.644-1.349.779-3.113,1.071-3.528,0.681a1.863,1.863,0,0,1,.1-1.265c0-.1.726-2.822,0.933-3.6,0.519-1.557.208-2.822-1.452-3.017a4.284,4.284,0,0,0-3.113,1.07c-0.311.292-.208,0.584,0,1.07a1.44,1.44,0,0,0,.622.681c0.1,0.1.208,0.1,0.208,0,0.519-.487,1.349-0.876,1.66-0.584a1.014,1.014,0,0,1,.1.973s-0.934,3.212-1.245,4.574a2.322,2.322,0,0,0,.726,2.433,3.622,3.622,0,0,0,2.075.195,4.106,4.106,0,0,0,2.387-.876,6.589,6.589,0,0,0-.208,1.362,7.5,7.5,0,0,0-2.9.876c-1.764.973-2.594,3.309-1.349,4.477a3.466,3.466,0,0,0,3.943.195,5.554,5.554,0,0,0,2.179-3.893c2.7,0.1,3.424,1.362,4.462,1.46A1.517,1.517,0,0,0,651,90.365ZM641.97,92.6a1,1,0,0,1-1.038,0c-0.207-.292-0.311-1.752,2.179-2.141A4.58,4.58,0,0,1,641.97,92.6Z" transform="translate(-637 -78)"/>
</svg>
