<svg xmlns="http://www.w3.org/2000/svg" xmlns:xlink="http://www.w3.org/1999/xlink" preserveAspectRatio="xMidYMid" width="8.97" height="9" viewBox="0 0 8.97 9">
  <defs>
    <style>
      .cls-1 {
        fill: #bdc0d8;
        fill-rule: evenodd;
      }
    </style>
  </defs>
  <path d="M5.996,4.491 L8.651,1.826 C9.071,1.404 9.071,0.721 8.651,0.299 C8.231,-0.123 7.549,-0.123 7.130,0.299 L4.475,2.965 L1.819,0.299 C1.399,-0.123 0.718,-0.123 0.298,0.299 C-0.122,0.721 -0.122,1.404 0.298,1.826 L2.954,4.491 L0.298,7.156 C-0.122,7.578 -0.122,8.262 0.298,8.683 C0.508,8.894 0.784,8.999 1.059,8.999 C1.334,8.999 1.609,8.894 1.819,8.683 L4.475,6.018 L7.130,8.684 C7.339,8.894 7.615,8.999 7.890,8.999 C8.166,8.999 8.441,8.894 8.651,8.684 C9.071,8.262 9.071,7.578 8.651,7.156 L5.996,4.491 Z" class="cls-1"/>
</svg>
