<svg xmlns="http://www.w3.org/2000/svg" width="270" height="77.439" viewBox="0 0 270 77.439">
  <defs>
    <style>
      .cls-1 {
        fill: #aab1b4;
        fill-rule: evenodd;
      }
    </style>
  </defs>
  <path id="Arrow" class="cls-1" d="M812.147,1004.01a1.224,1.224,0,0,0-1.6.75c-1.864,4.36-4.634,9.67-9.565,12.01a1.583,1.583,0,0,0-.518.39,2.02,2.02,0,0,0-.439,1.73,1.592,1.592,0,0,0,1.51,1.35c6.22,0.27,11.474,1.03,16.9,3.86a1.148,1.148,0,0,0,1.538-.56,1.523,1.523,0,0,0-.28-2.05c-0.395-.27-0.8-0.53-1.211-0.79a26.914,26.914,0,0,0-11.325-3.72l-1.411-.14,2.1-2.33a24.3,24.3,0,0,0,2.923-3.87,20.3,20.3,0,0,0,2.163-5A1.264,1.264,0,0,0,812.147,1004.01Zm114.071-55.363-0.008,0a26.894,26.894,0,0,0-4.594,2.272,1,1,0,0,0-.321,1.372,0.98,0.98,0,0,0,1.361.328,24.831,24.831,0,0,1,4.257-2.106A1,1,0,0,0,926.218,948.647Zm4.75-1.338a1,1,0,0,0,.527,1.916,27.145,27.145,0,0,1,4.74-.459,1,1,0,0,0-.021-2,28.94,28.94,0,0,0-5.084.494A0.967,0.967,0,0,0,930.968,947.309Zm-13.083,6.553a0.977,0.977,0,0,0-.338.212,23.39,23.39,0,0,0-3.314,3.97,1,1,0,0,0,.276,1.383,0.981,0.981,0,0,0,1.37-.275,21.26,21.26,0,0,1,3.032-3.63,1,1,0,0,0,.033-1.411A0.986,0.986,0,0,0,917.885,953.862Zm22.917-6.623a0.988,0.988,0,0,0-.631.765,1,1,0,0,0,.8,1.154,23.884,23.884,0,0,1,4.569,1.28,0.983,0.983,0,0,0,1.278-.568,1,1,0,0,0-.565-1.291,25.846,25.846,0,0,0-4.945-1.385A0.976,0.976,0,0,0,940.8,947.239Zm-28.334,14.844a0.987,0.987,0,0,0-.582.582,24.791,24.791,0,0,0-1.284,5.018,1,1,0,0,0,.831,1.136,0.988,0.988,0,0,0,1.124-.836,22.736,22.736,0,0,1,1.179-4.61,1,1,0,0,0-.577-1.286A0.974,0.974,0,0,0,912.468,962.083Zm37.469-11.216a0.981,0.981,0,0,0-.478.38,1,1,0,0,0,.274,1.384,19.8,19.8,0,0,1,3.567,3.084,0.983,0.983,0,0,0,1.4.064,1,1,0,0,0,.059-1.409,21.8,21.8,0,0,0-3.926-3.395A0.983,0.983,0,0,0,949.937,950.867Zm-38.966,21a0.993,0.993,0,0,0-.644.968,34.307,34.307,0,0,0,.579,5.1,0.988,0.988,0,1,0,1.942-.367,32.137,32.137,0,0,1-.545-4.8A0.989,0.989,0,0,0,910.971,971.864Zm45.582-13.709a0.981,0.981,0,0,0-.132.061,1,1,0,0,0-.393,1.353,20.938,20.938,0,0,1,1.243,2.76c0.2,0.531.375,1.085,0.533,1.645a0.988,0.988,0,1,0,1.9-.542c-0.172-.609-0.367-1.212-0.58-1.792a23.159,23.159,0,0,0-1.363-3.025A0.987,0.987,0,0,0,956.553,958.155ZM830.039,1005.66c-0.573.22-1.141,0.43-1.7,0.65a0.989,0.989,0,0,0-.568,1.28,1,1,0,0,0,1.266.59c0-.01.007-0.01,0.01-0.01,1.5-.58,3.04-1.14,4.612-1.69a1.041,1.041,0,0,0,.608-1.27,0.993,0.993,0,0,0-1.26-.62C832,1004.94,831.013,1005.3,830.039,1005.66Zm-6.282,2.48c-0.012.01-.025,0.01-0.037,0.02-1.53.64-3.064,1.31-4.561,1.98a1,1,0,0,0-.494,1.32,0.992,0.992,0,0,0,1.307.51c1.48-.68,3-1.34,4.509-1.97A1,1,0,0,0,823.757,1008.14Zm13.919-5.1a1.009,1.009,0,0,0-.6,1.24,0.985,0.985,0,0,0,1.239.65c1.556-.49,3.14-0.95,4.706-1.39a1,1,0,0,0-.528-1.92c-1.588.44-3.193,0.91-4.771,1.41C837.708,1003.03,837.691,1003.04,837.676,1003.04Zm-22.932,9.18a0.323,0.323,0,0,0-.087.04c-1.492.72-2.987,1.47-4.445,2.23a1,1,0,0,0-.422,1.34,0.979,0.979,0,0,0,1.332.43c1.442-.75,2.921-1.49,4.4-2.21a1,1,0,0,0,.459-1.33A0.977,0.977,0,0,0,814.744,1012.22Zm32.455-11.81a1,1,0,0,0,.575,1.91c1.6-.39,3.211-0.74,4.791-1.05a1,1,0,0,0-.387-1.96c-1.6.319-3.24,0.676-4.864,1.06A0.491,0.491,0,0,0,847.2,1000.41Zm9.692-1.922a1,1,0,0,0,.5,1.922c1.616-.25,3.249-0.474,4.854-0.654a1,1,0,0,0-.223-1.982c-1.633.183-3.295,0.406-4.939,0.664A0.924,0.924,0,0,0,856.891,998.488Zm9.818-1.1a1,1,0,0,0,.4,1.932l0.186-.012c1.526-.1,3.117-0.165,4.721-0.2a1,1,0,0,0-.05-2c-1.63.038-3.248,0.107-4.81,0.206l-0.156.011A0.991,0.991,0,0,0,866.709,997.39Zm46.077-15.757a1,1,0,0,0-.589,1.259c0.078,0.23.159,0.459,0.244,0.689a34.358,34.358,0,0,0,1.78,4.021,0.99,0.99,0,1,0,1.75-.925,32.306,32.306,0,0,1-1.677-3.785q-0.118-.322-0.229-0.646a0.99,0.99,0,0,0-1.257-.621Zm-36.2,15.524a1,1,0,0,0,.334,1.932c1.573,0.02,3.18.066,4.912,0.14a1,1,0,0,0,.079-1.992c-1.753-.075-3.378-0.121-4.971-0.141A0.969,0.969,0,0,0,876.589,997.157Zm82.707-29.49a0.994,0.994,0,0,0-.64,1.022,32.41,32.41,0,0,1,.05,4.831,0.989,0.989,0,1,0,1.973.129,34.425,34.425,0,0,0-.054-5.132,0.994,0.994,0,0,0-1.073-.907A0.944,0.944,0,0,0,959.3,967.667Zm-72.829,29.9a1,1,0,0,0,.282,1.931q2.463,0.162,4.913.367a1,1,0,0,0,.156-1.988c-1.643-.135-3.293-0.261-4.946-0.369A0.962,0.962,0,0,0,886.467,997.566Zm30.88-7.129a1.027,1.027,0,0,0-.233.124,1,1,0,0,0-.227,1.392,42.928,42.928,0,0,0,3.186,3.961,0.982,0.982,0,0,0,1.4.065,1,1,0,0,0,.061-1.409,40.937,40.937,0,0,1-3.036-3.776A0.987,0.987,0,0,0,917.347,990.437Zm-21.025,7.933a1,1,0,0,0,.254,1.93c1.651,0.15,3.291.31,4.918,0.47a0.979,0.979,0,0,0,1.077-.892,1,1,0,0,0-.891-1.09q-2.445-.24-4.927-0.475A0.971,0.971,0,0,0,896.322,998.37Zm62.412-20.78a0.991,0.991,0,0,0-.629.752q-0.151.821-.337,1.667c-0.232,1.053-.5,2.08-0.81,3.05a1,1,0,0,0,.645,1.254,0.983,0.983,0,0,0,1.24-.647c0.322-1.026.609-2.109,0.855-3.22,0.129-.589.246-1.166,0.351-1.736a1,1,0,0,0-.792-1.164A0.98,0.98,0,0,0,958.734,977.59Zm-52.568,21.737a0.993,0.993,0,0,0-.641.843,1,1,0,0,0,.893,1.09q2.493,0.24,4.932.45a0.986,0.986,0,0,0,1.068-.9,1,1,0,0,0-.9-1.085q-2.43-.213-4.916-0.455A0.97,0.97,0,0,0,906.166,999.327Zm9.853,0.843a1.013,1.013,0,0,0-.643.87,0.989,0.989,0,0,0,.921,1.06c1.776,0.13,3.4.22,4.964,0.28a0.985,0.985,0,0,0,1.025-.95,1,1,0,0,0-.951-1.04c-1.545-.06-3.151-0.15-4.907-0.27A1.1,1.1,0,0,0,916.019,1000.17Zm7.957-2.364a0.971,0.971,0,0,0-.394.271,1,1,0,0,0,.083,1.409q0.836,0.75,1.728,1.484a1.006,1.006,0,0,0,.851,1.52c0.354,0,.7-0.01,1.052-0.01l0.275,0.21a0.992,0.992,0,0,0,1.382-.21c0.01-.01.019-0.03,0.028-0.04,0.776-.02,1.531-0.06,2.261-0.11a0.98,0.98,0,0,0,.922-1.05,1,1,0,0,0-1.049-.94c-1.011.07-2.073,0.11-3.172,0.13-1.035-.8-2.03-1.631-2.967-2.473A0.979,0.979,0,0,0,923.976,997.806Zm31.713-10.776a0.983,0.983,0,0,0-.534.476,22.514,22.514,0,0,1-2.587,3.978,1,1,0,0,0,.134,1.4,0.981,0.981,0,0,0,1.391-.132,24.372,24.372,0,0,0,2.818-4.329,1,1,0,0,0-.424-1.345A0.977,0.977,0,0,0,955.689,987.03Zm-6.255,7.59a0.99,0.99,0,0,0-.254.14,22.311,22.311,0,0,1-4.049,2.443,1,1,0,0,0-.476,1.325,0.982,0.982,0,0,0,1.314.483,24.215,24.215,0,0,0,4.406-2.659,1,1,0,0,0,.19-1.4A0.986,0.986,0,0,0,949.434,994.62Zm-13.689,5.272a1,1,0,0,0,.494,1.918,40.223,40.223,0,0,0,4.947-1.04,1,1,0,0,0-.531-1.921,39.867,39.867,0,0,1-4.714.992A0.911,0.911,0,0,0,935.745,999.892Zm-3.846,3.868a0.986,0.986,0,0,0-.493.41,1,1,0,0,0,.312,1.37c1.381,0.88,2.84,1.73,4.335,2.55a1,1,0,0,0,.932-1.76c-1.456-.79-2.875-1.62-4.217-2.48A1,1,0,0,0,931.9,1003.76Zm8.7,4.74a1,1,0,0,0-.068,1.84c1.486,0.69,3.032,1.36,4.595,1.99a0.994,0.994,0,0,0,.727-1.85c-1.53-.62-3.043-1.27-4.5-1.95A0.95,0.95,0,0,0,940.6,1008.5Zm9.188,3.7a1,1,0,0,0-.592.61,1.006,1.006,0,0,0,.618,1.27c1.551,0.53,3.151,1.04,4.758,1.52a0.988,0.988,0,0,0,1.224-.68,1.006,1.006,0,0,0-.674-1.24c-1.579-.46-3.151-0.96-4.673-1.49A0.939,0.939,0,0,0,949.788,1012.2Zm9.494,2.8a0.984,0.984,0,0,0-.618.7,0.994,0.994,0,0,0,.726,1.2c1.584,0.4,3.22.77,4.863,1.11a0.995,0.995,0,0,0,.392-1.95c-1.617-.34-3.228-0.7-4.786-1.09A0.943,0.943,0,0,0,959.282,1015Zm9.686,2.01a0.983,0.983,0,0,0-.632.77,1,1,0,0,0,.815,1.15c1.607,0.27,3.266.51,4.929,0.73a1,1,0,0,0,.247-1.98c-1.639-.21-3.272-0.45-4.856-0.72A0.947,0.947,0,0,0,968.968,1017.01Zm9.806,1.28a0.973,0.973,0,0,0-.641.84,1.006,1.006,0,0,0,.895,1.09c1.637,0.15,3.307.28,4.963,0.38a1,1,0,0,0,.114-1.99c-1.635-.1-3.283-0.23-4.9-0.38A0.906,0.906,0,0,0,978.774,1018.29Zm9.87,0.59a1,1,0,0,0,.319,1.94c1.637,0.04,3.311.06,4.975,0.05a0.985,0.985,0,0,0,.98-1,1,1,0,0,0-1-1c-1.643.01-3.3,0-4.911-.05A1.108,1.108,0,0,0,988.644,1018.88Zm9.884-.06a1.009,1.009,0,0,0-.644.98,1,1,0,0,0,1.028.96c1.648-.07,3.318-0.16,4.968-0.28a0.987,0.987,0,0,0,.91-1.06,1,1,0,0,0-1.06-.93c-1.62.12-3.27,0.21-4.9,0.27A1.452,1.452,0,0,0,998.528,1018.82Zm9.862-.7a1,1,0,0,0-.64,1.04,0.981,0.981,0,0,0,1.08.89c1.65-.17,3.31-0.37,4.94-0.59a1,1,0,0,0-.27-1.98c-1.61.22-3.25,0.42-4.87,0.59A0.6,0.6,0,0,0,1008.39,1018.12Zm60.27-20.665a1.16,1.16,0,0,0-.2.1c-1.35.885-2.75,1.761-4.16,2.606a0.992,0.992,0,0,0-.34,1.36,0.966,0.966,0,0,0,1.35.35c1.44-.85,2.86-1.74,4.23-2.642a1,1,0,0,0,.29-1.379A0.986,0.986,0,0,0,1068.66,997.455Zm-50.48,19.325a1,1,0,0,0,.51,1.92c1.62-.28,3.27-0.59,4.9-0.92a1,1,0,0,0-.4-1.96c-1.6.33-3.23,0.64-4.83,0.91A0.776,0.776,0,0,0,1018.18,1016.78Zm41.99-14.25a0.5,0.5,0,0,0-.13.05c-1.43.78-2.9,1.54-4.36,2.25a1,1,0,0,0,.87,1.8c1.48-.73,2.97-1.5,4.43-2.29a1,1,0,0,0,.4-1.35A0.987,0.987,0,0,0,1060.17,1002.53Zm-32.29,12.26a1,1,0,0,0,.58,1.9c1.62-.39,3.24-0.81,4.82-1.25a1,1,0,0,0-.53-1.92c-1.56.43-3.16,0.85-4.76,1.23A0.487,0.487,0,0,0,1027.88,1014.79Zm23.41-7.9c-0.02.01-.04,0.01-0.06,0.02-1.48.66-3,1.3-4.52,1.91a1,1,0,0,0-.55,1.29,0.982,0.982,0,0,0,1.28.56c1.55-.61,3.09-1.26,4.59-1.93a1.006,1.006,0,0,0,.51-1.32A0.991,0.991,0,0,0,1051.29,1006.89Zm-13.87,5.24a1.009,1.009,0,0,0-.6,1.24,0.985,0.985,0,0,0,1.24.65c1.57-.5,3.16-1.03,4.72-1.59a1.011,1.011,0,0,0,.6-1.27,0.989,0.989,0,0,0-1.26-.61c-1.54.55-3.1,1.08-4.66,1.57C1037.45,1012.12,1037.43,1012.13,1037.42,1012.13Z" transform="translate(-800 -946.781)"/>
</svg>
