<svg xmlns="http://www.w3.org/2000/svg" width="270" height="67" viewBox="0 0 270 67">
  <defs>
    <style>
      .cls-1 {
        fill: #aab1b4;
        fill-rule: evenodd;
      }
    </style>
  </defs>
  <path id="Arrow" class="cls-1" d="M819.057,1070.96a1.253,1.253,0,0,0-1.756-.36c-4.15,2.39-9.609,5-15.049,3.9a1.79,1.79,0,0,0-.653,0,2.012,2.012,0,0,0-1.4,1.13,1.61,1.61,0,0,0,.42,2.01c4.914,3.99,8.748,7.79,11.478,13.36a1.162,1.162,0,0,0,1.6.47,1.515,1.515,0,0,0,1-1.82c-0.16-.46-0.333-0.91-0.517-1.37a27.367,27.367,0,0,0-7.009-9.87l-1.064-.97,3.119-.6a25.728,25.728,0,0,0,4.715-1.35,20.968,20.968,0,0,0,4.783-2.73A1.273,1.273,0,0,0,819.057,1070.96Zm134.435-19.93a33.852,33.852,0,0,0-3.775.07,1.008,1.008,0,0,0,.158,2.01,30.325,30.325,0,0,1,4.859.01,1,1,0,1,0,.166-2Q954.2,1051.06,953.492,1051.03Zm6.321,0.88a1.01,1.01,0,0,0-.277,1.99,29.707,29.707,0,0,1,4.616,1.51,1,1,0,1,0,.783-1.85,32.525,32.525,0,0,0-4.922-1.62Zm-14.929.01a1.445,1.445,0,0,0-.291.03,27.263,27.263,0,0,0-4.9,1.79,1,1,0,0,0,.874,1.81,24.878,24.878,0,0,1,4.528-1.65,1,1,0,0,0,.722-1.22A1.015,1.015,0,0,0,944.884,1051.92Zm24.141,3.9a1.006,1.006,0,0,0-.585,1.85,25.173,25.173,0,0,1,3.786,2.98,1,1,0,1,0,1.395-1.44,26.571,26.571,0,0,0-4.091-3.23A1.046,1.046,0,0,0,969.025,1055.82Zm-33.108.48a1.022,1.022,0,0,0-.664.21,22.361,22.361,0,0,0-3.7,3.73,1,1,0,1,0,1.585,1.23,20,20,0,0,1,3.365-3.38A1,1,0,0,0,935.917,1056.3Zm40.266,6.47a0.938,0.938,0,0,0-.6.17,1,1,0,0,0-.28,1.39,20.649,20.649,0,0,1,2.177,4.25,1,1,0,0,0,1.884-.7,23.173,23.173,0,0,0-2.387-4.67A1.015,1.015,0,0,0,976.183,1062.77Zm-46.4,1.36a1.021,1.021,0,0,0-.954.59,25.191,25.191,0,0,0-1.662,4.95,1.005,1.005,0,0,0,1.962.44,22.994,22.994,0,0,1,1.528-4.55,1.012,1.012,0,0,0-.495-1.34A1.277,1.277,0,0,0,929.787,1064.13Zm49.884,7.96a1,1,0,0,0-.173,0,1.011,1.011,0,0,0-.865,1.13,23.707,23.707,0,0,1,.179,4.04c-0.01.25-.024,0.51-0.043,0.77a1.006,1.006,0,0,0,.933,1.07,1.021,1.021,0,0,0,1.073-.93c0.02-.28.035-0.56,0.046-0.83a25.745,25.745,0,0,0-.194-4.38A1.006,1.006,0,0,0,979.671,1072.09Zm-52.153,1.76a1,1,0,0,0-1.043.95l-0.021.44a38.43,38.43,0,0,0,.116,4.72,1.005,1.005,0,1,0,2-.17,36.543,36.543,0,0,1-.11-4.47l0.019-.41a1,1,0,0,0-.95-1.06h-0.014Zm51.512,8.2a1.01,1.01,0,0,0-1.016.77,36.365,36.365,0,0,1-1.477,4.65,1.005,1.005,0,1,0,1.873.73,37.862,37.862,0,0,0,1.558-4.91,1,1,0,0,0-.74-1.21A0.69,0.69,0,0,0,979.03,1082.05Zm-173.047-6.06a1.015,1.015,0,0,0-.926.53,1,1,0,0,0,.411,1.36q2.112,1.125,4.456,2.36a1.008,1.008,0,0,0,1.357-.43,1,1,0,0,0-.425-1.35q-2.331-1.23-4.438-2.35A1.138,1.138,0,0,0,805.983,1075.99Zm122.446,7.82a1.416,1.416,0,0,0-.288.03,1.008,1.008,0,0,0-.726,1.22,29.536,29.536,0,0,0,1.718,4.9,1.005,1.005,0,0,0,1.831-.83,27.6,27.6,0,0,1-1.6-4.56A1.014,1.014,0,0,0,928.429,1083.81Zm-113.53-3.16a1.019,1.019,0,0,0-.936.55,1,1,0,0,0,.438,1.35q2.178,1.11,4.5,2.27a1.006,1.006,0,0,0,.9-1.8q-2.313-1.155-4.483-2.26A1.048,1.048,0,0,0,814.9,1080.65Zm9,4.49a0.993,0.993,0,0,0-.944.56,1.013,1.013,0,0,0,.463,1.35c1.481,0.72,3,1.44,4.545,2.18a1.007,1.007,0,0,0,.861-1.82q-2.311-1.1-4.525-2.17A0.964,0.964,0,0,0,823.9,1085.14Zm151.526,6.26a1.026,1.026,0,0,0-.932.54c-0.368.71-.762,1.43-1.181,2.15s-0.856,1.43-1.3,2.1a1,1,0,1,0,1.68,1.1c0.465-.7.922-1.44,1.359-2.19s0.844-1.5,1.225-2.23a1,1,0,0,0-.427-1.35A1.091,1.091,0,0,0,975.429,1091.4Zm93.621,6.17a0.937,0.937,0,0,0-.51.12c-1.44.77-2.93,1.54-4.44,2.28a1,1,0,1,0,.89,1.8c1.53-.75,3.04-1.53,4.5-2.31a1.019,1.019,0,0,0,.41-1.37A1,1,0,0,0,1069.05,1097.57Zm-136.511-4.66a0.95,0.95,0,0,0-.6.17,1,1,0,0,0-.27,1.39,32.792,32.792,0,0,0,3.222,4.04,1,1,0,1,0,1.474-1.36,32.456,32.456,0,0,1-3.031-3.8A0.984,0.984,0,0,0,932.539,1092.91Zm-99.545-3.47a1.007,1.007,0,0,0-.462,1.92c1.5,0.69,3.035,1.39,4.588,2.08a1,1,0,1,0,.823-1.83q-2.317-1.035-4.567-2.08A1.3,1.3,0,0,0,832.994,1089.44Zm227.036,12.55a1.2,1.2,0,0,0-.45.09c-1.5.66-3.04,1.32-4.59,1.94a1.006,1.006,0,0,0,.74,1.87c1.58-.64,3.15-1.3,4.67-1.97a1.012,1.012,0,0,0,.51-1.33A1.022,1.022,0,0,0,1060.03,1101.99Zm-217.858-8.43a1,1,0,0,0-.441,1.92q2.289,1.005,4.634,1.99a1.009,1.009,0,0,0,.781-1.86q-2.332-.975-4.612-1.97A0.931,0.931,0,0,0,842.172,1093.56Zm127.725,6.2a1,1,0,0,0-.809.36,40.008,40.008,0,0,1-3.38,3.54,1.007,1.007,0,0,0,1.365,1.48,42.936,42.936,0,0,0,3.552-3.72A1.012,1.012,0,0,0,969.9,1099.76Zm-30.575.5a1.019,1.019,0,0,0-.815.37,1,1,0,0,0,.133,1.41,45.807,45.807,0,0,0,4.137,3.04,1.012,1.012,0,0,0,1.391-.29,1,1,0,0,0-.29-1.39,44.6,44.6,0,0,1-3.956-2.91A1.05,1.05,0,0,0,939.322,1100.26Zm-87.881-2.8a1,1,0,0,0-.419,1.93c1.548,0.63,3.109,1.26,4.682,1.87a1,1,0,0,0,1.3-.56,1.014,1.014,0,0,0-.568-1.31q-2.347-.915-4.658-1.86A1.017,1.017,0,0,0,851.441,1097.46Zm199.259,8.29a0.865,0.865,0,0,0-.38.06c-1.55.56-3.14,1.11-4.72,1.62a1,1,0,0,0,.62,1.91c1.6-.52,3.21-1.07,4.79-1.65A1,1,0,0,0,1050.7,1105.75Zm-189.894-4.62a1,1,0,0,0-.4,1.94q2.352,0.885,4.732,1.74a1,1,0,1,0,.682-1.89q-2.364-.84-4.7-1.73A0.875,0.875,0,0,0,860.806,1101.13Zm180.344,7.73a1.124,1.124,0,0,0-.32.04c-1.6.47-3.22,0.91-4.82,1.32a1.007,1.007,0,0,0,.5,1.95c1.62-.42,3.26-0.87,4.88-1.34A1.007,1.007,0,0,0,1041.15,1108.86Zm-93.451-3.08a1,1,0,0,0-.929.53,1.008,1.008,0,0,0,.419,1.36c1.465,0.77,3.015,1.51,4.608,2.19a1,1,0,1,0,.795-1.84c-1.545-.67-3.047-1.38-4.464-2.13A0.946,0.946,0,0,0,947.7,1105.78Zm14.841,0.79a0.969,0.969,0,0,0-.626.19,40.674,40.674,0,0,1-4.144,2.61,1.021,1.021,0,0,0-.437.48,0.588,0.588,0,0,1-.123-0.04,1.007,1.007,0,0,0-.665,1.9c1.558,0.54,3.19,1.06,4.848,1.53a1,1,0,1,0,.551-1.93c-0.774-.22-1.543-0.45-2.3-0.69,1.19-.7,2.345-1.44,3.443-2.23a1,1,0,0,0,.231-1.4A0.978,0.978,0,0,0,962.54,1106.57Zm-92.265-2.03a1,1,0,0,0-.365,1.95q2.386,0.825,4.788,1.6a1,1,0,0,0,.622-1.91q-2.386-.78-4.758-1.59A0.963,0.963,0,0,0,870.275,1104.54Zm161.135,6.83a1.222,1.222,0,0,0-.26.03c-1.6.36-3.25,0.7-4.89,1.02a1.009,1.009,0,0,0,.39,1.98c1.66-.33,3.32-0.68,4.94-1.04A1.008,1.008,0,0,0,1031.41,1111.37Zm-151.566-3.73a1,1,0,0,0-.333,1.96c1.61,0.5,3.223.97,4.837,1.43a1.01,1.01,0,0,0,1.241-.69,1,1,0,0,0-.691-1.24q-2.4-.69-4.8-1.42A1.128,1.128,0,0,0,879.844,1107.64Zm141.7,5.65a0.714,0.714,0,0,0-.2.02c-1.63.26-3.3,0.51-4.94,0.73a1,1,0,1,0,.26,1.99c1.67-.22,3.35-0.47,5.01-0.74A1.007,1.007,0,0,0,1021.54,1113.29Zm-67.769-1.86a1.055,1.055,0,0,0-.426.07,49.136,49.136,0,0,1-4.634,1.67,1.014,1.014,0,0,0-.667,1.26,1,1,0,0,0,1.257.66c1.662-.51,3.283-1.09,4.818-1.73a1.007,1.007,0,0,0,.541-1.32A1,1,0,0,0,953.771,1111.43Zm12.806,1.09a1,1,0,0,0-.264,1.98c1.608,0.37,3.281.71,4.973,1.01a0.994,0.994,0,0,0,1.167-.81,1.007,1.007,0,0,0-.812-1.17c-1.661-.29-3.3-0.63-4.878-0.99A1.2,1.2,0,0,0,966.577,1112.52Zm45,2.1a0.615,0.615,0,0,0-.14.01c-1.67.17-3.34,0.32-4.98,0.44a1,1,0,1,0,.14,2c1.66-.12,3.36-0.27,5.04-0.44A1.008,1.008,0,0,0,1011.58,1114.62ZM889.5,1110.38a1.007,1.007,0,0,0-.294,1.98c1.636,0.43,3.27.83,4.9,1.22a1,1,0,1,0,.466-1.95c-1.616-.39-3.235-0.79-4.856-1.22A0.811,0.811,0,0,0,889.5,1110.38Zm86.965,3.92a1,1,0,0,0-.173,2c1.646,0.22,3.34.41,5.033,0.57a0.989,0.989,0,0,0,1.1-.9,1.015,1.015,0,0,0-.9-1.1c-1.668-.15-3.335-0.35-4.956-0.56A0.314,0.314,0,0,0,976.468,1114.3Zm25.082,1.05h-0.08c-1.643.07-3.324,0.12-4.994,0.13a1.016,1.016,0,0,0-1,1.02,1,1,0,0,0,1.016.99c1.691-.01,3.392-0.06,5.053-0.13a1,1,0,0,0,.97-1.04A1.02,1.02,0,0,0,1001.55,1115.35Zm-15.074-.1a1.006,1.006,0,0,0-.1,2.01c0.933,0.05,1.868.1,2.815,0.13,0.744,0.03,1.492.05,2.243,0.07a1,1,0,0,0,1.029-.98,1.025,1.025,0,0,0-.982-1.03c-0.79-.02-1.578-0.04-2.361-0.07-0.881-.04-1.756-0.08-2.626-0.13h-0.02Zm-42.294-.86a2.19,2.19,0,0,0-.252.02c-1.56.34-3.2,0.63-4.875,0.86a1,1,0,1,0,.274,1.99c1.725-.24,3.415-0.53,5.025-0.88A1.007,1.007,0,0,0,944.182,1114.39Zm-44.894-1.69a1.006,1.006,0,0,0-.247,1.99c1.648,0.35,3.317.68,4.96,0.98a1.007,1.007,0,0,0,.363-1.98c-1.625-.3-3.275-0.62-4.906-0.97A1,1,0,0,0,899.288,1112.7Zm9.892,1.81a1,1,0,0,0-.189,1.99c1.683,0.26,3.37.49,5.017,0.68a1.007,1.007,0,0,0,.234-2c-1.624-.19-3.289-0.41-4.949-0.66A0.436,0.436,0,0,0,909.18,1114.51Zm25.055,1.27h-0.113c-1.6.12-3.269,0.19-4.965,0.22a1.005,1.005,0,0,0,.032,2.01c1.732-.03,3.44-0.11,5.077-0.22A1.007,1.007,0,0,0,934.235,1115.78Zm-15.067-.12a1.007,1.007,0,0,0-.117,2.01c1.517,0.12,3.035.21,4.51,0.26l0.553,0.02a1,1,0,1,0,.074-2h0l-0.542-.02c-1.45-.06-2.941-0.15-4.434-0.26A0.057,0.057,0,0,0,919.168,1115.66Z" transform="translate(-800 -1051)"/>
</svg>
