<svg xmlns="http://www.w3.org/2000/svg" width="270" height="70.312" viewBox="0 0 270 70.312">
  <defs>
    <style>
      .cls-1 {
        fill: #aab1b4;
        fill-rule: evenodd;
      }
    </style>
  </defs>
  <path id="Arrow" class="cls-1" d="M819.728,883.582a1.257,1.257,0,0,1-1.707.591c-4.452-1.837-10.239-3.715-15.529-1.9a1.7,1.7,0,0,1-.651.091,2.037,2.037,0,0,1-1.545-.942,1.611,1.611,0,0,1,.16-2.054c4.392-4.625,7.73-8.915,9.737-14.823a1.176,1.176,0,0,1,1.531-.686,1.522,1.522,0,0,1,1.238,1.684c-0.1.477-.214,0.955-0.339,1.431a27.518,27.518,0,0,1-5.725,10.755l-0.936,1.11,3.192,0.193a25.039,25.039,0,0,1,4.881.722,20.553,20.553,0,0,1,5.128,2.092A1.266,1.266,0,0,1,819.728,883.582Zm-6.045-10.367-1.116.671a1.009,1.009,0,1,0,1.042,1.728l0,0,1.107-.666q1.493-.893,3.237-1.914a1.009,1.009,0,1,0-1.02-1.741Q815.185,872.316,813.683,873.215Zm-5.426,3.319-0.018.011c-1.279.8-2.057,1.308-2.273,1.447l0.489,0.886-0.229.984a1.241,1.241,0,0,0,.841-0.177c0.213-.139.983-0.638,2.246-1.43A1.01,1.01,0,0,0,808.257,876.534Zm13.072-7.774a1.009,1.009,0,0,0,1.017,1.743q2.1-1.188,4.421-2.474a0.978,0.978,0,0,0,.4-1.372,1.011,1.011,0,0,0-1.374-.393q-2.336,1.285-4.442,2.484Zm8.891-4.9a1.009,1.009,0,0,0,1,1.754q2.167-1.158,4.478-2.363a1.009,1.009,0,1,0-.932-1.789q-2.32,1.207-4.5,2.373Zm9-4.682a1.008,1.008,0,0,0,.974,1.765q2.215-1.116,4.532-2.248a1.009,1.009,0,1,0-.885-1.813q-2.328,1.134-4.556,2.26C839.267,859.152,839.245,859.164,839.224,859.177Zm9.117-4.448a1.009,1.009,0,0,0,.951,1.777q2.258-1.065,4.588-2.126a1.009,1.009,0,1,0-.834-1.837q-2.345,1.065-4.616,2.138C848.4,854.7,848.369,854.712,848.341,854.729Zm9.233-4.2a1.009,1.009,0,0,0,.924,1.79q2.3-1.007,4.647-1.992a1.009,1.009,0,1,0-.78-1.862q-2.364.993-4.676,2A1.255,1.255,0,0,0,857.574,850.53Zm9.353-3.92a1.008,1.008,0,0,0,.895,1.8q2.334-.934,4.706-1.839a1.009,1.009,0,1,0-.717-1.886q-2.388.909-4.739,1.852A0.932,0.932,0,0,0,866.927,846.61ZM876.4,843a1.009,1.009,0,0,0,.861,1.815q2.37-.854,4.768-1.664a1.01,1.01,0,1,0-.646-1.913q-2.413.817-4.8,1.677A1.079,1.079,0,0,0,876.4,843Zm9.617-3.247a1.009,1.009,0,0,0,.822,1.828q2.408-.758,4.831-1.46a1.009,1.009,0,1,0-.56-1.939q-2.444.708-4.875,1.473A1.05,1.05,0,0,0,886.021,839.754Zm9.731-2.816a1.008,1.008,0,0,0,.775,1.841c1.632-.429,3.278-0.839,4.891-1.216a1.009,1.009,0,1,0-.457-1.966c-1.631.382-3.295,0.8-4.946,1.23A1.01,1.01,0,0,0,895.752,836.938Zm9.869-2.309a1.008,1.008,0,0,0,.717,1.855c1.675-.339,3.34-0.65,4.95-0.922a1.009,1.009,0,1,0-.334-1.991c-1.63.276-3.317,0.59-5.014,0.935A1.008,1.008,0,0,0,905.621,834.629Zm9.991-1.685a1.009,1.009,0,0,0,.649,1.867c1.682-.223,3.362-0.411,4.992-0.56a1.009,1.009,0,1,0-.179-2.01c-1.657.15-3.365,0.342-5.075,0.568A1.014,1.014,0,0,0,915.612,832.944Zm10.085-.914a1.008,1.008,0,0,0,.562,1.874c1.7-.078,3.385-0.114,5.01-0.107a1.009,1.009,0,1,0,.015-2.018c-1.66-.009-3.38.028-5.113,0.108A1,1,0,0,0,925.7,832.03Zm10.119,0.056a1.009,1.009,0,0,0,.452,1.875c1.69,0.1,3.362.26,4.971,0.463a1.017,1.017,0,0,0,1.133-.876,1.006,1.006,0,0,0-.874-1.128c-1.652-.208-3.367-0.368-5.1-0.476A1.013,1.013,0,0,0,935.816,832.086Zm10.022,1.28a1.009,1.009,0,0,0,.317,1.856c1.647,0.329,3.271.722,4.829,1.166a1.01,1.01,0,1,0,.561-1.941c-1.609-.46-3.287-0.865-4.987-1.205A1.008,1.008,0,0,0,945.838,833.366Zm9.694,2.782a1.009,1.009,0,0,0,.153,1.808c0.624,0.24,1.245.492,1.857,0.755-0.926.444-1.832,0.9-2.706,1.362a1.009,1.009,0,1,0,.947,1.783c1.324-.7,2.723-1.387,4.164-2.039l0.26,0.129a1.011,1.011,0,0,0,.911-1.806c-1.511-.755-3.093-1.451-4.7-2.069A1.015,1.015,0,0,0,955.532,836.148Zm-5.124,6.483-0.021.012c-1.485.937-2.91,1.925-4.234,2.936a1.009,1.009,0,1,0,1.228,1.6c1.276-.974,2.65-1.927,4.085-2.831A1.009,1.009,0,0,0,950.408,842.631Zm-8.019,6.153a1.129,1.129,0,0,0-.177.134,41.746,41.746,0,0,0-3.545,3.782,1.01,1.01,0,1,0,1.563,1.279,39.723,39.723,0,0,1,3.372-3.6A1.009,1.009,0,0,0,942.389,848.784Zm21.633-12.833a1.009,1.009,0,0,0,.878,1.809c1.521-.579,3.113-1.137,4.73-1.659a1.01,1.01,0,1,0-.619-1.922c-1.649.533-3.274,1.1-4.827,1.694A1.011,1.011,0,0,0,964.022,835.951Zm9.633-3.119a1.009,1.009,0,0,0,.784,1.839c1.584-.432,3.223-0.842,4.872-1.219a1.009,1.009,0,1,0-.446-1.968c-1.677.382-3.344,0.8-4.955,1.239A1,1,0,0,0,973.655,832.832ZM936,856.593a1,1,0,0,0-.347.345,32.205,32.205,0,0,0-2.336,4.66,1.011,1.011,0,1,0,1.879.747,30.1,30.1,0,0,1,2.189-4.367A1.009,1.009,0,0,0,936,856.593Zm28.525-15.938a1.009,1.009,0,0,0-.025,1.717,46.5,46.5,0,0,1,4.01,2.854,1.018,1.018,0,0,0,1.423-.162,1.007,1.007,0,0,0-.159-1.419,48.533,48.533,0,0,0-4.184-2.977A1.012,1.012,0,0,0,964.523,840.655Zm19-10.082a1.008,1.008,0,0,0,.7,1.857c1.626-.3,3.294-0.587,4.958-0.838a1.01,1.01,0,1,0-.3-2c-1.687.255-3.38,0.541-5.029,0.852A1,1,0,0,0,983.528,830.573Zm10.015-1.514a1.008,1.008,0,0,0,.633,1.869c1.651-.192,3.335-0.361,5.006-0.5a1.01,1.01,0,1,0-.164-2.013c-1.692.142-3.4,0.312-5.072,0.507A1.015,1.015,0,0,0,993.543,829.059Zm-61.281,36.872a1.009,1.009,0,0,0-.471.659,30.642,30.642,0,0,0-.623,4.671l-0.025.5a1.012,1.012,0,0,0,2.023.081l0.023-.473a28.673,28.673,0,0,1,.582-4.364A1.01,1.01,0,0,0,932.262,865.931Zm40.123-19.03a0.972,0.972,0,0,0-.2.158,1.007,1.007,0,0,0,.007,1.427,48.253,48.253,0,0,1,3.326,3.627,1.013,1.013,0,0,0,1.563-1.289,50.636,50.636,0,0,0-3.465-3.777A1.012,1.012,0,0,0,972.385,846.9Zm31.245-18.69a1.01,1.01,0,0,0,.57,1.875c1.65-.089,3.35-0.152,5.03-0.19a1.01,1.01,0,1,0-.04-2.019c-1.71.039-3.42,0.1-5.09,0.191A1.039,1.039,0,0,0,1003.63,828.211Zm-71.844,47.763a1.015,1.015,0,0,0-.488.979,27.232,27.232,0,0,0,1.054,5.124,1.013,1.013,0,0,0,1.933-.605,25.23,25.23,0,0,1-.975-4.744,1.008,1.008,0,0,0-1.116-.891A1.023,1.023,0,0,0,931.786,875.974Zm81.974-47.995a1.006,1.006,0,0,0,.51,1.875c1.64,0.011,3.34.045,5.03,0.1a1.01,1.01,0,1,0,.07-2.018c-1.71-.059-3.42-0.1-5.09-0.105A0.977,0.977,0,0,0,1013.76,827.979ZM978.8,854.633l-0.049.032a1.01,1.01,0,0,0-.271,1.4c0.526,0.773,1.025,1.552,1.482,2.315q0.574,0.96,1.076,1.9a1.012,1.012,0,0,0,1.788-.95q-0.523-.987-1.126-1.991c-0.477-.8-1-1.607-1.543-2.413A1.014,1.014,0,0,0,978.8,854.633Zm45.067-26.3a1.019,1.019,0,0,0-.49.8,1.009,1.009,0,0,0,.95,1.071c1.65,0.1,3.34.234,5.01,0.386a1.022,1.022,0,0,0,1.11-.913,1.011,1.011,0,0,0-.92-1.1c-1.69-.155-3.4-0.287-5.07-0.392A1.036,1.036,0,0,0,1023.87,828.331Zm-89.036,57.183a1.009,1.009,0,0,0-.35,1.385l0.058,0.1a21.173,21.173,0,0,0,3.173,4.071,1.012,1.012,0,0,0,1.436-1.427,19.187,19.187,0,0,1-2.871-3.684l-0.058-.1A1.012,1.012,0,0,0,934.834,885.514Zm99.116-56.262a1.011,1.011,0,0,0,.4,1.868c1.66,0.2,3.34.425,5,.67a1.01,1.01,0,1,0,.3-2c-1.67-.247-3.37-0.475-5.06-0.677A1.01,1.01,0,0,0,1033.95,829.252Zm-50.468,34.289a1.011,1.011,0,0,0-.431,1.214,27.7,27.7,0,0,1,1.277,4.685,1.013,1.013,0,0,0,1.994-.354,29.834,29.834,0,0,0-1.369-5.028,1.012,1.012,0,0,0-1.3-.6A1.1,1.1,0,0,0,983.482,863.541Zm60.5-32.8a1.013,1.013,0,0,0,.34,1.86c1.66,0.295,3.32.616,4.95,0.953a1.01,1.01,0,1,0,.41-1.977c-1.64-.341-3.32-0.665-5-0.964A1.022,1.022,0,0,0,1043.98,830.741Zm-102.1,61.848a1.009,1.009,0,0,0-.009,1.728,24.884,24.884,0,0,0,4.76,2.225,1.011,1.011,0,1,0,.67-1.907,22.975,22.975,0,0,1-4.374-2.043A1.012,1.012,0,0,0,941.877,892.589Zm43.279-19.171a1.011,1.011,0,0,0-.493.825,19.566,19.566,0,0,1-.781,4.723,1.011,1.011,0,0,0,1.941.568,21.574,21.574,0,0,0,.862-5.21A1.01,1.01,0,0,0,985.156,873.418ZM1053.9,832.8a1,1,0,0,0,.28,1.847c1.61,0.385,3.25.8,4.87,1.24a1.009,1.009,0,1,0,.53-1.948c-1.63-.444-3.29-0.866-4.93-1.255A0.991,0.991,0,0,0,1053.9,832.8ZM951.349,895.929a1.008,1.008,0,0,0,.361,1.863,32.526,32.526,0,0,0,5.2.369,1.01,1.01,0,1,0-.011-2.019,30.67,30.67,0,0,1-4.878-.345A1.007,1.007,0,0,0,951.349,895.929ZM982.31,883a1.014,1.014,0,0,0-.351.353,21.587,21.587,0,0,1-2.917,3.836,1.009,1.009,0,1,0,1.468,1.386,23.565,23.565,0,0,0,3.191-4.2A1.009,1.009,0,0,0,982.31,883Zm-20.88,12.873a1.009,1.009,0,0,0,.672,1.864,36.177,36.177,0,0,0,5.074-1.172,1.009,1.009,0,1,0-.593-1.928,34.229,34.229,0,0,1-4.788,1.1A1.023,1.023,0,0,0,961.43,895.873Zm102.22-60.426a1.012,1.012,0,0,0,.23,1.83c1.59,0.485,3.2,1,4.77,1.539a1.011,1.011,0,1,0,.66-1.912c-1.6-.543-3.23-1.068-4.84-1.558A1.019,1.019,0,0,0,1063.65,835.447Zm-92.578,57.44a1.009,1.009,0,0,0,.959,1.774,31.859,31.859,0,0,0,4.5-2.654,1.009,1.009,0,1,0-1.172-1.644,29.659,29.659,0,0,1-4.212,2.481A0.865,0.865,0,0,0,971.072,892.887Z" transform="translate(-800 -827.844)"/>
</svg>
