<svg xmlns="http://www.w3.org/2000/svg" xmlns:xlink="http://www.w3.org/1999/xlink" preserveAspectRatio="xMidYMid" width="13" height="14" viewBox="0 0 13 14">
  <defs>
    <style>
      .cls-1 {
        fill: #fff;
        fill-rule: evenodd;
      }
    </style>
  </defs>
  <path d="M10.636,4.667 C10.022,4.667 9.468,4.429 9.047,4.049 L4.673,6.511 C4.707,6.669 4.727,6.832 4.727,7.000 C4.727,7.203 4.693,7.396 4.643,7.584 L8.966,10.017 C9.394,9.595 9.985,9.333 10.636,9.333 C11.940,9.333 13.000,10.380 13.000,11.667 C13.000,12.953 11.940,14.000 10.636,14.000 C9.333,14.000 8.272,12.953 8.272,11.667 C8.272,11.557 8.290,11.453 8.305,11.348 L3.820,8.823 C3.417,9.138 2.916,9.333 2.363,9.333 C1.060,9.333 -0.000,8.287 -0.000,7.000 C-0.000,5.713 1.060,4.667 2.363,4.667 C2.953,4.667 3.487,4.888 3.901,5.242 L8.316,2.758 C8.290,2.620 8.272,2.479 8.272,2.333 C8.272,1.046 9.333,-0.000 10.636,-0.000 C11.940,-0.000 13.000,1.046 13.000,2.333 C13.000,3.620 11.940,4.667 10.636,4.667 Z" class="cls-1"/>
</svg>
