<svg xmlns="http://www.w3.org/2000/svg" xmlns:xlink="http://www.w3.org/1999/xlink" preserveAspectRatio="xMidYMid" width="20" height="20" viewBox="0 0 20 20">
  <defs>
    <style>
      .cls-1 {
        fill: #0bb8ff;
        fill-rule: evenodd;
      }
    </style>
  </defs>
  <path d="M19.091,9.091 C18.589,9.091 18.182,8.684 18.182,8.182 L18.182,3.104 L8.825,12.461 C8.647,12.639 8.414,12.727 8.182,12.727 C7.949,12.727 7.716,12.639 7.539,12.461 C7.184,12.106 7.184,11.530 7.539,11.175 L16.896,1.818 L11.818,1.818 C11.316,1.818 10.909,1.411 10.909,0.909 C10.909,0.407 11.316,-0.000 11.818,-0.000 L19.091,-0.000 C19.593,-0.000 20.000,0.407 20.000,0.909 L20.000,8.182 C20.000,8.684 19.593,9.091 19.091,9.091 ZM10.000,5.455 L1.818,5.455 L1.818,18.182 L14.545,18.182 L14.545,10.000 C14.545,9.498 14.952,9.091 15.454,9.091 C15.957,9.091 16.364,9.498 16.364,10.000 L16.364,19.091 C16.364,19.593 15.957,20.000 15.454,20.000 L0.909,20.000 C0.407,20.000 -0.000,19.593 -0.000,19.091 L-0.000,4.545 C-0.000,4.043 0.407,3.636 0.909,3.636 L10.000,3.636 C10.502,3.636 10.909,4.043 10.909,4.545 C10.909,5.047 10.502,5.455 10.000,5.455 Z" class="cls-1"/>
</svg>
