<svg xmlns="http://www.w3.org/2000/svg" xmlns:xlink="http://www.w3.org/1999/xlink" preserveAspectRatio="xMidYMid" width="27" height="27" viewBox="0 0 27 27">
  <defs>
    <style>
      .cls-1 {
        fill: green;
        fill-rule: evenodd;
      }
    </style>
  </defs>
  <path d="M13.500,27.000 C6.056,27.000 -0.000,20.944 -0.000,13.500 C-0.000,6.056 6.056,-0.000 13.500,-0.000 C14.062,-0.000 14.517,0.455 14.517,1.018 C14.517,1.580 14.062,2.035 13.500,2.035 C7.178,2.035 2.035,7.178 2.035,13.500 C2.035,19.822 7.178,24.965 13.500,24.965 C19.822,24.965 24.965,19.822 24.965,13.500 C24.965,12.938 25.420,12.482 25.982,12.482 C26.544,12.482 27.000,12.938 27.000,13.500 C27.000,20.944 20.944,27.000 13.500,27.000 ZM13.269,18.054 C13.078,18.244 12.819,18.350 12.550,18.350 C12.543,18.350 12.536,18.350 12.529,18.350 C12.252,18.344 11.989,18.226 11.802,18.022 L6.680,12.460 C6.299,12.046 6.326,11.402 6.739,11.022 C7.153,10.641 7.796,10.668 8.177,11.081 L12.581,15.865 L24.789,3.689 C25.186,3.293 25.831,3.293 26.228,3.691 C26.625,4.089 26.624,4.733 26.226,5.130 L13.269,18.054 Z" class="cls-1"/>
</svg>
