<svg xmlns="http://www.w3.org/2000/svg" xmlns:xlink="http://www.w3.org/1999/xlink" preserveAspectRatio="xMidYMid" width="40" height="36" viewBox="0 0 40 36">
  <defs>
    <style>
      .cls-1 {
        fill: #d8e3e8;
        fill-rule: evenodd;
      }
    </style>
  </defs>
  <path d="M35.833,26.182 L10.832,26.182 C8.535,26.182 6.665,24.346 6.665,22.091 L6.665,4.091 C6.665,1.836 8.535,-0.000 10.832,-0.000 L35.833,-0.000 C38.130,-0.000 40.000,1.836 40.000,4.091 L40.000,22.091 C40.000,24.346 38.130,26.182 35.833,26.182 ZM36.666,4.091 C36.666,3.639 36.293,3.273 35.833,3.273 L10.832,3.273 C10.372,3.273 9.998,3.639 9.998,4.091 L9.998,19.536 L14.599,15.022 C15.737,13.902 17.592,13.902 18.732,15.022 L20.749,16.997 L26.939,9.702 C27.493,9.051 28.303,8.674 29.166,8.669 C30.034,8.689 30.843,9.033 31.401,9.676 L36.666,15.707 L36.666,4.091 ZM14.999,11.454 C13.160,11.454 11.665,9.987 11.665,8.182 C11.665,6.377 13.160,4.909 14.999,4.909 C16.837,4.909 18.332,6.377 18.332,8.182 C18.332,9.987 16.837,11.454 14.999,11.454 ZM34.611,28.636 L33.110,33.324 C32.685,34.918 31.168,36.000 29.508,36.000 C29.191,36.000 28.869,35.961 28.548,35.879 L2.775,29.102 C0.786,28.564 -0.399,26.543 0.121,24.594 L4.165,11.343 L4.165,22.500 C4.165,23.056 4.250,23.612 4.453,24.274 L4.511,24.462 C5.373,26.959 7.747,28.636 10.415,28.636 L34.611,28.636 Z" class="cls-1"/>
</svg>
